<svg width="32"
     height="32"
     viewBox="0 0 32 32"
     fill="none"
     xmlns="http://www.w3.org/2000/svg">
    <path d="M16 5C13.879 5.00238 11.8456 5.846 10.3458 7.34578C8.846 8.84555 8.00238 10.879 8 13C8 18.6367 15.0704 25.772 15.3714 26.073C15.5392 26.2376 15.7649 26.3298 16 26.3298C16.2351 26.3298 16.4608 26.2376 16.6286 26.073C16.9296 25.772 24 18.6367 24 13C23.9976 10.879 23.154 8.84555 21.6542 7.34578C20.1544 5.846 18.121 5.00238 16 5ZM16 24.1518C14.3063 22.3086 9.77778 17.005 9.77778 13C9.77778 11.3498 10.4333 9.76712 11.6002 8.60022C12.7671 7.43333 14.3498 6.77778 16 6.77778C17.6502 6.77778 19.2329 7.43333 20.3998 8.60022C21.5667 9.76712 22.2222 11.3498 22.2222 13C22.2222 17.005 17.6936 22.3087 16 24.1518Z"
          fill="#1A1818" />
    <path d="M19 13C19 14.6569 17.6569 16 16 16C14.3431 16 13 14.6569 13 13C13 11.3431 14.3431 10 16 10C17.6569 10 19 11.3431 19 13Z"
          fill="#1A1818" />
</svg>