<svg width="50" height="6" viewBox="0 0 50 6" fill="none" xmlns="http://www.w3.org/2000/svg">
<path d="M42.2142 5.50831H44.157V3.52934H44.8075L47.2027 5.50792H50L46.6488 2.78415L49.7649 0H47.0181L44.8268 1.93701H44.0881V0.000376924H42.2146V5.50831H42.2142ZM5.71222 0.000376924L8.67951 5.50792H6.61514L6.10039 4.57385H2.67876L2.15362 5.50792H0L3.04962 0.000376924H5.71222ZM5.29096 3.17964L4.37342 1.57386L4.36688 1.56079L3.45589 3.17967L5.29096 3.17964ZM10.9108 5.50716V3.52934H11.5606L13.9566 5.50792H16.7539L13.3949 2.78415L16.5173 0.000376924H13.7712L11.5795 1.93701H10.8343V0.000376924H8.96112V5.50716H10.9108ZM20.4806 0.000376924C21.2196 0.000376924 21.9586 0.000376924 22.6977 0.000376924C23.0293 0.000376924 23.6533 0.30121 23.8638 0.948297C24.0357 1.49267 23.9145 2.38867 23.4494 2.71606C23.7872 2.85681 24.0165 3.38855 24.0484 3.93906V4.15682C24.0417 4.25293 24.0296 4.34839 24.01 4.43803C23.8884 5.04665 23.411 5.50754 23.029 5.50754C22.1749 5.50754 21.3274 5.50754 20.4802 5.50754C19.3584 5.50754 18.2374 5.50754 17.1221 5.50754C17.1167 3.67478 17.1167 1.83738 17.1102 0C18.232 0.000376812 19.3595 0.000376924 20.4806 0.000376924ZM21.8629 3.97676C22.0287 3.97676 22.1683 3.84212 22.1683 3.68246C22.1683 3.52319 22.0283 3.39393 21.8629 3.39393H18.8752V3.97676H21.8629ZM20.4806 1.99819H21.7867C21.9533 1.99819 22.0868 1.86311 22.0868 1.70312C22.0868 1.54308 21.9533 1.4088 21.7867 1.4088H18.8756V1.9978H20.4806V1.99819ZM33.2746 0.000376924V5.50792H35.2428V1.80891L38.0447 5.50716H41.0797V0.000376924H39.1365V3.84827L36.2823 0.000376924H33.2746ZM29.9668 0.000376924L32.9337 5.50792H30.8759L30.3642 4.59269H26.9422L26.4252 5.50792H24.2723L27.3216 0.000376924H29.9668ZM29.5729 3.17964L28.6488 1.57386L28.6421 1.56079L27.7311 3.17965L29.5729 3.17964Z" fill="#DF392E"/>
</svg>
