<svg width="32"
     height="32"
     viewBox="0 0 32 32"
     fill="none"
     xmlns="http://www.w3.org/2000/svg">
    <path d="M19.636 20.4852L25.5858 14.5355L27 15.9497L21.0503 21.8994L19.636 20.4852Z"
          fill="#1A1818" />
    <path d="M19.636 11.4141L21.0503 9.99992L27 15.9497L25.5858 17.3639L19.636 11.4141Z"
          fill="#1A1818" />
    <path d="M25 16.8994L16 16.8994L17 14.8994L25 14.8994L25 16.8994Z"
          fill="#1A1818" />
    <path d="M12.364 20.4852L6.41421 14.5355L5 15.9497L10.9497 21.8994L12.364 20.4852Z"
          fill="#1A1818" />
    <path d="M12.364 11.4141L10.9497 9.99992L5 15.9497L6.41421 17.3639L12.364 11.4141Z"
          fill="#1A1818" />
    <path d="M6.99996 16.8994L15 16.8994L16 14.8994L6.99996 14.8994L6.99996 16.8994Z"
          fill="#1A1818" />
</svg>