<svg width="50" height="14" viewBox="0 0 50 14" fill="none" xmlns="http://www.w3.org/2000/svg">
<path d="M0.25 8.23203H49.75V10.482H0.25V8.23203Z" fill="black"/>
<path d="M0.25 11.3903H49.75V13.6403H0.25V11.3903Z" fill="black"/>
<path fill-rule="evenodd" clip-rule="evenodd" d="M7.50312 0.608584L3.00312 9.60858L1.99689 9.10547L6.49689 0.105469L7.50312 0.608584Z" fill="black"/>
<path fill-rule="evenodd" clip-rule="evenodd" d="M42.4969 0.608584L46.9969 9.60858L48.0031 9.10547L43.5031 0.105469L42.4969 0.608584Z" fill="black"/>
<path fill-rule="evenodd" clip-rule="evenodd" d="M12.0031 0.608584L7.50312 9.60858L6.49689 9.10547L10.9969 0.105469L12.0031 0.608584Z" fill="black"/>
<path fill-rule="evenodd" clip-rule="evenodd" d="M37.9969 0.608584L42.4969 9.60858L43.5031 9.10547L39.0031 0.105469L37.9969 0.608584Z" fill="black"/>
<path fill-rule="evenodd" clip-rule="evenodd" d="M16.5031 0.608584L12.0031 9.60858L10.9969 9.10547L15.4969 0.105469L16.5031 0.608584Z" fill="black"/>
<path fill-rule="evenodd" clip-rule="evenodd" d="M33.4969 0.608584L37.9969 9.60858L39.0031 9.10547L34.5031 0.105469L33.4969 0.608584Z" fill="black"/>
<path fill-rule="evenodd" clip-rule="evenodd" d="M21.0031 0.608584L16.5031 9.60858L15.4969 9.10547L19.9969 0.105469L21.0031 0.608584Z" fill="black"/>
<path fill-rule="evenodd" clip-rule="evenodd" d="M28.9969 0.608584L33.4969 9.60858L34.5031 9.10547L30.0031 0.105469L28.9969 0.608584Z" fill="black"/>
<path fill-rule="evenodd" clip-rule="evenodd" d="M25.5031 0.608584L21.0031 9.60858L19.9969 9.10547L24.4969 0.105469L25.5031 0.608584Z" fill="black"/>
<path fill-rule="evenodd" clip-rule="evenodd" d="M24.4969 0.608584L28.9969 9.60858L30.0031 9.10547L25.5031 0.105469L24.4969 0.608584Z" fill="black"/>
<path fill-rule="evenodd" clip-rule="evenodd" d="M30.0031 0.608584L25.5031 9.60858L24.4969 9.10547L28.9969 0.105469L30.0031 0.608584Z" fill="black"/>
<path fill-rule="evenodd" clip-rule="evenodd" d="M19.9969 0.608584L24.4969 9.60858L25.5031 9.10547L21.0031 0.105469L19.9969 0.608584Z" fill="black"/>
<path fill-rule="evenodd" clip-rule="evenodd" d="M34.5031 0.608584L30.0031 9.60858L28.9969 9.10547L33.4969 0.105469L34.5031 0.608584Z" fill="black"/>
<path fill-rule="evenodd" clip-rule="evenodd" d="M15.4969 0.608584L19.9969 9.60858L21.0031 9.10547L16.5031 0.105469L15.4969 0.608584Z" fill="black"/>
<path fill-rule="evenodd" clip-rule="evenodd" d="M39.0031 0.608584L34.5031 9.60858L33.4969 9.10547L37.9969 0.105469L39.0031 0.608584Z" fill="black"/>
<path fill-rule="evenodd" clip-rule="evenodd" d="M10.9969 0.608584L15.4969 9.60858L16.5031 9.10547L12.0031 0.105469L10.9969 0.608584Z" fill="black"/>
<path fill-rule="evenodd" clip-rule="evenodd" d="M43.5031 0.608584L39.0031 9.60858L37.9969 9.10547L42.4969 0.105469L43.5031 0.608584Z" fill="black"/>
<path fill-rule="evenodd" clip-rule="evenodd" d="M6.49689 0.608584L10.9969 9.60858L12.0031 9.10547L7.50312 0.105469L6.49689 0.608584Z" fill="black"/>
<path fill-rule="evenodd" clip-rule="evenodd" d="M48.0031 0.608584L43.5031 9.60858L42.4969 9.10547L46.9969 0.105469L48.0031 0.608584Z" fill="black"/>
<path fill-rule="evenodd" clip-rule="evenodd" d="M1.99689 0.608584L6.49689 9.60858L7.50312 9.10547L3.00312 0.105469L1.99689 0.608584Z" fill="black"/>
</svg>
