<svg width="64" height="64" viewBox="0 0 64 64" fill="none" xmlns="http://www.w3.org/2000/svg">
<rect width="64" height="64" fill="white"/>
<path fill-rule="evenodd" clip-rule="evenodd" d="M13.0256 18.5L7 59.5H54L47.9744 18.5H13.0256Z" fill="#1A1818"/>
<path fill-rule="evenodd" clip-rule="evenodd" d="M39.5 27.5L39.5 16C39.5 11.0294 35.4706 7 30.5 7C25.5294 7 21.5 11.0294 21.5 16L21.5 27.5L18.5 27.5L18.5 16C18.5 9.37259 23.8726 4 30.5 4C37.1274 4 42.5 9.37258 42.5 16L42.5 27.5L39.5 27.5Z" fill="#1A1818"/>
<path d="M58 23.5C58 30.1274 52.6274 35.5 46 35.5C39.3726 35.5 34 30.1274 34 23.5C34 16.8726 39.3726 11.5 46 11.5C52.6274 11.5 58 16.8726 58 23.5Z" fill="white"/>
<path fill-rule="evenodd" clip-rule="evenodd" d="M46 33.2407C51.3797 33.2407 55.7407 28.8797 55.7407 23.5C55.7407 18.1203 51.3797 13.7593 46 13.7593C40.6203 13.7593 36.2593 18.1203 36.2593 23.5C36.2593 28.8797 40.6203 33.2407 46 33.2407ZM46 35.5C52.6274 35.5 58 30.1274 58 23.5C58 16.8726 52.6274 11.5 46 11.5C39.3726 11.5 34 16.8726 34 23.5C34 30.1274 39.3726 35.5 46 35.5Z" fill="#1A1818"/>
<rect x="40" y="22.5" width="12" height="2" fill="#DF4826"/>
</svg>
