<svg width="18" height="18" viewBox="0 0 18 18" xmlns="http://www.w3.org/2000/svg">
<path d="M11.0451 15.9517C11.0451 16.4941 10.8296 17.0143 10.4461 17.3978C10.0626 17.7813 9.54239 17.9968 9 17.9968C8.45761 17.9968 7.93743 17.7813 7.5539 17.3978C7.17037 17.0143 6.95491 16.4941 6.95491 15.9517H0.819641C0.116948 15.9517 -0.25894 15.1238 0.204068 14.595L2.25816 12.2472C2.57433 11.8861 2.86473 11.113 2.86473 10.6332V6.13527C2.86473 2.74696 5.61169 0 9 0C12.3883 0 15.1353 2.74696 15.1353 6.13527V10.6332C15.1353 11.1138 15.4257 11.8857 15.7418 12.2472L17.7959 14.595C18.2589 15.1238 17.8831 15.9517 17.1804 15.9517H11.0451ZM14.5107 13.3246C13.9328 12.6648 13.4992 11.5102 13.4992 10.6332V6.13527C13.4992 3.65049 11.4848 1.63607 9 1.63607C6.51522 1.63607 4.5008 3.65049 4.5008 6.13527V10.6332C4.5008 11.5094 4.06643 12.6652 3.4893 13.3246L2.62218 14.3156H15.3774L14.5103 13.3246H14.5107Z" fill="black"/>
</svg>
