<svg width="32"
     height="32"
     viewBox="0 0 32 32"
     fill="none"
     xmlns="http://www.w3.org/2000/svg">
    <path d="M18.0451 22.9517C18.0451 23.4941 17.8296 24.0143 17.4461 24.3978C17.0626 24.7813 16.5424 24.9968 16 24.9968C15.4576 24.9968 14.9374 24.7813 14.5539 24.3978C14.1704 24.0143 13.9549 23.4941 13.9549 22.9517H7.81964C7.11695 22.9517 6.74106 22.1238 7.20407 21.595L9.25816 19.2472C9.57433 18.8861 9.86473 18.113 9.86473 17.6332V13.1353C9.86473 9.74696 12.6117 7 16 7C19.3883 7 22.1353 9.74696 22.1353 13.1353V17.6332C22.1353 18.1138 22.4257 18.8857 22.7418 19.2472L24.7959 21.595C25.2589 22.1238 24.8831 22.9517 24.1804 22.9517H18.0451ZM21.5107 20.3246C20.9328 19.6648 20.4992 18.5102 20.4992 17.6332V13.1353C20.4992 10.6505 18.4848 8.63607 16 8.63607C13.5152 8.63607 11.5008 10.6505 11.5008 13.1353V17.6332C11.5008 18.5094 11.0664 19.6652 10.4893 20.3246L9.62218 21.3156H22.3774L21.5103 20.3246H21.5107Z"
          fill="black" />
</svg>