<svg width="26" height="19" viewBox="0 0 26 19" fill="none" xmlns="http://www.w3.org/2000/svg">
<path fill-rule="evenodd" clip-rule="evenodd" d="M11.526 3.76295C11.6179 3.7251 11.719 3.71547 11.8163 3.7353L20.4472 5.49345C20.6461 5.53396 20.8007 5.69067 20.8386 5.89006C20.8765 6.08944 20.7901 6.29195 20.62 6.40258L16.364 9.1697C16.254 9.2412 16.1203 9.26662 15.9918 9.24049L5.70844 7.15005C5.49283 7.10622 5.33121 6.9266 5.31031 6.70758C5.2894 6.48856 5.41412 6.28161 5.61754 6.19778L11.526 3.76295ZM11.7661 4.74561L7.51598 6.49704L15.9905 8.21976L19.0514 6.22965L11.7661 4.74561Z" fill="black"/>
<path fill-rule="evenodd" clip-rule="evenodd" d="M14.4332 0.853874C14.5518 0.737345 14.7205 0.687355 14.8834 0.720492L23.7639 2.52698C23.9492 2.56467 24.0974 2.70369 24.1469 2.88622C24.1963 3.06875 24.1385 3.26356 23.9976 3.38963L20.6807 6.35613C20.563 6.46144 20.4024 6.50491 20.2476 6.47338L11.6167 4.71523C11.4356 4.67833 11.2896 4.54451 11.2371 4.36727C11.1846 4.19003 11.2342 3.99829 11.366 3.86871L14.4332 0.853874ZM14.9446 1.75342L12.7374 3.92297L20.2012 5.44339L22.5884 3.30834L14.9446 1.75342Z" fill="black"/>
<path fill-rule="evenodd" clip-rule="evenodd" d="M16.0914 8.25059C16.3675 8.25059 16.5914 8.47444 16.5914 8.75059V17.2669L19.8474 14.7294V9.38497C19.8474 9.10883 20.0713 8.88497 20.3474 8.88497C20.6235 8.88497 20.8474 9.10883 20.8474 9.38497V14.9736C20.8474 15.1277 20.7763 15.2732 20.6548 15.368L16.3988 18.6849C16.2481 18.8023 16.0436 18.8236 15.8719 18.7398C15.7003 18.6559 15.5914 18.4816 15.5914 18.2905V8.75059C15.5914 8.47444 15.8153 8.25059 16.0914 8.25059Z" fill="black"/>
<path fill-rule="evenodd" clip-rule="evenodd" d="M20.0749 5.56419C20.1688 5.50312 20.2805 5.47537 20.3921 5.48538L25.3733 5.93247C25.5675 5.94991 25.7339 6.07867 25.7995 6.26232C25.8651 6.44597 25.8179 6.65099 25.6786 6.78751L22.4926 9.91109C22.3827 10.0188 22.2293 10.07 22.0767 10.0497L16.0256 9.24615C15.8182 9.21861 15.6498 9.06481 15.6037 8.86071C15.5576 8.65661 15.6434 8.44537 15.8189 8.33131L20.0749 5.56419ZM20.475 6.49684L17.4973 8.43281L21.9666 9.02631L24.2052 6.83165L20.475 6.49684Z" fill="black"/>
<path fill-rule="evenodd" clip-rule="evenodd" d="M5.31807 6.56053C5.37308 6.28993 5.63704 6.11515 5.90765 6.17016L16.191 8.26061C16.424 8.30797 16.5914 8.51284 16.5914 8.75059L16.5914 18.2905C16.5914 18.445 16.5208 18.5902 16.3988 18.6849C16.2767 18.7796 16.117 18.8132 15.9673 18.7749L5.68397 16.1407C5.46276 16.084 5.30804 15.8847 5.30804 15.6563V9.40913C5.30804 9.13299 5.5319 8.90913 5.80804 8.90913C6.08419 8.90913 6.30804 9.13299 6.30804 9.40913V15.2682L15.5914 17.6463V9.15917L5.70844 7.15005C5.43783 7.09504 5.26306 6.83114 5.31807 6.56053Z" fill="black"/>
<path fill-rule="evenodd" clip-rule="evenodd" d="M8.30471 1.70778C8.45051 1.65426 8.61291 1.67154 8.74419 1.75454L11.9837 3.80269C12.1417 3.90258 12.2308 4.08226 12.2147 4.26848C12.1985 4.45471 12.0799 4.61638 11.9071 4.6876L5.99858 7.12242C5.86273 7.17841 5.70913 7.1718 5.57859 7.10436L1.61385 5.05621C1.43766 4.96519 1.33192 4.77866 1.34431 4.58074C1.3567 4.38282 1.48489 4.21093 1.67105 4.1426L8.30471 1.70778ZM3.08298 4.6896L5.83175 6.10959L10.6323 4.13134L8.41802 2.73142L3.08298 4.6896Z" fill="black"/>
<path fill-rule="evenodd" clip-rule="evenodd" d="M5.6298 6.193C5.71839 6.15919 5.81473 6.15127 5.90765 6.17016L16.191 8.26061C16.4146 8.30606 16.5791 8.49711 16.5908 8.72498C16.6025 8.95284 16.4584 9.15972 16.2406 9.2278L11.3902 10.7443C11.3131 10.7684 11.2313 10.7735 11.1517 10.759L1.06454 8.92838C0.843749 8.88831 0.676695 8.70605 0.655962 8.48261C0.635229 8.25917 0.765894 8.04929 0.975543 7.96928L5.6298 6.193ZM5.85074 7.17904L3.00659 8.26449L11.2093 9.75313L14.0871 8.85336L5.85074 7.17904Z" fill="black"/>
</svg>
