<svg width="46" height="46" viewBox="0 0 46 46" fill="none" xmlns="http://www.w3.org/2000/svg">
<path d="M23 0.5L0.5 8.83347V37.1559L23 45.4894L45.5 37.1559V8.83347L23 0.5ZM23 15.8644L17.3166 13.7595L32.9976 7.95182L38.6809 10.0567L23 15.8644ZM27.9363 6.07728L12.2554 11.8849L7.31908 10.0567L23 4.24908L27.9363 6.07728ZM4.01562 12.5822L10.6953 15.0562V23.7361L14.2106 25.038C14.2106 25.0366 14.2109 25.0352 14.2109 25.0338V16.3584L21.2422 18.9625V41.089L4.01562 34.709V12.5822ZM24.7578 41.089V18.9625L41.9844 12.5822V34.709L24.7578 41.089Z" fill="currentColor"/>
</svg>
