<svg width="100"
     height="100"
     viewBox="0 0 100 100"
     fill="none"
     xmlns="http://www.w3.org/2000/svg">
    <path d="M69.7355 75.1944L65.8243 70.3644L64.134 71.7332L63.5141 70.9677L67.699 67.5788L68.3189 68.3443L66.6403 69.7036L70.5515 74.5336L69.7355 75.1944Z"
          fill="#1A1818" />
    <path d="M63.5531 78.9931L60.3969 72.5218L61.3451 72.0593L64.5014 78.5306L63.5531 78.9931Z"
          fill="#1A1818" />
    <path d="M55.8384 81.5239L54.0966 74.5378L58.3902 73.4673L58.6285 74.423L55.3586 75.2383L55.9174 77.4797L58.5857 76.8144L58.824 77.7701L56.1557 78.4354L56.8621 81.2687L55.8384 81.5239Z"
          fill="#1A1818" />
    <path d="M48.5004 79.265V78.425H51.5004V79.265H48.5004Z"
          fill="#1A1818" />
    <path d="M43.3756 81.3114L44.7494 74.2437L45.785 74.445L44.4112 81.5127L43.3756 81.3114Z"
          fill="#1A1818" />
    <path d="M38.9481 73.3445L40.5429 73.9888C40.7592 74.0762 40.9381 74.1808 41.0794 74.3026C41.2207 74.4245 41.3273 74.561 41.3992 74.7123C41.4724 74.8605 41.5077 75.0222 41.5053 75.1973C41.5028 75.3725 41.4622 75.5574 41.3836 75.7521C41.3049 75.9468 41.205 76.1096 41.0838 76.2404C40.9639 76.3681 40.8256 76.4614 40.6688 76.5203C40.5132 76.5761 40.3423 76.5987 40.156 76.5882C39.971 76.5745 39.7703 76.524 39.5539 76.4366L37.9592 75.7923L38.9481 73.3445ZM39.5267 80.2813L40.6578 80.7384L39.9234 76.9903L38.8479 76.8092L39.5267 80.2813ZM36.62 79.1069L37.5883 76.7102L39.1923 77.3582C39.5694 77.5106 39.9216 77.5954 40.249 77.6126C40.5795 77.6311 40.8774 77.5878 41.1427 77.4829C41.4123 77.3762 41.6496 77.2114 41.8547 76.9887C42.0609 76.7628 42.2315 76.483 42.3664 76.1492C42.5012 75.8154 42.5723 75.4972 42.5795 75.1945C42.5868 74.8919 42.5305 74.6085 42.4107 74.3444C42.294 74.0815 42.1098 73.8435 41.8579 73.6303C41.6105 73.4153 41.2982 73.2316 40.9212 73.0793L38.339 72.036L35.6418 78.7117L36.62 79.1069Z"
          fill="#1A1818" />
    <path d="M30.309 75.2298C30.7615 75.5708 31.2106 75.8111 31.6563 75.9508C32.102 76.0905 32.5359 76.1295 32.9581 76.0678C33.3822 76.0034 33.7899 75.839 34.1812 75.5746C34.5745 75.3075 34.9456 74.9423 35.2947 74.4791C35.6437 74.0159 35.8914 73.5598 36.0378 73.1108C36.1861 72.6591 36.2318 72.2219 36.1748 71.7991C36.1197 71.3736 35.9636 70.9659 35.7065 70.576C35.4494 70.1861 35.0946 69.8206 34.642 69.4796L32.873 68.1466L28.54 73.8967L30.309 75.2298ZM33.1308 69.5742L33.9614 70.2C34.6402 70.7116 35.017 71.2668 35.0916 71.8656C35.1689 72.4665 34.9438 73.117 34.4162 73.8171C34.1534 74.1658 33.8801 74.4399 33.5963 74.6392C33.3172 74.8379 33.0272 74.9596 32.7265 75.0043C32.4284 75.0509 32.1184 75.0219 31.7967 74.9171C31.4796 74.8118 31.152 74.6317 30.8139 74.3769L29.9833 73.751L33.1308 69.5742Z"
          fill="#1A1818" />
    <path d="M73.4964 68.6526C77.0299 64.2015 79.2264 58.8382 79.8302 53.1871C80.434 47.5361 79.4202 41.8298 76.9068 36.7326C74.3934 31.6353 70.4839 27.3569 65.6333 24.3953C60.7827 21.4337 55.1907 19.9109 49.5083 20.004C43.8258 20.0972 38.2867 21.8025 33.5359 24.9215C28.785 28.0404 25.0178 32.4447 22.6728 37.6216C20.3278 42.7985 19.5016 48.5349 20.2903 54.1632C21.0789 59.7914 23.4501 65.0798 27.1276 69.4128L28.0915 68.5946C24.569 64.4443 22.2977 59.3787 21.5423 53.9877C20.7869 48.5967 21.5783 43.102 23.8244 38.1433C26.0706 33.1846 29.679 28.9659 34.2297 25.9783C38.7804 22.9908 44.086 21.3574 49.529 21.2681C54.972 21.1789 60.3283 22.6376 64.9745 25.4744C69.6206 28.3111 73.3654 32.4093 75.7729 37.2917C78.1803 42.1741 79.1514 47.6399 78.5731 53.0528C77.9948 58.4657 75.8908 63.603 72.5062 67.8666L73.4964 68.6526Z"
          fill="#1A1818" />
    <path d="M39.0711 55.4558L44.7279 49.799L48.9706 54.0416L43.3137 59.6985L39.0711 55.4558Z"
          fill="#1A1818" />
    <path d="M39.0711 41.3137L43.3137 37.0711L48.9706 42.7279L44.7279 46.9706L39.0711 41.3137Z"
          fill="#1A1818" />
    <path d="M51.799 42.7279L57.4558 37.0711L61.6985 41.3137L56.0416 46.9706L51.799 42.7279Z"
          fill="#1A1818" />
    <path d="M34.8284 48.3848L39.0711 44.1421L43.3137 48.3848L39.0711 52.6274L34.8284 48.3848Z"
          fill="#1A1818" />
    <path d="M46.1421 48.3848L50.3848 44.1421L54.6274 48.3848L50.3848 52.6274L46.1421 48.3848Z"
          fill="#1A1818" />
    <path d="M46.1421 37.0711L50.3848 32.8284L54.6274 37.0711L50.3848 41.3137L46.1421 37.0711Z"
          fill="#1A1818" />
    <path d="M46.1421 59.6985L50.3848 55.4558L54.6274 59.6985L50.3848 63.9411L46.1421 59.6985Z"
          fill="#1A1818" />
    <path d="M51.799 54.0416L56.0416 49.799L61.6985 55.4558L57.4558 59.6985L51.799 54.0416Z"
          fill="#1A1818" />
    <path d="M57.4558 48.3848L61.6985 44.1421L65.9411 48.3848L61.6985 52.6274L57.4558 48.3848Z"
          fill="#1A1818" />
</svg>