<svg width="50" height="12" viewBox="0 0 50 12" fill="none" xmlns="http://www.w3.org/2000/svg">
<path d="M0.25 7.25156H49.75V11.7516H0.25V7.25156Z" fill="black"/>
<path fill-rule="evenodd" clip-rule="evenodd" d="M7.50312 0.753115L3.00312 9.75312L1.99689 9.25L6.49689 0.25L7.50312 0.753115Z" fill="black"/>
<path fill-rule="evenodd" clip-rule="evenodd" d="M42.4969 0.753115L46.9969 9.75312L48.0031 9.25L43.5031 0.25L42.4969 0.753115Z" fill="black"/>
<path fill-rule="evenodd" clip-rule="evenodd" d="M12.0031 0.753115L7.50312 9.75312L6.49689 9.25L10.9969 0.25L12.0031 0.753115Z" fill="black"/>
<path fill-rule="evenodd" clip-rule="evenodd" d="M37.9969 0.753115L42.4969 9.75312L43.5031 9.25L39.0031 0.25L37.9969 0.753115Z" fill="black"/>
<path fill-rule="evenodd" clip-rule="evenodd" d="M16.5031 0.753115L12.0031 9.75312L10.9969 9.25L15.4969 0.25L16.5031 0.753115Z" fill="black"/>
<path fill-rule="evenodd" clip-rule="evenodd" d="M33.4969 0.753115L37.9969 9.75312L39.0031 9.25L34.5031 0.25L33.4969 0.753115Z" fill="black"/>
<path fill-rule="evenodd" clip-rule="evenodd" d="M21.0031 0.753115L16.5031 9.75312L15.4969 9.25L19.9969 0.25L21.0031 0.753115Z" fill="black"/>
<path fill-rule="evenodd" clip-rule="evenodd" d="M28.9969 0.753115L33.4969 9.75312L34.5031 9.25L30.0031 0.25L28.9969 0.753115Z" fill="black"/>
<path fill-rule="evenodd" clip-rule="evenodd" d="M25.5031 0.753115L21.0031 9.75312L19.9969 9.25L24.4969 0.25L25.5031 0.753115Z" fill="black"/>
<path fill-rule="evenodd" clip-rule="evenodd" d="M24.4969 0.753115L28.9969 9.75312L30.0031 9.25L25.5031 0.25L24.4969 0.753115Z" fill="black"/>
<path fill-rule="evenodd" clip-rule="evenodd" d="M30.0031 0.753115L25.5031 9.75312L24.4969 9.25L28.9969 0.25L30.0031 0.753115Z" fill="black"/>
<path fill-rule="evenodd" clip-rule="evenodd" d="M19.9969 0.753115L24.4969 9.75312L25.5031 9.25L21.0031 0.25L19.9969 0.753115Z" fill="black"/>
<path fill-rule="evenodd" clip-rule="evenodd" d="M34.5031 0.753115L30.0031 9.75312L28.9969 9.25L33.4969 0.25L34.5031 0.753115Z" fill="black"/>
<path fill-rule="evenodd" clip-rule="evenodd" d="M15.4969 0.753115L19.9969 9.75312L21.0031 9.25L16.5031 0.25L15.4969 0.753115Z" fill="black"/>
<path fill-rule="evenodd" clip-rule="evenodd" d="M39.0031 0.753115L34.5031 9.75312L33.4969 9.25L37.9969 0.25L39.0031 0.753115Z" fill="black"/>
<path fill-rule="evenodd" clip-rule="evenodd" d="M10.9969 0.753115L15.4969 9.75312L16.5031 9.25L12.0031 0.25L10.9969 0.753115Z" fill="black"/>
<path fill-rule="evenodd" clip-rule="evenodd" d="M43.5031 0.753115L39.0031 9.75312L37.9969 9.25L42.4969 0.25L43.5031 0.753115Z" fill="black"/>
<path fill-rule="evenodd" clip-rule="evenodd" d="M6.49689 0.753115L10.9969 9.75312L12.0031 9.25L7.50312 0.25L6.49689 0.753115Z" fill="black"/>
<path fill-rule="evenodd" clip-rule="evenodd" d="M48.0031 0.753115L43.5031 9.75312L42.4969 9.25L46.9969 0.25L48.0031 0.753115Z" fill="black"/>
<path fill-rule="evenodd" clip-rule="evenodd" d="M1.99689 0.753115L6.49689 9.75312L7.50312 9.25L3.00312 0.25L1.99689 0.753115Z" fill="black"/>
</svg>
