<svg width="98"
     height="99"
     viewBox="0 0 98 99"
     fill="none"
     xmlns="http://www.w3.org/2000/svg">
    <path d="M47.5796 27V19.08H52.6451V20.1635H48.7401V22.3855H51.9851V23.469H48.7401V25.9165H52.6451V27H47.5796Z"
          fill="#1A1818" />
    <path d="M54.0066 27.2621L56.0564 19.612L57.1774 19.9123L55.408 26.5159L58.8718 27.444L58.5914 28.4906L54.0066 27.2621Z"
          fill="#1A1818" />
    <path d="M59.9242 29.2433L63.5198 22.1866L64.5538 22.7134L60.9582 29.7702L59.9242 29.2433Z"
          fill="#1A1818" />
    <path d="M64.0317 31.7672L68.334 26.4542L66.4747 24.9486L67.1566 24.1065L71.76 27.8343L71.0781 28.6764L69.2316 27.1811L64.9293 32.494L64.0317 31.7672Z"
          fill="#1A1818" />
    <path d="M67.1848 34.5227L73.5923 29.8675L76.5697 33.9655L75.6931 34.6024L73.3978 31.4432L71.6002 32.7493L73.5075 35.3745L72.631 36.0114L70.7236 33.3861L68.7435 34.8247L71.0388 37.9839L70.1623 38.6208L67.1848 34.5227Z"
          fill="#1A1818" />
    <path d="M69.4834 60.8045L75.9711 65.3473L73.0656 69.4967L72.1781 68.8752L74.4179 65.6764L72.5978 64.4019L70.7365 67.0601L69.8489 66.4386L71.7102 63.7805L69.7053 62.3766L67.4655 65.5754L66.578 64.954L69.4834 60.8045Z"
          fill="#1A1818" />
    <path d="M65.5821 65.9188L70.673 71.9859L69.784 72.7319L65.3896 67.4948L62.6426 69.7998L61.9461 68.9698L65.5821 65.9188Z"
          fill="#1A1818" />
    <path d="M60.5653 69.6304L64.2835 76.6233L63.2588 77.1682L59.5406 70.1752L60.5653 69.6304Z"
          fill="#1A1818" />
    <path d="M56.1418 71.5471L58.0262 78.1187L60.326 77.4593L60.6247 78.5008L54.9307 80.1335L54.632 79.092L56.916 78.4371L55.0316 71.8654L56.1418 71.5471Z"
          fill="#1A1818" />
    <path d="M52.076 72.5494L52.2142 80.4682L47.1495 80.5566L47.1306 79.4733L51.035 79.4051L50.9962 77.1835L47.7517 77.2401L47.7328 76.1568L50.9773 76.1001L50.9346 73.653L47.0302 73.7212L47.0113 72.6378L52.076 72.5494Z"
          fill="#1A1818" />
    <path d="M30.1071 61.4013L22.9291 64.7484L20.7883 60.1575L21.7703 59.6996L23.4206 63.2388L25.4345 62.2997L24.0631 59.3587L25.045 58.9008L26.4164 61.8418L28.6346 60.8074L26.9843 57.2683L27.9663 56.8104L30.1071 61.4013Z"
          fill="#1A1818" />
    <path d="M27.6285 55.4658L19.8288 56.8411L19.6273 55.6982L26.36 54.5111L25.7373 50.9796L26.8043 50.7914L27.6285 55.4658Z"
          fill="#1A1818" />
    <path d="M26.9228 49.2655L19.0076 48.9891L19.0481 47.8293L26.9633 48.1057L26.9228 49.2655Z"
          fill="#1A1818" />
    <path d="M27.4746 44.4761L20.8412 42.8222L20.2624 45.1436L19.2111 44.8815L20.6441 39.134L21.6954 39.3961L21.1206 41.7015L27.754 43.3554L27.4746 44.4761Z"
          fill="#1A1818" />
    <path d="M28.6394 40.4538L21.7124 36.6141L24.1682 32.1837L25.1159 32.709L23.2227 36.1244L25.1661 37.2016L26.7393 34.3635L27.6869 34.8888L26.1137 37.7269L28.2544 38.9135L30.1476 35.4981L31.0952 36.0234L28.6394 40.4538Z"
          fill="#1A1818" />
</svg>