<svg width="14"
     height="13"
     viewBox="0 0 14 13"
     fill="none"
     xmlns="http://www.w3.org/2000/svg">
    <path d="M8.05722 3.17498C7.72366 3.07444 7.36848 3.02021 7 3.02021C5.067 3.02021 3.5 4.5126 3.5 6.35355C3.5 6.76172 3.57703 7.15276 3.71801 7.5142L2.21693 9.01528C0.852585 7.71376 0 6.35355 0 6.35355C0 6.35355 3.13401 1.35355 7 1.35355C7.81016 1.35355 8.58818 1.57313 9.31195 1.92026L8.05722 3.17498Z"
          fill="#817A79" />
    <path d="M4.68802 10.7868C5.4118 11.134 6.18983 11.3535 7 11.3535C10.866 11.3535 14 6.35355 14 6.35355C14 6.35355 13.1474 4.99332 11.7831 3.6918L10.282 5.19287C10.423 5.55431 10.5 5.94536 10.5 6.35355C10.5 8.1945 8.933 9.68688 7 9.68688C6.63151 9.68688 6.27632 9.63264 5.94275 9.5321L4.68802 10.7868Z"
          fill="#817A79" />
    <path d="M7.00001 8.35355C8.10458 8.35355 9.00001 7.45812 9.00001 6.35355C9.00001 5.98264 8.89904 5.63531 8.72309 5.33755L13.3535 0.707107L12.6464 0L8.01598 4.63045C7.71822 4.45451 7.37091 4.35355 7.00001 4.35355C5.89544 4.35355 5.00001 5.24898 5.00001 6.35355C5.00001 6.72445 5.10097 7.07176 5.27691 7.36951L0.646423 12L1.35353 12.7071L5.98401 8.07663C6.28177 8.25258 6.6291 8.35355 7.00001 8.35355Z"
          fill="#817A79" />
</svg>