<svg width="32"
     height="32"
     viewBox="0 0 32 32"
     fill="none"
     xmlns="http://www.w3.org/2000/svg">
    <path d="M16 18C17.1046 18 18 17.1046 18 16C18 15.795 17.9692 15.5972 17.9119 15.4111C17.7551 15.7583 17.4058 16 17 16C16.4477 16 16 15.5523 16 15C16 14.5942 16.2417 14.2449 16.589 14.0881C16.4028 14.0308 16.205 14 16 14C14.8954 14 14 14.8954 14 16C14 17.1046 14.8954 18 16 18Z"
          fill="#817A79" />
    <path fill-rule="evenodd"
          clip-rule="evenodd"
          d="M23 16C23 16 19.866 21 16 21C12.134 21 9 16 9 16C9 16 12.134 11 16 11C19.866 11 23 16 23 16ZM19.5 16C19.5 17.841 17.933 19.3333 16 19.3333C14.067 19.3333 12.5 17.8409 12.5 16C12.5 14.1591 14.067 12.6667 16 12.6667C17.933 12.6667 19.5 14.1591 19.5 16Z"
          fill="#817A79" />
</svg>