<svg width="64" height="64" viewBox="0 0 64 64" fill="none" xmlns="http://www.w3.org/2000/svg">
<rect width="64" height="64" rx="32" fill="#F6F3F2"/>
<path d="M28.8373 19.4684C31.669 18.4893 34.8459 18.5104 37.6635 19.5459C39.2273 20.1235 40.6572 21.0251 41.8829 22.1592C41.4743 22.603 41.0305 23.0186 40.6079 23.4483C39.8049 24.2513 39.0019 25.0543 38.1988 25.8574C37.4029 25.0966 36.4308 24.519 35.3742 24.195C34.1344 23.8216 32.796 23.7653 31.5281 24.04C30.0489 24.357 28.6753 25.1318 27.6116 26.2166C26.7522 27.083 26.1042 28.1537 25.7097 29.309C24.2798 28.196 22.8498 27.0901 21.4128 25.9771C22.9273 22.9482 25.6463 20.5602 28.8373 19.4684Z" fill="#EA4436"/>
<path d="M20.2788 29.259C20.5112 28.1179 20.8916 27.0049 21.4199 25.9624C22.8498 27.0754 24.2798 28.1813 25.7168 29.2942C25.1532 30.9355 25.1532 32.7599 25.7168 34.3941C24.2868 35.5071 22.8569 36.6201 21.4269 37.726C20.1027 35.1408 19.7011 32.1048 20.2788 29.259Z" fill="#FABD05"/>
<path d="M33.1201 29.3936C37.2268 29.3936 41.3405 29.3936 45.4472 29.3936C45.8557 31.697 45.7642 34.099 45.1161 36.3531C44.5174 38.417 43.3833 40.333 41.7984 41.7911C40.4107 40.7134 39.023 39.6356 37.6353 38.5579C39.0089 37.6351 39.981 36.1418 40.2557 34.5075C37.8748 34.5075 35.4939 34.5075 33.113 34.5075C33.1201 32.8029 33.1201 31.0982 33.1201 29.3936Z" fill="#4384F4"/>
<path d="M21.4128 37.7337C22.8428 36.6278 24.2727 35.5148 25.7027 34.4019C26.2521 36.0149 27.3087 37.4449 28.7034 38.424C29.5769 39.0368 30.5772 39.4736 31.6197 39.6849C32.6481 39.8962 33.7118 39.868 34.7472 39.6919C35.7757 39.5088 36.7689 39.1355 37.6353 38.5508C39.023 39.6285 40.4107 40.7063 41.7983 41.784C40.298 43.1717 38.4172 44.1156 36.4308 44.5735C34.233 45.0736 31.9085 45.0877 29.7248 44.503C27.992 44.0452 26.3648 43.221 24.963 42.101C23.4908 40.9317 22.2652 39.4243 21.4128 37.7337Z" fill="#34A852"/>
</svg>
