<svg width="100"
     height="100"
     viewBox="0 0 100 100"
     fill="none"
     xmlns="http://www.w3.org/2000/svg">
    <path d="M70.4401 74.8147L69.5986 70.5013L65.3949 69.6775L66.3 68.7724L69.4289 69.4194L68.7749 66.2976L69.6835 65.3889L70.5073 69.5927L74.8171 70.4377L73.912 71.3428L70.684 70.6745L71.3487 73.906L70.4401 74.8147Z"
          fill="#1A1818" />
    <path d="M64.0944 78.8129L60.4944 72.5775L64.4824 70.275L64.9749 71.128L61.9006 72.903L62.9106 74.6524L65.4653 73.1774L65.9578 74.0304L63.4031 75.5054L64.5156 77.4323L67.5899 75.6573L68.0824 76.5104L64.0944 78.8129Z"
          fill="#1A1818" />
    <path d="M57.7819 81.0438L56.1733 75.0406L54.0724 75.6035L53.8175 74.6521L59.019 73.2584L59.274 74.2098L57.1876 74.7689L58.7961 80.7721L57.7819 81.0438Z"
          fill="#1A1818" />
    <path d="M47.7996 82V74.8H52.4046V75.785H48.8546V77.805H51.8046V78.79H48.8546V81.015H52.4046V82H47.7996Z"
          fill="#1A1818" />
    <path d="M42.3047 74.6556L43.9736 75.0717C44.2 75.1281 44.3916 75.2068 44.5485 75.3078C44.7054 75.4087 44.83 75.5291 44.9223 75.6689C45.0153 75.8055 45.0728 75.9607 45.0948 76.1345C45.1167 76.3083 45.1023 76.4971 45.0515 76.7008C45.0007 76.9046 44.9244 77.0797 44.8226 77.2261C44.7216 77.3692 44.5976 77.4809 44.4505 77.561C44.3042 77.6379 44.1381 77.6841 43.9522 77.6996C43.7671 77.7118 43.5613 77.6897 43.3349 77.6333L41.666 77.2171L42.3047 74.6556ZM43.843 81.4444L45.0268 81.7395L43.7778 78.1302L42.6876 78.1005L43.843 81.4444ZM40.8011 80.686L41.4265 78.1777L43.1051 78.5963C43.4997 78.6946 43.8603 78.7296 44.1869 78.7011C44.5167 78.6734 44.8057 78.5891 45.0538 78.4483C45.3059 78.305 45.518 78.1089 45.6901 77.8597C45.8629 77.6074 45.9929 77.3066 46.08 76.9573C46.1671 76.608 46.1931 76.2829 46.1582 75.9822C46.1232 75.6815 46.0281 75.4087 45.8727 75.1638C45.7206 74.9198 45.505 74.7097 45.2259 74.5337C44.951 74.3552 44.6162 74.2167 44.2216 74.1183L41.5193 73.4446L39.7775 80.4307L40.8011 80.686Z"
          fill="#1A1818" />
    <path d="M34.4166 78.121C34.886 78.3812 35.3494 78.5352 35.8069 78.583C36.2661 78.6279 36.7025 78.5763 37.1161 78.4283C37.5297 78.2803 37.9136 78.0414 38.2678 77.7118C38.625 77.3838 38.9385 76.9764 39.2083 76.4895C39.4782 76.0027 39.6576 75.5209 39.7465 75.0442C39.8383 74.5692 39.8374 74.1171 39.7438 73.6878C39.6501 73.2586 39.4618 72.8627 39.1788 72.5C38.8974 72.1344 38.522 71.8216 38.0527 71.5614C37.5804 71.2996 37.1147 71.1462 36.6555 71.1013C36.2009 71.0552 35.7668 71.1061 35.3532 71.2541C34.9395 71.4021 34.5542 71.6401 34.197 71.9681C33.8399 72.2961 33.5264 72.7035 33.2565 73.1904C32.9867 73.6773 32.8073 74.1591 32.7184 74.6357C32.6295 75.1124 32.6318 75.5653 32.7255 75.9945C32.8191 76.4238 33.0052 76.8204 33.2837 77.1843C33.5667 77.547 33.9443 77.8592 34.4166 78.121ZM34.899 77.2508C34.5637 77.0649 34.3008 76.8449 34.1101 76.5906C33.9241 76.335 33.8061 76.0562 33.7563 75.7541C33.7081 75.4492 33.7241 75.1246 33.8044 74.7804C33.8876 74.4378 34.0286 74.0872 34.2274 73.7286C34.4307 73.3687 34.6548 73.0641 34.8996 72.8149C35.149 72.5644 35.4149 72.3803 35.6975 72.2625C35.9816 72.1417 36.2806 72.094 36.5943 72.1193C36.9097 72.1417 37.235 72.2458 37.5703 72.4316C37.9055 72.6175 38.1662 72.8382 38.3523 73.0938C38.54 73.3465 38.658 73.6253 38.7062 73.9302C38.756 74.2322 38.7393 74.5545 38.6561 74.8972C38.5774 75.2385 38.4379 75.5899 38.2375 75.9514C38.0387 76.31 37.8147 76.6146 37.5653 76.8651C37.3188 77.1172 37.0535 77.3036 36.7694 77.4243C36.4868 77.5421 36.1879 77.5898 35.8725 77.5675C35.5588 77.5422 35.2342 77.4366 34.899 77.2508Z"
          fill="#1A1818" />
    <path d="M28.9227 74.1777L29.6652 74.9202L32.4123 72.1731L31.6698 71.4306L28.9227 74.1777ZM32.5785 67.446C32.2226 67.0901 31.836 66.8285 31.4188 66.6612C31.0016 66.4938 30.5715 66.4219 30.1283 66.4455C29.6899 66.4691 29.2515 66.5869 28.8131 66.799C28.3747 67.0112 27.9552 67.3176 27.5545 67.7183C27.1396 68.1331 26.8214 68.5597 26.5999 68.9981C26.383 69.4366 26.2616 69.8714 26.2357 70.3028C26.2121 70.7317 26.2829 71.1489 26.4478 71.5543C26.6152 71.9621 26.8745 72.3416 27.2257 72.6928C27.4142 72.8813 27.6099 73.0393 27.8126 73.1665C28.0176 73.2962 28.225 73.3928 28.4348 73.4565C28.6446 73.5201 28.852 73.5507 29.0571 73.5484C29.2645 73.5484 29.4648 73.513 29.6581 73.4423L32.384 72.1448L29.8526 69.6133L29.1561 70.3098L30.9132 72.067C30.6728 72.2933 30.4265 72.4594 30.1743 72.5655C29.9245 72.6739 29.6746 72.7281 29.4248 72.7281C29.1773 72.7258 28.9321 72.6692 28.6894 72.5584C28.449 72.4453 28.218 72.2779 27.9964 72.0564C27.7371 71.7971 27.5498 71.5249 27.4343 71.2397C27.3211 70.9521 27.2787 70.6575 27.307 70.3558C27.34 70.0541 27.4413 69.7477 27.611 69.4366C27.7831 69.1278 28.0212 68.8214 28.3252 68.5173C28.6363 68.2062 28.9498 67.9658 29.2657 67.7961C29.5839 67.624 29.8938 67.5238 30.1955 67.4955C30.5019 67.4673 30.7977 67.5085 31.0829 67.6193C31.3728 67.7301 31.6451 67.9127 31.8996 68.1673C32.0717 68.3394 32.2108 68.5232 32.3168 68.7188C32.4229 68.9145 32.4924 69.116 32.5254 69.3234C32.5608 69.5285 32.5584 69.7359 32.5184 69.9457C32.483 70.1554 32.4076 70.3629 32.2921 70.5679L33.1795 71.1866C33.361 70.8449 33.4824 70.509 33.5437 70.179C33.6097 69.849 33.6156 69.5273 33.5613 69.2138C33.5118 68.9003 33.4034 68.5963 33.2361 68.3016C33.0734 68.007 32.8542 67.7218 32.5785 67.446Z"
          fill="#1A1818" />
    <path d="M47.1903 40.7707C47.9443 41.5626 48.9558 41.9984 50 42C51.0442 41.9984 52.0557 41.5626 52.8097 40.7707C53.5654 39.9771 53.9986 38.8912 54 37.7489C53.9999 36.2258 53.0574 34.3499 51.9402 32.7082C51.1881 31.6028 50.4236 30.6987 50 30.2214C49.5764 30.6987 48.8119 31.6028 48.0598 32.7082C46.9426 34.3498 46.0002 36.2256 46 37.7486C46.0014 38.8911 46.4346 39.9771 47.1903 40.7707Z"
          stroke="#1A1818"
          stroke-width="2" />
    <path d="M68 40L56.6695 42.2254L64.262 50.9252L68 40ZM34.5475 47.8685L44.3432 52.8388L45.2482 51.0553L35.4525 46.085L34.5475 47.8685ZM56.5534 51.317L61.8767 46.6712L60.5616 45.1644L55.2383 49.8102L56.5534 51.317ZM44.3432 52.8388C48.3429 54.8683 53.1742 54.2661 56.5534 51.317L55.2383 49.8102C52.4735 52.2231 48.5207 52.7158 45.2482 51.0553L44.3432 52.8388Z"
          fill="#1A1818" />
    <rect x="34"
          y="55"
          width="32"
          height="2"
          fill="#1A1818" />
    <path d="M74.5373 67.2604C77.6844 62.7864 79.5485 57.5371 79.9278 52.0803C80.3071 46.6234 79.1872 41.1667 76.6893 36.3003C74.1914 31.4339 70.4104 27.3431 65.7555 24.4703C61.1006 21.5976 55.7488 20.0522 50.279 20.0013C44.8092 19.9504 39.4296 21.396 34.722 24.1817C30.0144 26.9674 26.1581 30.9872 23.5701 35.8063C20.9821 40.6254 19.7609 46.0603 20.0387 51.5233C20.3165 56.9863 22.0826 62.2694 25.146 66.8011L26.1934 66.0931C23.2591 61.7523 21.5674 56.6919 21.3013 51.4591C21.0353 46.2264 22.205 41.0205 24.6839 36.4045C27.1629 31.7885 30.8567 27.9381 35.3659 25.2698C39.875 22.6015 45.0279 21.2168 50.2672 21.2655C55.5065 21.3142 60.6328 22.7945 65.0915 25.5462C69.5503 28.2979 73.1719 32.2163 75.5645 36.8776C77.9572 41.5389 79.0299 46.7657 78.6666 51.9926C78.3032 57.2195 76.5177 62.2476 73.5032 66.533L74.5373 67.2604Z"
          fill="#1A1818" />
</svg>