<svg width="24" height="24" viewBox="0 0 24 24" fill="none" xmlns="http://www.w3.org/2000/svg">
<path fill-rule="evenodd" clip-rule="evenodd" d="M0.440186 13.7556C0.440186 10.7838 2.75811 8.29778 5.70701 8.29778C5.84927 8.29778 5.98109 8.30843 6.07389 8.31593C6.07928 8.31636 6.08455 8.31679 6.08967 8.3172L7.00956 8.39113V19.9305L6.07792 20.0054C5.98409 20.0129 5.84867 20.0239 5.70701 20.0239C2.75811 20.0239 0.440186 17.5379 0.440186 14.5661V13.7556ZM5.00956 10.3777C3.56521 10.7133 2.44019 12.0685 2.44019 13.7556V14.5661C2.44019 16.2531 3.56521 17.6084 5.00956 17.9439V10.3777Z" fill="black"/>
<path fill-rule="evenodd" clip-rule="evenodd" d="M18.9902 10.3777V17.9439C20.4346 17.6084 21.5596 16.2531 21.5596 14.5661V13.7556C21.5596 12.0685 20.4346 10.7133 18.9902 10.3777ZM17.9259 8.31593C18.0187 8.30843 18.1505 8.29778 18.2928 8.29778C21.2417 8.29778 23.5596 10.7838 23.5596 13.7556V14.5661C23.5596 17.5379 21.2417 20.0239 18.2928 20.0239C18.1511 20.0239 18.0157 20.0129 17.9219 20.0054L16.9902 19.9305V8.39113L17.9101 8.3172C17.9152 8.31679 17.9205 8.31636 17.9259 8.31593Z" fill="black"/>
<path d="M14.9999 21.5995C14.9999 22.4848 14.2964 23.1995 13.4249 23.1995H9.57491C8.70341 23.1995 7.99991 22.4848 7.99991 21.5995C7.99991 20.7142 8.70341 19.9995 9.57491 19.9995H13.4249C14.2964 19.9995 14.9999 20.7142 14.9999 21.5995Z" fill="black"/>
<path fill-rule="evenodd" clip-rule="evenodd" d="M11.9986 2.46289C8.45137 2.46289 5.49934 5.48048 5.49934 9.29779H3.49934C3.49934 4.45888 7.26562 0.462891 11.9986 0.462891C16.7344 0.462891 20.4979 4.45911 20.4979 9.29779H18.4979C18.4979 5.48025 15.5482 2.46289 11.9986 2.46289ZM11.9986 20.9957C14.2369 20.9957 16.2263 19.805 17.4013 17.9619L19.0877 19.0371C17.5751 21.4097 14.9736 22.9957 11.9986 22.9957V20.9957Z" fill="black"/>
</svg>
