<svg width="70"
     height="70"
     viewBox="0 0 70 70"
     fill="none"
     xmlns="http://www.w3.org/2000/svg">
    <path d="M34.3861 2.8755V1.66H35.6126V2.8755H34.3861ZM34.4191 12V4.08H35.5796V12H34.4191Z"
          fill="#1A1818" />
    <path d="M37.5435 11.9298L39.4595 4.2451L40.5855 4.52585L42.9522 11.2208L44.3852 5.47321L45.5059 5.75263L43.5899 13.4374L42.4692 13.158L40.1025 6.46304L38.6695 12.2106L37.5435 11.9298Z"
          fill="#1A1818" />
    <path d="M47.3671 15.5989C47.8839 15.9474 48.3911 16.1856 48.8887 16.3134C49.3864 16.4412 49.8652 16.459 50.3254 16.3669C50.7876 16.2718 51.226 16.0677 51.6406 15.7547C52.0572 15.4387 52.4439 15.0162 52.8007 14.4872C53.1575 13.9583 53.4033 13.443 53.5382 12.9414C53.6752 12.4367 53.7002 11.9538 53.6132 11.4926C53.5282 11.0284 53.3333 10.5896 53.0284 10.176C52.7236 9.76251 52.3127 9.38147 51.796 9.03291L49.776 7.67043L45.3472 14.2364L47.3671 15.5989ZM50.1413 9.22379L51.0898 9.86351C51.8649 10.3864 52.3107 10.9745 52.4272 11.6281C52.5467 12.2836 52.3368 13.0111 51.7976 13.8106C51.529 14.2088 51.2445 14.5256 50.9443 14.7609C50.6491 14.9953 50.3376 15.1456 50.0098 15.212C49.685 15.2804 49.3429 15.2663 48.9834 15.1698C48.629 15.0723 48.2588 14.8934 47.8727 14.633L46.9243 13.9932L50.1413 9.22379Z"
          fill="#1A1818" />
    <path d="M58.0757 12.6421L58.9646 11.8131L59.8011 12.7101L58.9121 13.5391L58.0757 12.6421ZM51.4249 18.8891L57.2173 13.4877L58.0087 14.3364L52.2164 19.7378L51.4249 18.8891Z"
          fill="#1A1818" />
    <path d="M60.0133 18.6508L60.9593 20.2893C61.0876 20.5116 61.1718 20.7234 61.2118 20.9247C61.2518 21.126 61.2518 21.3166 61.2116 21.4964C61.1747 21.6744 61.0958 21.8384 60.9751 21.9886C60.8543 22.1388 60.6939 22.2716 60.4938 22.3871C60.2938 22.5026 60.097 22.576 59.9034 22.6074C59.7129 22.6369 59.5298 22.624 59.354 22.5689C59.1814 22.5119 59.0179 22.4157 58.8636 22.2804C58.7124 22.1433 58.5727 21.9636 58.4444 21.7413L57.4984 20.1028L60.0133 18.6508ZM55.817 25.0555L56.488 26.2177L58.3896 22.4715L57.58 21.5862L55.817 25.0555ZM54.0927 22.0691L56.5553 20.6473L57.5068 22.2954C57.7304 22.6828 57.9783 22.9948 58.2504 23.2314C58.5244 23.4713 58.8119 23.6355 59.1129 23.7242C59.4189 23.8143 59.7362 23.8322 60.0648 23.778C60.3965 23.7219 60.7339 23.5949 61.0768 23.3969C61.4198 23.1989 61.6969 22.9712 61.9081 22.7137C62.1194 22.4563 62.2625 22.1725 62.3375 21.8625C62.4144 21.5556 62.4159 21.2245 62.342 20.8692C62.2731 20.5152 62.1268 20.1445 61.9031 19.7571L60.3714 17.104L53.5125 21.064L54.0927 22.0691Z"
          fill="#1A1818" />
    <path d="M65.711 25.5553L66.8794 25.2203L67.2174 26.3992L66.049 26.7343L65.711 25.5553ZM56.949 28.1021L64.5622 25.919L64.8821 27.0346L57.2689 29.2176L56.949 28.1021Z"
          fill="#1A1818" />
    <path d="M58 31.1885H65.92V32.338L60.3265 35.0055L65.92 37.662V38.817L58.0055 38.817V37.662L63.5715 37.662L59.012 35.506V34.505L63.5715 32.349H58V31.1885Z"
          fill="#1A1818" />
    <path d="M35.6139 67.1245V68.34H34.3874V67.1245H35.6139ZM35.5809 58V65.92H34.4204V58H35.5809Z"
          fill="#1A1818" />
    <path d="M32.4565 58.0702L30.5405 65.7549L29.4145 65.4742L27.0478 58.7792L25.6148 64.5268L24.4941 64.2474L26.4101 56.5626L27.5308 56.842L29.8975 63.537L31.3305 57.7894L32.4565 58.0702Z"
          fill="#1A1818" />
    <path d="M22.6329 54.4011C22.1161 54.0526 21.6089 53.8144 21.1113 53.6866C20.6136 53.5588 20.1348 53.541 19.6746 53.6331C19.2124 53.7282 18.774 53.9323 18.3594 54.2453C17.9428 54.5613 17.5561 54.9838 17.1993 55.5128C16.8425 56.0417 16.5967 56.557 16.4618 57.0586C16.3248 57.5633 16.2998 58.0462 16.3868 58.5074C16.4718 58.9716 16.6667 59.4104 16.9716 59.824C17.2764 60.2375 17.6873 60.6185 18.204 60.9671L20.224 62.3296L24.6528 55.7636L22.6329 54.4011ZM19.8587 60.7762L18.9102 60.1365C18.1351 59.6136 17.6893 59.0255 17.5728 58.3719C17.4533 57.7164 17.6632 56.9889 18.2024 56.1894C18.471 55.7912 18.7555 55.4744 19.0557 55.2391C19.3509 55.0047 19.6624 54.8544 19.9902 54.788C20.315 54.7196 20.6571 54.7337 21.0166 54.8302C21.371 54.9277 21.7412 55.1066 22.1273 55.367L23.0757 56.0068L19.8587 60.7762Z"
          fill="#1A1818" />
    <path d="M11.9243 57.3579L11.0354 58.1869L10.1989 57.2899L11.0879 56.4609L11.9243 57.3579ZM18.5751 51.1109L12.7827 56.5123L11.9913 55.6636L17.7836 50.2622L18.5751 51.1109Z"
          fill="#1A1818" />
    <path d="M9.9867 51.3492L9.0407 49.7107C8.91236 49.4884 8.82819 49.2766 8.78818 49.0753C8.74817 48.874 8.74823 48.6834 8.78837 48.5036C8.82532 48.3256 8.90418 48.1616 9.02494 48.0114C9.14571 47.8612 9.30611 47.7284 9.50617 47.6129C9.70622 47.4974 9.90305 47.424 10.0966 47.3926C10.2871 47.3631 10.4702 47.376 10.646 47.4311C10.8186 47.4881 10.9821 47.5843 11.1364 47.7196C11.2876 47.8567 11.4273 48.0364 11.5556 48.2587L12.5016 49.8972L9.9867 51.3492ZM14.183 44.9445L13.512 43.7823L11.6104 47.5285L12.42 48.4138L14.183 44.9445ZM15.9073 47.9309L13.4447 49.3527L12.4932 47.7046C12.2696 47.3172 12.0217 47.0052 11.7496 46.7686C11.4756 46.5287 11.1881 46.3645 10.8871 46.2758C10.5811 46.1857 10.2638 46.1678 9.93521 46.222C9.60346 46.2781 9.26611 46.4051 8.92317 46.6031C8.58022 46.8011 8.30312 47.0288 8.09188 47.2863C7.88063 47.5437 7.7375 47.8275 7.66247 48.1375C7.58561 48.4444 7.58413 48.7755 7.65803 49.1308C7.72691 49.4848 7.87319 49.8555 8.09686 50.2429L9.62861 52.896L16.4875 48.936L15.9073 47.9309Z"
          fill="#1A1818" />
    <path d="M4.28903 44.4447L3.12062 44.7797L2.78255 43.6008L3.95097 43.2657L4.28903 44.4447ZM13.051 41.8979L5.43778 44.081L5.1179 42.9654L12.7311 40.7824L13.051 41.8979Z"
          fill="#1A1818" />
    <path d="M12 38.8115H4.08V37.662L9.6735 34.9945L4.08 32.338V31.183H11.9945V32.338H6.4285L10.988 34.494V35.495L6.4285 37.651H12V38.8115Z"
          fill="#1A1818" />
</svg>