<svg width="18"
     height="18"
     viewBox="0 0 18 18"
     fill="none"
     xmlns="http://www.w3.org/2000/svg">
    <path d="M17.0837 5.65347C17.0456 4.78988 16.906 4.19617 16.7059 3.68171C16.4995 3.13562 16.182 2.64671 15.766 2.24028C15.3596 1.82752 14.8675 1.50679 14.3277 1.30363C13.8103 1.10358 13.2197 0.963927 12.3561 0.925851C11.486 0.88455 11.2098 0.875 9.00316 0.875C6.79649 0.875 6.52029 0.88455 5.65347 0.922626C4.78988 0.960702 4.19617 1.10048 3.68183 1.30041C3.13562 1.50679 2.64671 1.82429 2.24028 2.24028C1.82752 2.64671 1.50691 3.13885 1.30363 3.67861C1.10358 4.19617 0.963927 4.78665 0.925851 5.65025C0.88455 6.52029 0.875 6.79649 0.875 9.00316C0.875 11.2098 0.88455 11.486 0.922626 12.3529C0.960702 13.2164 1.10048 13.8102 1.30053 14.3246C1.50691 14.8707 1.82752 15.3596 2.24028 15.766C2.64671 16.1788 3.13885 16.4995 3.67861 16.7027C4.19617 16.9027 4.78665 17.0424 5.65037 17.0805C6.51706 17.1187 6.79339 17.1281 9.00006 17.1281C11.2067 17.1281 11.4829 17.1187 12.3498 17.0805C13.2133 17.0424 13.8071 16.9027 14.3214 16.7027C15.4137 16.2804 16.2773 15.4168 16.6996 14.3246C16.8995 13.8071 17.0393 13.2164 17.0774 12.3529C17.1154 11.486 17.125 11.2098 17.125 9.00316C17.125 6.79649 17.1218 6.52029 17.0837 5.65347ZM15.6201 12.2894C15.5851 13.0831 15.4518 13.5118 15.3406 13.7975C15.0675 14.5056 14.5056 15.0675 13.7975 15.3406C13.5118 15.4518 13.08 15.5851 12.2894 15.6199C11.4321 15.6581 11.175 15.6676 9.00639 15.6676C6.83779 15.6676 6.57746 15.6581 5.7233 15.6199C4.92953 15.5851 4.5009 15.4518 4.21514 15.3406C3.86278 15.2104 3.54205 15.004 3.28172 14.7342C3.01184 14.4706 2.80546 14.1531 2.67524 13.8007C2.56411 13.515 2.43078 13.0831 2.39593 12.2926C2.35773 11.4353 2.3483 11.1781 2.3483 9.00949C2.3483 6.84089 2.35773 6.58056 2.39593 5.72652C2.43078 4.93276 2.56411 4.50412 2.67524 4.21837C2.80546 3.86589 3.01184 3.54528 3.28495 3.28482C3.54838 3.01494 3.86589 2.80856 4.21837 2.67846C4.50412 2.56733 4.93598 2.43401 5.72652 2.39903C6.58379 2.36095 6.84102 2.3514 9.00949 2.3514C11.1813 2.3514 11.4384 2.36095 12.2926 2.39903C13.0863 2.43401 13.515 2.56733 13.8007 2.67846C14.1531 2.80856 14.4738 3.01494 14.7342 3.28482C15.004 3.54838 15.2104 3.86589 15.3406 4.21837C15.4518 4.50412 15.5851 4.93586 15.6201 5.72652C15.6581 6.58379 15.6677 6.84089 15.6677 9.00949C15.6677 11.1781 15.6581 11.4321 15.6201 12.2894Z"
          fill="#1A1818" />
    <path d="M9.00316 4.82795C6.69814 4.82795 4.82795 6.69802 4.82795 9.00316C4.82795 11.3083 6.69814 13.1784 9.00316 13.1784C11.3083 13.1784 13.1784 11.3083 13.1784 9.00316C13.1784 6.69802 11.3083 4.82795 9.00316 4.82795ZM9.00316 11.7115C7.50778 11.7115 6.29481 10.4987 6.29481 9.00316C6.29481 7.50766 7.50778 6.29481 9.00316 6.29481C10.4987 6.29481 11.7115 7.50766 11.7115 9.00316C11.7115 10.4987 10.4987 11.7115 9.00316 11.7115Z"
          fill="#1A1818" />
    <path d="M14.3183 4.66288C14.3183 5.20115 13.8818 5.6376 13.3435 5.6376C12.8052 5.6376 12.3687 5.20115 12.3687 4.66288C12.3687 4.12448 12.8052 3.68816 13.3435 3.68816C13.8818 3.68816 14.3183 4.12448 14.3183 4.66288Z"
          fill="#1A1818" />
</svg>