<svg width="100"
     height="100"
     viewBox="0 0 100 100"
     fill="none"
     xmlns="http://www.w3.org/2000/svg">
    <path d="M71.9267 73.5128C72.2436 73.2173 72.4857 72.9026 72.653 72.5689C72.8228 72.2328 72.9127 71.8869 72.9228 71.5311C72.9353 71.1731 72.8642 70.8109 72.7095 70.4447C72.5549 70.0784 72.3116 69.7173 71.9797 69.3614L69.013 66.18L68.2414 66.8995L71.1842 70.0553C71.4138 70.3016 71.5881 70.5447 71.7071 70.7847C71.8261 71.0247 71.8898 71.2592 71.8983 71.4883C71.9046 71.7149 71.8531 71.9383 71.744 72.1586C71.6374 72.3765 71.4743 72.5878 71.2549 72.7924C71.0355 72.997 70.8121 73.1461 70.5848 73.2395C70.3599 73.3307 70.1347 73.3653 69.909 73.3433C69.6811 73.3188 69.4516 73.2389 69.2205 73.1035C68.9894 72.968 68.759 72.7772 68.5294 72.531L65.5866 69.3752L64.815 70.0947L67.7817 73.2761C68.1136 73.632 68.4568 73.8999 68.8114 74.0797C69.166 74.2596 69.5211 74.3569 69.8767 74.3716C70.2347 74.3841 70.5873 74.3174 70.9344 74.1715C71.2814 74.0257 71.6122 73.8061 71.9267 73.5128Z"
          fill="#1A1818" />
    <path d="M64.5605 78.5001L63.1638 75.8734L59.0259 73.2884L60.1031 72.7157L63.064 74.5674L63.1846 71.0772L64.2618 70.5045L64.0953 75.3781L65.492 78.0049L64.5605 78.5001Z"
          fill="#1A1818" />
    <path d="M57.2328 81.3259C57.6551 81.2284 58.0221 81.077 58.3339 80.8716C58.6489 80.6654 58.8997 80.4108 59.0863 80.1077C59.2762 79.8039 59.3957 79.4547 59.4449 79.0602C59.4941 78.6657 59.4639 78.2313 59.3544 77.7572L58.3759 73.5186L57.3479 73.756L58.3186 77.9604C58.3943 78.2884 58.4237 78.5861 58.4067 78.8534C58.3898 79.1208 58.3277 79.3557 58.2206 79.5584C58.1126 79.7578 57.9564 79.9256 57.7518 80.0617C57.5504 80.1972 57.3036 80.2986 57.0113 80.3661C56.719 80.4336 56.451 80.451 56.2074 80.4183C55.967 80.3848 55.7547 80.3021 55.5703 80.1702C55.3851 80.0351 55.2263 79.8511 55.0939 79.6183C54.9615 79.3854 54.8574 79.105 54.7816 78.7769L53.811 74.5725L52.783 74.8099L53.7615 79.0484C53.871 79.5226 54.0343 79.9262 54.2515 80.2592C54.4686 80.5922 54.7275 80.854 55.0281 81.0446C55.3319 81.2345 55.6706 81.353 56.0441 81.4002C56.4176 81.4474 56.8139 81.4226 57.2328 81.3259Z"
          fill="#1A1818" />
    <path d="M48.3655 81.9625L48.5824 75.7513L46.4087 75.6754L46.4431 74.691L51.8248 74.879L51.7905 75.8634L49.6318 75.788L49.4149 81.9992L48.3655 81.9625Z"
          fill="#1A1818" />
    <path d="M37.9892 79.79L38.2772 78.8481L43.8419 75.0804L39.8063 73.8466L40.0943 72.9046L45.4066 74.5288L45.1186 75.4707L39.5539 79.2384L43.5895 80.4722L43.3015 81.4142L37.9892 79.79Z"
          fill="#1A1818" />
    <path d="M37.8176 71.6126L36.639 70.9044L30.8478 75.8245L31.7993 76.3961L37.0603 71.8925L36.7474 71.7045L35.2451 78.4666L36.1923 79.0357L37.8176 71.6126ZM32.7477 75.0702L35.9706 77.0067L36.4753 76.1667L33.2524 74.2302L32.7477 75.0702Z"
          fill="#1A1818" />
    <path d="M29.511 69.6781L29.5003 74.6383L30.4803 75.5522L30.4959 70.5281L35.2188 70.1262L34.2681 69.2396L29.511 69.6781ZM26.3847 71.733L27.1563 72.4525L32.0667 67.1868L31.2951 66.4672L26.3847 71.733Z"
          fill="#1A1818" />
    <path d="M74.5373 67.2604C77.6844 62.7864 79.5485 57.5371 79.9278 52.0803C80.3071 46.6234 79.1872 41.1667 76.6893 36.3003C74.1914 31.4339 70.4104 27.3431 65.7555 24.4703C61.1006 21.5976 55.7488 20.0522 50.279 20.0013C44.8092 19.9504 39.4296 21.396 34.722 24.1817C30.0144 26.9674 26.1581 30.9872 23.5701 35.8063C20.9821 40.6254 19.7609 46.0603 20.0387 51.5233C20.3165 56.9863 22.0826 62.2694 25.146 66.8011L26.1934 66.0931C23.2591 61.7523 21.5674 56.6919 21.3013 51.4591C21.0353 46.2264 22.205 41.0205 24.6839 36.4045C27.1629 31.7885 30.8567 27.9381 35.3659 25.2698C39.875 22.6015 45.0279 21.2168 50.2672 21.2655C55.5065 21.3142 60.6328 22.7945 65.0915 25.5462C69.5503 28.2979 73.1719 32.2163 75.5645 36.8776C77.9572 41.5389 79.0299 46.7657 78.6666 51.9926C78.3032 57.2195 76.5177 62.2476 73.5032 66.533L74.5373 67.2604Z"
          fill="#1A1818" />
    <path d="M42.8862 52.3772L62.5671 40.055"
          stroke="#1A1818"
          stroke-width="2" />
    <path d="M40.6562 52.1308L40.8635 50.4649C41.2256 47.5556 42.8462 44.9517 45.2966 43.342L46.8641 42.3124L49.2474 44.3123L48.5407 41.2823L58.6003 35.1021L65.7669 36.2418L65.2728 41.1198C64.9871 43.94 63.3895 46.4607 60.9611 47.9229L60.0987 48.4422L57.2907 45.3753L58.9508 49.2052L50.7269 54.1117C47.75 55.8878 44.0658 55.9955 40.9902 54.3964L40.8479 54.3224L32.0266 59.511"
          stroke="#1A1818"
          stroke-width="2" />
</svg>