<svg width="200"
     height="58"
     viewBox="0 0 200 58"
     fill="none"
     xmlns="http://www.w3.org/2000/svg">
    <path d="M67.1451 22.583C67.1875 22.3299 67.2724 22.0744 67.3148 21.8623C67.4409 21.1427 67.6518 20.4642 68.0324 19.8712C68.5391 19.0648 69.1719 18.4718 70.1016 18.1753C70.3974 18.091 70.692 18.0476 71.0302 18.0476H81.546C82.4746 18.0476 83.3619 18.1753 84.2056 18.5562C85.0505 18.9383 85.6845 19.5735 86.1064 20.3798C86.5706 21.1849 86.7403 22.0322 86.7815 22.9651C86.824 23.8124 86.6555 24.6609 86.4858 25.5082C86.1488 27.0763 84.3329 35.6808 84.1632 36.3605C83.9098 37.1657 83.5304 37.9274 82.8964 38.5216C82.4746 38.9458 81.9267 39.2002 81.3763 39.3701C80.7432 39.5401 80.0902 39.6252 79.4344 39.6232H68.1585C67.2299 39.6232 66.3426 39.4545 65.4977 38.988C64.8385 38.6169 64.3084 38.0553 63.9776 37.3778C63.5133 36.5293 63.3448 35.5976 63.3024 34.6225C63.26 33.7318 63.8515 30.2136 64.2734 29.3229C64.991 27.797 66.1741 26.8642 67.7791 26.4411C68.6228 26.1868 69.5101 26.1446 70.3974 26.1446H79.8987C80.0684 26.1446 80.1096 26.1012 80.152 25.9747C80.2369 25.5082 80.3217 25.0418 80.3629 24.5332C80.4054 23.9824 80.2781 23.4725 79.8562 23.0917C79.518 22.7952 79.1386 22.6686 78.6743 22.6264C78.3786 22.583 67.2287 22.583 67.1451 22.583ZM79.0962 30.5101H72.4654C72.2133 30.5101 72.0012 30.5101 71.7478 30.5523C71.1575 30.6367 70.6932 30.8488 70.3538 31.3586C69.8895 32.1216 69.7634 32.9689 69.7634 33.8596C69.7634 34.2405 69.8895 34.5791 70.1853 34.8768C70.4811 35.1299 70.8617 35.2155 71.2411 35.2155H76.7324C77.5761 35.2155 78.2089 34.7491 78.3786 33.944C78.5895 33.1388 78.7156 32.3325 78.8853 31.5274C78.9277 31.1887 79.0113 30.8488 79.0962 30.5101ZM11.9511 13.2578C10.8953 18.3019 9.79702 23.3038 8.74119 28.3479H8.78362L18.4546 18.5984C18.6337 18.41 18.8499 18.2601 19.0897 18.1581C19.3295 18.0561 19.5878 18.0041 19.8486 18.0054H26.4781C26.3508 18.1332 17.6945 26.7376 17.103 27.3306C16.7648 27.6705 16.5114 28.0092 16.3853 28.4756C16.2156 29.112 16.3429 29.7472 16.7223 30.298C17.3139 31.2309 23.0149 39.581 23.0149 39.6666H16.7648C16.132 39.6666 15.6677 39.4123 15.3295 38.9037C14.0589 36.9329 12.778 34.9686 11.4868 33.0111C11.1911 33.2654 10.8528 33.4775 10.5571 33.7318C9.72146 34.4153 8.94458 35.1667 8.23449 35.9785C7.51687 36.7836 6.92531 37.6743 6.54589 38.6903C6.25012 39.3701 5.74341 39.7088 4.98215 39.7088H0C0.0848541 39.3701 4.98215 16.2674 5.23672 14.9958C5.2826 14.7304 5.36799 14.4733 5.49007 14.2329C5.78584 13.6821 6.25012 13.3856 6.84167 13.3856C8.53027 13.2578 11.9087 13.2578 11.9511 13.2578ZM130.574 44.3286C130.701 43.82 135.05 23.135 135.388 21.6935C135.599 20.8028 135.98 19.9977 136.613 19.3613C137.162 18.7683 137.879 18.3875 138.682 18.1753C139.189 18.0476 139.695 18.0054 140.202 18.0054H148.353C149.408 18.0054 150.422 18.0898 151.436 18.4296C153.505 19.107 154.814 20.4642 155.321 22.583C155.49 23.346 155.616 24.1523 155.659 24.9574C155.701 25.7625 155.701 26.5677 155.616 27.3318C155.489 28.2213 155.362 29.112 155.152 30.0015C154.898 31.3996 154.476 32.7568 153.969 34.0705C153.42 35.3843 152.66 36.5715 151.563 37.5055C150.844 38.1407 149.999 38.5638 149.113 38.9037C148.192 39.2466 147.223 39.4466 146.241 39.4967C145.439 39.5388 144.594 39.6244 143.75 39.6244H137.879C137.795 40.0909 137.289 42.464 137.119 43.1848C136.95 43.8634 136.317 44.372 135.642 44.372C133.952 44.372 130.615 44.3286 130.574 44.3286ZM138.893 34.919H143.243C143.539 34.919 143.876 34.8768 144.172 34.8768C145.101 34.7925 145.903 34.3682 146.621 33.6896C147.34 33.0111 147.804 32.1638 148.1 31.2309C148.395 30.3402 148.606 29.4085 148.817 28.4756C148.987 27.7127 149.113 26.9497 149.155 26.1446C149.198 25.5082 149.155 24.9152 148.901 24.321C148.649 23.6437 148.184 23.135 147.466 22.9229C147.013 22.7903 146.544 22.719 146.072 22.7108C145.143 22.7108 142.82 22.7108 142.61 22.753C141.892 22.7952 141.428 23.1772 141.215 23.898C141.047 24.7453 139.105 33.8174 138.893 34.919ZM66.3426 18.0054C66.2165 18.514 65.7098 20.7607 65.3292 21.2271C64.6116 22.16 63.6818 22.6252 62.4999 22.6686C61.529 22.7108 60.5568 22.8373 59.6282 23.3038C58.6572 23.7702 57.9808 24.5332 57.5166 25.466C57.0523 26.3555 56.7989 27.3306 56.588 28.3479C56.165 30.298 54.7721 36.9113 54.4764 38.2673C54.3067 39.1158 53.6739 39.6244 52.7866 39.6244H47.8456C47.9305 39.2423 50.6337 26.4411 50.887 25.4239C51.224 24.0667 51.7307 22.753 52.5332 21.608C53.6315 19.9977 55.1516 19.0226 57.0523 18.5562C57.9808 18.2597 63.1751 18.0476 65.1183 18.0054H66.3426ZM109.713 39.581C109.882 38.8181 110.009 38.0551 110.262 37.3778C110.769 35.9363 111.782 35.1311 113.302 34.9612C113.472 34.919 119.721 34.919 122.677 34.919C123.057 34.919 123.437 34.8768 123.817 34.8347C124.24 34.7913 124.408 34.4948 124.451 34.0705C124.493 33.6053 124.281 33.2232 123.944 32.8845C123.477 32.4702 122.931 32.153 122.339 31.9516C120.693 31.3152 119.003 30.7223 117.357 30.1293C116.368 29.7918 115.429 29.3209 114.569 28.7299C113.894 28.2213 113.302 27.6283 112.964 26.822C112.743 26.2541 112.629 25.6507 112.627 25.0418C112.669 23.5159 113.006 22.0322 113.682 20.6763C114.273 19.4891 115.286 18.7683 116.554 18.4296C117.398 18.1753 118.285 18.0898 119.173 18.0898H133.319C133.277 18.3875 132.939 19.9977 132.77 20.4642C132.221 21.8201 131.208 22.583 129.772 22.7542C129.645 22.7542 123.606 22.7952 120.734 22.7952C120.355 22.7952 119.974 22.7952 119.595 22.9229C118.961 23.135 118.792 23.5581 118.835 24.1089C118.877 24.6187 119.13 24.9574 119.595 25.1695C120.397 25.5926 125 27.2462 126.435 27.797C127.28 28.1369 128.084 28.4756 128.843 28.9842C129.687 29.5772 130.321 30.298 130.701 31.2743C130.954 31.9938 130.954 32.7568 130.912 33.4775C130.825 34.4018 130.626 35.3123 130.32 36.1894C130.026 36.9969 129.645 37.7165 129.011 38.3107C128.421 38.8615 127.702 39.2002 126.901 39.4123C126.21 39.5824 125.501 39.6674 124.789 39.6654C124.534 39.581 109.798 39.581 109.713 39.581Z"
          fill="#1A1818" />
    <path d="M33.6568 39.8353C33.1077 39.7932 32.2215 39.7932 31.3766 39.7088C30.0675 39.581 28.7583 39.3701 27.534 38.8615C26.2248 38.3095 25.169 37.5043 24.4089 36.275C23.9783 35.544 23.6915 34.7382 23.564 33.9006C23.4024 32.9347 23.3455 31.9545 23.3943 30.9766C23.4379 30.0437 23.564 29.1542 23.6913 28.2647C23.8598 27.1619 24.1131 26.059 24.4513 24.9996C24.8732 23.728 25.3799 22.4987 26.1824 21.3958C26.9848 20.3364 27.9558 19.5313 29.1389 18.9805C30.1935 18.514 31.2494 18.2175 32.39 18.0476C33.5732 17.8788 34.755 17.7945 35.9369 17.7511C37.1613 17.7089 38.3856 17.7089 39.5687 17.7933C40.7094 17.8776 41.8076 18.0476 42.9059 18.3875C43.8757 18.684 44.763 19.107 45.5243 19.7856C46.1146 20.2942 46.6213 20.9306 46.9595 21.6513C47.3788 22.5308 47.6362 23.4779 47.7195 24.4476C47.8456 25.636 47.8456 26.7798 47.7195 27.967C47.517 29.9878 47.0336 31.9709 46.2831 33.8596C45.8612 34.8768 45.3545 35.8085 44.6369 36.6148C44.0152 37.3315 43.2717 37.9341 42.4404 38.395C41.5119 38.9037 40.4985 39.2002 39.4851 39.4123C38.2607 39.6244 37.0364 39.7088 35.8109 39.7932C35.2193 39.8353 34.5866 39.8353 33.6568 39.8353ZM41.3846 26.1434C41.3846 25.636 41.3434 25.084 41.1737 24.6187C41.0622 24.219 40.8593 23.8502 40.5809 23.5412C40.3025 23.2322 39.9561 22.9913 39.5687 22.8373C38.725 22.4987 37.8801 22.4565 36.9928 22.4565C36.4024 22.4565 35.8109 22.4987 35.2193 22.583C34.5017 22.6674 33.8253 22.8807 33.1925 23.2194C32.1791 23.7702 31.5027 24.6609 31.0809 25.7204C30.659 26.6954 30.4057 27.7549 30.1947 28.7721C30.0266 29.5383 29.9412 30.3201 29.9402 31.1043C29.899 31.7395 29.9402 32.4181 30.1523 33.0111C30.4057 33.7318 30.8275 34.2826 31.4615 34.6225C32.2215 35.0034 33.024 35.1311 33.8253 35.1311C34.4593 35.1311 35.0933 35.1311 35.6836 35.0878C36.2751 35.0456 36.8243 34.919 37.3734 34.7503C38.6826 34.2826 39.5687 33.3931 40.1178 32.1216C40.9627 30.2136 41.3422 28.2213 41.3846 26.1434ZM87.7537 18.0054H92.651C93.4959 18.0054 94.1299 18.5562 94.2996 19.3613C94.5105 20.3798 97.1277 33.0954 97.1277 33.1376C97.2974 32.8411 106.166 18.8961 106.377 18.6418C106.51 18.4413 106.692 18.2777 106.906 18.1664C107.12 18.0551 107.36 17.9997 107.601 18.0054H113.429C113.217 18.3019 97.6768 41.8277 96.5373 43.5657C96.1991 44.0743 95.7349 44.3286 95.1009 44.3286H89.5696C89.6108 44.2864 91.8486 41.0225 92.948 39.4545C92.9892 39.3701 93.0329 39.2857 92.9892 39.2002C92.1031 35.5542 87.7962 18.0898 87.7537 18.0054ZM200 18.0476C199.873 18.5562 199.366 20.8028 198.987 21.2693C198.268 22.2022 197.339 22.6674 196.157 22.7108C195.185 22.753 194.214 22.8795 193.284 23.346C192.315 23.8124 191.638 24.5753 191.174 25.5082C190.71 26.3989 190.456 27.374 190.244 28.3912C189.822 30.3402 188.428 36.9535 188.134 38.3107C187.964 39.158 187.331 39.6666 186.444 39.6666H181.503C181.588 39.2845 184.291 26.4833 184.543 25.466C184.883 24.1089 185.388 22.7952 186.192 21.6513C187.289 20.0399 188.809 19.0648 190.71 18.5984C191.638 18.3019 196.833 18.0898 198.776 18.0476H200ZM167.272 39.8787C166.723 39.8353 165.837 39.8353 164.992 39.751C163.682 39.6244 162.373 39.4123 161.149 38.9037C159.84 38.3528 158.784 37.5465 158.024 36.3171C157.593 35.5862 157.307 34.7804 157.179 33.9427C157.017 32.9769 156.961 31.9966 157.009 31.0187C157.052 30.0859 157.179 29.1964 157.305 28.3069C157.475 27.2041 157.728 26.1012 158.065 25.0418C158.488 23.7702 158.995 22.5408 159.797 21.438C160.6 20.3798 161.571 19.5735 162.753 19.0226C163.808 18.5562 164.864 18.2597 166.005 18.0898C167.187 17.921 168.369 17.8367 169.552 17.7933C170.776 17.7511 172.001 17.7511 173.184 17.8354C174.323 17.9198 175.423 18.0898 176.52 18.4296C177.492 18.7261 178.378 19.1504 179.138 19.8278C179.73 20.3364 180.236 20.9728 180.574 21.6935C180.994 22.5734 181.251 23.5208 181.335 24.491C181.461 25.6782 181.461 26.822 181.335 28.0104C181.132 30.0307 180.648 32.0134 179.898 33.9018C179.476 34.919 178.97 35.8519 178.252 36.657C177.63 37.3737 176.887 37.9762 176.055 38.4372C175.127 38.9458 174.113 39.2423 173.1 39.4545C171.876 39.6666 170.65 39.751 169.426 39.8353C168.834 39.8787 168.202 39.8787 167.272 39.8787ZM175 26.1868C175 25.6782 174.957 25.1262 174.789 24.6187C174.677 24.219 174.474 23.8502 174.196 23.5412C173.917 23.2322 173.571 22.9913 173.184 22.8373C172.339 22.4987 171.495 22.4565 170.608 22.4565C170.016 22.4565 169.426 22.4987 168.834 22.583C168.117 22.6674 167.44 22.8807 166.807 23.2194C165.794 23.7702 165.118 24.6609 164.696 25.7204C164.274 26.6954 164.021 27.7127 163.808 28.7721C163.641 29.5383 163.556 30.3202 163.555 31.1043C163.513 31.7395 163.555 32.4181 163.767 33.0111C164.021 33.7318 164.442 34.2826 165.076 34.6225C165.837 35.0034 166.638 35.1311 167.44 35.1311C168.074 35.1311 168.707 35.1311 169.299 35.0878C169.89 35.0456 170.438 34.919 170.988 34.7503C172.298 34.2826 173.184 33.3931 173.733 32.1216C174.62 30.2558 175 28.2647 175 26.1868Z"
          fill="#1A1818" />
</svg>