<svg width="110" height="18" viewBox="0 0 110 18" fill="none" xmlns="http://www.w3.org/2000/svg">
<ellipse cx="8.97959" cy="9" rx="8.97959" ry="9" fill="#EB001B"/>
<ellipse cx="19.4562" cy="9" rx="8.97959" ry="9" fill="#F79E1B"/>
<path d="M14.2181 1.6875C16.4941 3.3618 17.9596 6.01507 17.9596 8.99771C17.9596 11.9804 16.4941 14.6382 14.2181 16.3125C11.9421 14.6382 10.4766 11.9849 10.4766 8.99771C10.4766 6.0105 11.9468 3.3618 14.2181 1.6875Z" fill="#FF5F00"/>
<path fill-rule="evenodd" clip-rule="evenodd" d="M67.4796 5.68011V6.94706H65.0404V9.72346C65.0404 10.5846 65.4946 10.9162 66.0526 10.9162C66.4822 10.9162 66.9562 10.7232 67.3364 10.4856L67.8895 11.5991C67.3759 11.9456 66.734 12.2326 65.9341 12.2326C64.4923 12.2326 63.6479 11.4556 63.6479 9.75315V6.94706H62.3789V5.68011H63.6479V3.75H65.0453V5.68011H67.4796ZM46.3713 8.05447C46.3713 6.55987 45.2998 5.51562 43.7839 5.51562C42.9938 5.51562 42.0112 5.73833 41.4582 6.65885C41.0187 5.95114 40.2287 5.52057 39.2559 5.52057C38.6041 5.52057 37.8141 5.71359 37.3005 6.46584V5.68884H35.918V12.0731H37.3154V8.53452C37.3154 7.44079 38.0659 6.84691 38.9646 6.84691C39.8929 6.84691 40.4459 7.44574 40.4459 8.51967V12.0681H41.8433V8.52957C41.8433 7.43584 42.5939 6.84196 43.4925 6.84196C44.4208 6.84196 44.9739 7.44079 44.9739 8.51473V12.0632H46.3713V8.05447ZM53.0909 12.0632H54.4784V5.67894H53.0909V6.45594C52.6515 5.8868 51.9947 5.51562 51.0911 5.51562C49.3086 5.51562 47.9062 6.92114 47.9062 8.87105C47.9062 10.821 49.3086 12.2265 51.0911 12.2265C51.9947 12.2265 52.6515 11.8603 53.0909 11.2961V12.0632ZM51.2528 6.82812C50.0579 6.82812 49.332 7.75359 49.332 8.87207C49.332 9.99054 50.0579 10.916 51.2528 10.916C52.4033 10.916 53.1736 10.0351 53.1736 8.87207C53.1736 7.70905 52.4033 6.82812 51.2528 6.82812ZM60.8746 7.28034L61.4721 6.1965C60.8154 5.77089 59.892 5.52344 58.8946 5.52344C57.275 5.52344 56.2627 6.30043 56.2627 7.56738C56.2627 8.59182 57.0133 9.24509 58.4205 9.4381L59.0871 9.52224C59.8426 9.63112 60.1883 9.86867 60.1883 10.2299C60.1883 10.7051 59.6896 11.0069 58.7415 11.0069C57.7046 11.0069 57.1022 10.7051 56.6429 10.3537L55.9961 11.3979C56.9244 12.0908 58.07 12.2194 58.7267 12.2194C60.5635 12.2194 61.6252 11.3633 61.6252 10.1359C61.6252 9.04218 60.8006 8.4483 59.413 8.25034L58.7563 8.15136C58.1687 8.06723 57.7046 7.93855 57.7046 7.49314C57.7046 7.04278 58.1539 6.73594 58.9094 6.73594C59.6994 6.73594 60.4895 7.04278 60.8746 7.28034ZM74.7787 8.86611C74.7689 6.8766 73.5492 5.51562 71.7667 5.51562C69.8953 5.51562 68.5966 6.87165 68.6016 8.876C68.6016 10.9001 69.9545 12.2314 71.8605 12.2314C72.8234 12.2314 73.7023 11.9988 74.4775 11.3307L73.7863 10.336C73.2628 10.7566 72.5814 11.009 71.9445 11.009C71.0408 11.009 70.236 10.5339 70.0483 9.38575H74.7541L74.7599 9.29529C74.7689 9.15964 74.7787 9.01123 74.7787 8.86611ZM71.7434 6.75391C70.7509 6.75391 70.2028 7.39233 70.0547 8.32769H73.3581C73.205 7.33294 72.6273 6.75391 71.7434 6.75391ZM80.6738 5.69379C80.3528 5.57006 80.0269 5.51562 79.6022 5.51562C78.827 5.51562 78.1752 5.79277 77.7605 6.39655V5.67894H76.3828V12.0632H77.7703V8.55432C77.7703 7.47048 78.4024 6.84196 79.2862 6.84196C79.6269 6.84196 80.0516 6.92114 80.3429 7.07456L80.6738 5.69379ZM85.355 5.51562C87.1376 5.51562 88.5399 6.92114 88.5399 8.87105C88.5399 10.821 87.1376 12.2265 85.355 12.2265C84.4514 12.2265 83.7996 11.8603 83.3602 11.301V14.7257H81.9727V5.67894H83.3602V6.43614C83.7996 5.88185 84.4514 5.51562 85.355 5.51562ZM83.2656 8.87207C83.2656 7.70905 84.0359 6.82812 85.1864 6.82812C86.3814 6.82812 87.1072 7.75359 87.1072 8.87207C87.1072 9.99054 86.3814 10.916 85.1864 10.916C84.0359 10.916 83.2656 10.0351 83.2656 8.87207ZM96.2519 12.0632H94.8644V11.2961C94.4249 11.8603 93.7682 12.2265 92.8646 12.2265C91.082 12.2265 89.6797 10.821 89.6797 8.87105C89.6797 6.92114 91.082 5.51562 92.8646 5.51562C93.7682 5.51562 94.4249 5.8868 94.8644 6.45594V5.67894H96.2519V12.0632ZM91.1094 8.87207C91.1094 7.75359 91.8352 6.82812 93.0302 6.82812C94.1807 6.82812 94.951 7.70905 94.951 8.87207C94.951 10.0351 94.1807 10.916 93.0302 10.916C91.8352 10.916 91.1094 9.99054 91.1094 8.87207ZM103.246 6.1965L102.648 7.28034C102.263 7.04278 101.473 6.73594 100.683 6.73594C99.9273 6.73594 99.478 7.04278 99.478 7.49314C99.478 7.93855 99.9422 8.06723 100.53 8.15136L101.186 8.25034C102.574 8.4483 103.399 9.04218 103.399 10.1359C103.399 11.3633 102.337 12.2194 100.5 12.2194C99.8434 12.2194 98.6978 12.0908 97.7695 11.3979L98.4164 10.3537C98.8756 10.7051 99.478 11.0069 100.515 11.0069C101.463 11.0069 101.962 10.7051 101.962 10.2299C101.962 9.86867 101.616 9.63112 100.861 9.52224L100.194 9.4381C98.7867 9.24509 98.0362 8.59182 98.0362 7.56738C98.0362 6.30043 99.0484 5.52344 100.668 5.52344C101.665 5.52344 102.589 5.77089 103.246 6.1965ZM109.25 7.28034L109.847 6.1965C109.19 5.77089 108.267 5.52344 107.27 5.52344C105.65 5.52344 104.638 6.30043 104.638 7.56738C104.638 8.59182 105.388 9.24509 106.796 9.4381L107.462 9.52224C108.218 9.63112 108.563 9.86867 108.563 10.2299C108.563 10.7051 108.065 11.0069 107.117 11.0069C106.08 11.0069 105.477 10.7051 105.018 10.3537L104.371 11.3979C105.299 12.0908 106.445 12.2194 107.102 12.2194C108.939 12.2194 110 11.3633 110 10.1359C110 9.04218 109.176 8.4483 107.788 8.25034L107.131 8.15136C106.544 8.06723 106.08 7.93855 106.08 7.49314C106.08 7.04278 106.529 6.73594 107.284 6.73594C108.074 6.73594 108.864 7.04278 109.25 7.28034Z" fill="black"/>
</svg>
