<svg width="32" height="32" viewBox="0 0 32 32" fill="none" xmlns="http://www.w3.org/2000/svg">
<path d="M14.16 8.418C15.8075 7.84833 17.6559 7.86063 19.2952 8.46309C20.2051 8.79915 21.0371 9.32374 21.7502 9.98358C21.5125 10.2418 21.2543 10.4836 21.0084 10.7336C20.5412 11.2008 20.0739 11.668 19.6067 12.1352C19.1436 11.6926 18.578 11.3565 17.9633 11.168C17.242 10.9508 16.4633 10.918 15.7256 11.0778C14.8649 11.2623 14.0657 11.7131 13.4469 12.3442C12.9469 12.8483 12.5698 13.4713 12.3403 14.1434C11.5084 13.4959 10.6764 12.8524 9.84033 12.2049C10.7215 10.4426 12.3034 9.05325 14.16 8.418Z" fill="#EA4436"/>
<path d="M9.1803 14.1143C9.31555 13.4504 9.53686 12.8028 9.84424 12.1963C10.6762 12.8438 11.5082 13.4873 12.3442 14.1348C12.0164 15.0897 12.0164 16.1512 12.3442 17.102C11.5123 17.7496 10.6803 18.3971 9.84834 19.0406C9.07785 17.5365 8.84424 15.7701 9.1803 14.1143Z" fill="#FABD05"/>
<path d="M16.6516 14.1926C19.0409 14.1926 21.4343 14.1926 23.8237 14.1926C24.0614 15.5328 24.0081 16.9303 23.6311 18.2418C23.2827 19.4426 22.6229 20.5574 21.7007 21.4057C20.8934 20.7787 20.086 20.1516 19.2786 19.5246C20.0778 18.9877 20.6434 18.1189 20.8032 17.168C19.418 17.168 18.0327 17.168 16.6475 17.168C16.6516 16.1762 16.6516 15.1844 16.6516 14.1926Z" fill="#4384F4"/>
<path d="M9.84033 19.045C10.6723 18.4015 11.5043 17.754 12.3362 17.1064C12.6559 18.045 13.2707 18.8769 14.0821 19.4466C14.5903 19.8032 15.1723 20.0573 15.7789 20.1802C16.3772 20.3032 16.9961 20.2868 17.5985 20.1843C18.1969 20.0778 18.7748 19.8605 19.2789 19.5204C20.0862 20.1474 20.8936 20.7745 21.701 21.4015C20.828 22.2089 19.7338 22.7581 18.578 23.0245C17.2993 23.3155 15.9469 23.3237 14.6764 22.9835C13.6682 22.7171 12.7215 22.2376 11.9059 21.586C11.0493 20.9056 10.3362 20.0286 9.84033 19.045Z" fill="#34A852"/>
</svg>
