<svg width="25" height="13" viewBox="0 0 25 13" fill="none" xmlns="http://www.w3.org/2000/svg">
<path fill-rule="evenodd" clip-rule="evenodd" d="M10.6553 12.9669C10.3874 12.9703 9.22376 12.8981 8.86205 12.8607C8.30806 12.7967 7.84717 12.7268 7.37621 12.4559V10.8766C7.85499 10.7588 8.38899 10.6672 8.84037 10.6508C9.32869 10.6247 10.9713 10.6215 11.4058 10.6247C12.2099 10.6562 12.5019 10.3472 12.5301 9.87267C12.5511 9.59696 12.5426 9.32723 12.5337 9.05458C12.5242 8.65783 12.2099 8.42737 11.6588 8.3169C10.9396 8.19892 8.96833 7.87319 8.10867 7.52568C7.83285 7.42055 7.56957 7.28973 7.33007 7.11012C6.81279 6.69874 6.39762 6.13235 6.43526 4.80393C6.59465 3.18514 6.69787 2.40053 7.28996 1.44094C7.72053 0.811638 8.45234 0.0564861 10.0593 0C10.3295 0 11.6612 0.0236323 11.7661 0.0358405C14.4663 0.233001 15.3388 2.27303 15.3514 3.5506C15.3704 3.90281 15.4411 8.37779 15.4442 9.06481C15.4442 9.08062 15.4445 9.10111 15.4449 9.12578C15.4489 9.42056 15.4613 10.3118 15.2145 10.9431C14.9119 11.8478 14.0816 12.8556 12.4283 12.9497C12.2169 12.9756 11.0177 12.9713 10.6553 12.9669ZM12.5233 5.88116L12.5233 5.88066C12.5282 4.95439 12.5337 3.92044 12.4931 3.54088C12.4748 3.24184 12.3858 2.57244 11.7227 2.36192C11.5789 2.31663 10.537 2.27717 10.3936 2.3076C9.90188 2.42535 9.64153 2.80783 9.52385 3.39371C9.45321 3.79445 9.38939 4.32448 9.42614 4.75741C9.43746 5.22053 9.67499 5.54941 9.97409 5.63322C10.0953 5.66716 10.4645 5.73969 10.8019 5.80599L10.8019 5.80599C11.044 5.85356 11.2698 5.89791 11.376 5.92252C11.7682 6.01339 12.1616 6.10594 12.5211 6.33846C12.5216 6.19185 12.5224 6.03849 12.5233 5.88204L12.5233 5.88162L12.5233 5.88116ZM1.22223 6.34311C0.79756 6.38026 0.224175 6.4892 0.00014375 6.55864C0.000768203 7.0739 0.000486215 7.48905 0.000235574 7.85806L0 8.36817C0.521879 8.64566 0.939286 8.69398 1.35337 8.74191L1.35339 8.74191L1.35341 8.74192C1.41498 8.74904 1.47647 8.75616 1.53823 8.76402C2.65885 8.87326 4.10833 8.87819 4.67636 8.8232C5.16353 8.79176 5.53442 8.75559 6.17484 8.59367V6.80717C5.66691 6.49842 5.06836 6.43244 4.49616 6.36937L4.44497 6.36372C3.62991 6.29327 2.41729 6.2301 1.22223 6.34311ZM20.209 12.9962C19.941 12.9996 18.7774 12.9274 18.4156 12.89C17.8616 12.8261 17.4008 12.7561 16.9298 12.4852V10.9059C17.4086 10.7881 17.9426 10.6965 18.394 10.6802C18.8823 10.6541 20.525 10.6508 20.9594 10.654C21.7635 10.6855 22.0555 10.3766 22.0838 9.90197C22.1048 9.62626 22.0963 9.35652 22.0873 9.08391C22.0778 8.68717 21.7635 8.4567 21.2124 8.3462C20.4932 8.22822 18.522 7.90252 17.6623 7.55502C17.3865 7.44988 17.1232 7.31903 16.8837 7.13945C16.3664 6.72807 15.9512 6.16168 15.9889 4.83327C16.1483 3.21443 16.2515 2.42986 16.8436 1.47023C17.2741 0.841009 18.0059 0.0858203 19.6128 0.0292969C19.883 0.0292969 21.2148 0.0529665 21.3197 0.0651747C24.0199 0.262335 24.8924 2.30237 24.905 3.5799C24.924 3.9321 24.9947 8.40712 24.9978 9.09414C24.9978 9.10147 24.9979 9.10979 24.998 9.11907C24.9981 9.12981 24.9983 9.14183 24.9985 9.15505C25.0026 9.44974 25.0149 10.341 24.7681 10.9724C24.4655 11.8772 23.6352 12.8849 21.9819 12.9791C21.7705 13.0049 20.5712 13.0007 20.209 12.9962ZM22.0769 5.90733C22.0761 6.06516 22.0752 6.21988 22.0747 6.36773C21.7152 6.13522 21.3217 6.04267 20.9296 5.95183C20.8234 5.92721 20.5976 5.88285 20.3555 5.8353C20.018 5.76899 19.6489 5.69645 19.5277 5.6625C19.2286 5.57872 18.991 5.24985 18.9797 4.78668C18.943 4.3538 19.0068 3.82377 19.0775 3.42303C19.1951 2.83714 19.4555 2.45462 19.9472 2.33687C20.0906 2.30648 21.1325 2.34594 21.2762 2.39123C21.9394 2.60176 22.0284 3.27111 22.0466 3.5702C22.0873 3.9494 22.0818 4.98175 22.0769 5.90733Z" fill="#8B857B"/>
</svg>
