<svg width="12"
     height="16"
     viewBox="0 0 12 16"
     fill="none"
     xmlns="http://www.w3.org/2000/svg">
    <path d="M11.6217 5.25075C11.3662 3.22699 10.1965 1.86433 8.37498 1.11554C6.97603 0.545516 5.54105 0.582618 4.10935 1.00423C3.08717 1.3078 2.21898 1.86433 1.53097 2.70756C0.823312 3.57778 0.439996 4.58291 0.335157 5.70609C0.223766 6.9136 0.50552 8.01317 1.19352 8.99806C1.41631 9.31849 1.69806 9.57821 2.04206 9.76035C2.2714 9.88514 2.33364 9.85479 2.39589 9.59845C2.45159 9.35897 2.49746 9.11612 2.57281 8.88339C2.64816 8.64728 2.64161 8.44491 2.46469 8.25265C2.39589 8.17507 2.35003 8.07051 2.30416 7.97607C1.49821 6.37393 1.92412 4.28946 3.33289 3.17302C4.63682 2.13754 6.09473 1.98913 7.60834 2.59963C8.65018 3.02124 9.32835 3.83749 9.58717 4.9573C9.90169 6.31996 9.72477 7.64552 9.0466 8.86652C8.59448 9.6794 7.93269 10.2157 6.98259 10.273C6.2782 10.3169 5.63934 9.8784 5.51484 9.14647C5.46898 8.88001 5.51812 8.6203 5.5902 8.36733C5.77039 7.7231 5.96041 7.07887 6.13732 6.43464C6.23561 6.08049 6.29131 5.72296 6.26837 5.35193C6.22251 4.57953 5.61968 4.10732 4.88909 4.28609C4.38455 4.40751 4.06021 4.7583 3.84398 5.22039C3.47049 6.02315 3.5098 6.84614 3.78501 7.66913C3.82432 7.79056 3.83415 7.89849 3.80466 8.01654C3.54257 9.15322 3.3034 10.2966 3.01182 11.4266C2.73007 12.516 2.60229 13.6156 2.73334 14.7354C2.753 14.9074 2.85129 15.211 2.85129 15.211L3.31323 15.3122C3.32634 15.2953 3.39514 15.1671 3.46066 15.0322C3.97175 13.9967 4.38455 13.2446 4.59423 12.2428C4.69252 11.7672 4.83012 11.3018 4.95134 10.8329C4.96444 10.7823 4.95789 10.7115 5.01358 10.6946C5.07911 10.6778 5.09221 10.752 5.1217 10.7925C5.25602 10.9847 5.42639 11.1399 5.61968 11.2647C6.13405 11.5986 6.69428 11.7234 7.30365 11.6897C8.34221 11.6289 9.24317 11.2309 9.97704 10.4788C11.3891 9.03179 11.874 7.23403 11.625 5.25075H11.6217Z"
          fill="black" />
</svg>