<svg width="100"
     height="100"
     viewBox="0 0 100 100"
     fill="none"
     xmlns="http://www.w3.org/2000/svg">
    <path d="M64.5574 78.6373L60.7419 72.5314L61.6366 71.9723L67.5093 74.6526L64.6557 70.0858L65.5461 69.5294L69.3616 75.6354L68.4711 76.1918L62.5984 73.5115L65.4521 78.0783L64.5574 78.6373Z"
          fill="#1A1818" />
    <path d="M71.8494 73.3856L66.8478 68.2063L67.6067 67.4735L72.6083 72.6527L71.8494 73.3856Z"
          fill="#1A1818" />
    <path d="M75.9158 68.7785L70.8248 65.2137L69.5772 66.9954L68.7704 66.4304L71.8591 62.0192L72.6659 62.5842L71.427 64.3536L76.5181 67.9184L75.9158 68.7785Z"
          fill="#1A1818" />
    <path d="M56.7972 77.5829L61.0875 80.0723L62.3689 79.6805L58.0258 77.155L60.0391 72.8638L58.7959 73.2439L56.7972 77.5829ZM57.0136 81.3178L58.0225 81.0093L55.9175 74.1239L54.9086 74.4324L57.0136 81.3178Z"
          fill="#1A1818" />
    <path d="M49.4775 82.0713L49.1007 74.8812L53.6994 74.6402L53.7509 75.6238L50.2058 75.8096L50.3115 77.8269L53.2574 77.6725L53.309 78.6561L50.363 78.8105L50.4795 81.0325L54.0246 80.8467L54.0762 81.8303L49.4775 82.0713Z"
          fill="#1A1818" />
    <path d="M39.4254 80.4002L41.045 73.3847L42.0632 73.6198L43.2822 79.12L46.7792 74.7086L47.8023 74.9448L46.1837 81.9554L45.1607 81.7192L46.2989 76.7889L43.4567 80.3867L42.57 80.182L41.5927 75.7023L40.4533 80.6375L39.4254 80.4002Z"
          fill="#1A1818" />
    <path d="M35.4977 78.5297L38.654 72.0584L39.6022 72.5209L36.4459 78.9922L35.4977 78.5297Z"
          fill="#1A1818" />
    <path d="M33.2829 69.6891L34.6566 70.7242C34.8429 70.8647 34.9886 71.012 35.0936 71.1662C35.1986 71.3205 35.2662 71.48 35.2965 71.6447C35.3288 71.8068 35.3211 71.9721 35.2734 72.1406C35.2257 72.3092 35.1386 72.4773 35.0122 72.645C34.8859 72.8128 34.7472 72.9441 34.5963 73.0391C34.4475 73.1314 34.2897 73.1857 34.123 73.202C33.9583 73.2157 33.7873 73.1933 33.6101 73.1349C33.4349 73.0738 33.2542 72.9731 33.0678 72.8326L31.6942 71.7975L33.2829 69.6891ZM32.0464 76.5393L33.0207 77.2735L33.2814 73.4631L32.2894 73.0099L32.0464 76.5393ZM29.5427 74.6526L31.0984 72.5882L32.48 73.6293C32.8048 73.874 33.123 74.0471 33.4348 74.1485C33.7493 74.2518 34.0482 74.2872 34.3316 74.2545C34.6197 74.2212 34.8915 74.1234 35.1472 73.9614C35.405 73.7966 35.6421 73.5705 35.8588 73.283C36.0754 72.9955 36.2264 72.7065 36.3118 72.416C36.3971 72.1255 36.4161 71.8372 36.3687 71.5511C36.324 71.267 36.2077 70.9894 36.0196 70.7183C35.8362 70.4466 35.5821 70.1883 35.2574 69.9436L33.0332 68.2675L28.7001 74.0177L29.5427 74.6526Z"
          fill="#1A1818" />
    <path d="M23.9314 68.61L25.9684 67.0186L27.0335 68.3818C27.2838 68.7023 27.5465 68.9518 27.8214 69.1304C28.0984 69.3117 28.3779 69.4232 28.6602 69.4649C28.947 69.5073 29.235 69.4833 29.5239 69.3929C29.8155 69.3005 30.1031 69.1434 30.3868 68.9218C30.6705 68.7001 30.8911 68.4601 31.0487 68.2016C31.2063 67.9431 31.2993 67.6695 31.3276 67.3809C31.3579 67.0949 31.3174 66.7967 31.2059 66.4862C31.0991 66.1762 30.9205 65.861 30.6701 65.5405L28.9555 63.3459L23.2819 67.7787L23.9314 68.61ZM28.8289 64.7837L29.8878 66.1391C30.0315 66.323 30.134 66.503 30.1955 66.6791C30.257 66.8553 30.2811 67.0268 30.2677 67.1938C30.2569 67.3587 30.2067 67.5164 30.117 67.6669C30.0273 67.8173 29.8997 67.9572 29.7342 68.0865C29.5687 68.2158 29.4008 68.3068 29.2305 68.3595C29.0628 68.4101 28.8963 68.4218 28.7311 68.3943C28.5684 68.3649 28.4091 68.299 28.2531 68.1967C28.0996 68.0924 27.9511 67.9483 27.8075 67.7644L26.7485 66.4091L28.8289 64.7837Z"
          fill="#1A1818" />
    <path d="M77.319 62.3965C79.4069 57.7953 80.2988 52.7413 79.912 47.7034C79.5252 42.6655 77.8722 37.8069 75.1064 33.5784C72.3406 29.3498 68.5516 25.8884 64.0909 23.5151C59.6302 21.1419 54.6423 19.9338 49.5901 20.0028C44.5378 20.0718 39.5848 21.4158 35.1907 23.9101C30.7965 26.4043 27.1035 29.9681 24.4543 34.2706C21.805 38.5731 20.2854 43.4751 20.0364 48.5216C19.7875 53.5682 20.8171 58.596 23.03 63.1384L24.1665 62.5847C22.047 58.2337 21.0607 53.4179 21.2992 48.5839C21.5377 43.75 22.9932 39.0547 25.5308 34.9335C28.0684 30.8122 31.6058 27.3987 35.8148 25.0096C40.0237 22.6204 44.768 21.3331 49.6073 21.267C54.4467 21.2008 59.2243 22.3581 63.497 24.6313C67.7697 26.9045 71.3991 30.2201 74.0483 34.2704C76.6976 38.3207 78.2809 42.9746 78.6514 47.8002C79.0219 52.6258 78.1676 57.4668 76.1677 61.874L77.319 62.3965Z"
          fill="#1A1818" />
    <path d="M43.3912 46.5019C43.3685 45.5991 44.4595 45.1311 45.098 45.7697L48.7027 49.3743C48.8841 49.5557 48.9888 49.7999 48.9953 50.0563L49.0939 53.9834C49.1166 54.8862 48.0257 55.3542 47.3871 54.7156L43.7825 51.111C43.6011 50.9296 43.4963 50.6854 43.4899 50.429L43.3912 46.5019Z"
          fill="#1A1818" />
    <path d="M43.3912 38.5019C43.3685 37.5991 44.4595 37.1311 45.098 37.7697L48.7027 41.3743C48.8841 41.5557 48.9888 41.7999 48.9953 42.0563L49.0939 45.9834C49.1166 46.8862 48.0257 47.3542 47.3871 46.7156L43.7825 43.111C43.6011 42.9296 43.4963 42.6854 43.4899 42.429L43.3912 38.5019Z"
          fill="#1A1818" />
    <path d="M56.0939 46.5019C56.1166 45.5991 55.0256 45.1311 54.3871 45.7697L50.7824 49.3743C50.601 49.5557 50.4963 49.7999 50.4898 50.0563L50.3912 53.9834C50.3685 54.8862 51.4594 55.3542 52.098 54.7156L55.7026 51.111C55.884 50.9296 55.9888 50.6854 55.9952 50.429L56.0939 46.5019Z"
          fill="#1A1818" />
    <path d="M56.0939 38.5019C56.1166 37.5991 55.0256 37.1311 54.3871 37.7697L50.7824 41.3743C50.601 41.5557 50.4963 41.7999 50.4898 42.0563L50.3912 45.9834C50.3685 46.8862 51.4594 47.3542 52.098 46.7156L55.7026 43.111C55.884 42.9296 55.9888 42.6854 55.9952 42.429L56.0939 38.5019Z"
          fill="#1A1818" />
    <path d="M42.0939 46.5019C42.1166 45.5991 41.0256 45.1311 40.3871 45.7697L36.7824 49.3743C36.601 49.5557 36.4963 49.7999 36.4898 50.0563L36.3912 53.9834C36.3685 54.8862 37.4594 55.3542 38.098 54.7156L41.7026 51.111C41.884 50.9296 41.9888 50.6854 41.9952 50.429L42.0939 46.5019Z"
          fill="#1A1818" />
    <path d="M42.0939 38.5019C42.1166 37.5991 41.0256 37.1311 40.3871 37.7697L36.7824 41.3743C36.601 41.5557 36.4963 41.7999 36.4898 42.0563L36.3912 45.9834C36.3685 46.8862 37.4594 47.3542 38.098 46.7156L41.7026 43.111C41.884 42.9296 41.9888 42.6854 41.9952 42.429L42.0939 38.5019Z"
          fill="#1A1818" />
    <path d="M57.3912 46.5019C57.3685 45.5991 58.4595 45.1311 59.098 45.7697L62.7027 49.3743C62.8841 49.5557 62.9888 49.7999 62.9953 50.0563L63.0939 53.9834C63.1166 54.8862 62.0257 55.3542 61.3871 54.7156L57.7825 51.111C57.6011 50.9296 57.4963 50.6854 57.4899 50.429L57.3912 46.5019Z"
          fill="#1A1818" />
    <path d="M57.3912 38.5019C57.3685 37.5991 58.4595 37.1311 59.098 37.7697L62.7027 41.3743C62.8841 41.5557 62.9888 41.7999 62.9953 42.0563L63.0939 45.9834C63.1166 46.8862 62.0257 47.3542 61.3871 46.7156L57.7825 43.111C57.6011 42.9296 57.4963 42.6854 57.4899 42.429L57.3912 38.5019Z"
          fill="#1A1818" />
</svg>