<svg width="70" height="11" viewBox="0 0 70 11" fill="none" xmlns="http://www.w3.org/2000/svg">
<path d="M53.4573 4.32787V6.85246H57.7462V4.32787H53.4573ZM37.221 2.88525C37.3255 3.03811 37.3913 3.24598 37.3913 3.48199V7.51758C37.3913 7.74753 37.3255 7.96102 37.221 8.11475C37.3295 7.97228 37.3993 7.75316 37.3993 7.51758V3.48242C37.3993 3.24641 37.3295 3.02772 37.221 2.88525ZM36.8857 0H29.4426C28.0716 0 26.9584 1.35212 26.9584 3.02104V7.97896C26.9584 9.64832 28.0716 11 29.4426 11H36.8857C38.2515 11 39.3654 9.64832 39.3654 7.97896V3.02104C39.3654 1.35212 38.2567 0 36.8857 0ZM36.5168 8.29508H29.8026C29.7094 8.29508 29.6209 8.27329 29.5368 8.22926C29.4948 8.20703 29.4527 8.17957 29.4155 8.14644C29.3783 8.12421 29.3407 8.08585 29.3082 8.04226C29.1825 7.88795 29.1028 7.67261 29.1028 7.44115V3.37852C29.1028 3.14096 29.1821 2.93172 29.3082 2.77785C29.3407 2.73382 29.3783 2.69503 29.4155 2.6728C29.4527 2.64011 29.4948 2.61177 29.5368 2.58997C29.6209 2.54595 29.7094 2.52459 29.8026 2.52459H36.5168C36.7126 2.52459 36.8899 2.62354 37.016 2.77828C37.1417 2.93216 37.221 3.14139 37.221 3.37896V7.44115C37.221 7.67261 37.1417 7.88751 37.016 8.04226C36.8895 8.20136 36.7126 8.29508 36.5168 8.29508ZM22.8794 7.32219C22.7847 7.32972 22.7318 7.33348 22.7205 7.33348C22.7091 7.33348 21.7156 7.33348 19.7399 7.33348L22.7372 11H25.8862L22.8794 7.32219ZM9.39413 0H0V11H2.30627V7.33348H9.39413C11.0596 7.33348 12.407 5.69184 12.407 3.66696C12.407 1.64208 11.0548 0 9.39413 0ZM9.22322 4.68853H2.29759V2.52459H9.22322C9.71081 2.52459 10.1094 3.00934 10.1094 3.60656C10.1094 4.20378 9.71081 4.68853 9.22322 4.68853ZM22.7205 0H13.326V11H15.6276V7.33348H22.7205C24.3812 7.33348 25.733 5.69184 25.733 3.66696C25.733 1.64208 24.3812 0 22.7205 0ZM22.5498 4.68853H15.6236V2.52459H22.5498C23.0367 2.52459 23.4354 3.00934 23.4354 3.60656C23.4354 4.20378 23.0371 4.68853 22.5498 4.68853ZM61.6585 2.58764H70V0H61.3024C59.9342 0 58.8184 1.35212 58.8184 3.02104V7.97896C58.8184 9.64832 59.929 11 61.3024 11H70V8.4128H61.6585C61.2646 8.4128 60.9459 8.0234 60.9459 7.5504V6.90492H70V4.312H60.9459V3.45004C60.9459 2.9766 61.2694 2.58764 61.6585 2.58764ZM46.6261 0V2.62603L49.9648 2.58774V7.5507C49.9648 8.02372 49.6485 8.41314 49.2567 8.41314H43.2641C42.8727 8.41314 42.556 8.02372 42.556 7.5507V6.9052H40.4376V7.97884C40.4376 9.64826 41.5456 11 42.9099 11H49.6109C50.9752 11 52.0788 9.64826 52.0788 7.97884V0H46.6261Z" fill="#8B857B"/>
</svg>
