<svg width="40"
     height="41"
     viewBox="0 0 40 41"
     fill="none"
     xmlns="http://www.w3.org/2000/svg">
    <path d="M35.195 4.64906C28.9988 -1.54719 18.1887 -1.55219 11.9962 4.64906L5 11.6503V5.00031H0V20.0091H15V15.1091H8.72125L15.5375 8.18781C19.8438 3.87656 27.3538 3.87656 31.66 8.19281C33.8138 10.3466 35 13.2078 35 16.3603C35 19.3066 33.8138 22.1678 31.66 24.3266L27.89 28.0941L31.425 31.6291L35.195 27.8691C38.2912 24.7616 40 20.6403 40 16.3603C40 11.8703 38.2912 7.74906 35.195 4.64906Z"
          fill="#1A1818" />
    <path d="M23.0612 40.0028L19.5262 36.4578L23.0612 32.9228L26.5962 36.4578L23.0612 40.0028Z"
          fill="#1A1818" />
</svg>