<svg width="24"
     height="24"
     viewBox="0 0 24 24"
     fill="none"
     xmlns="http://www.w3.org/2000/svg">
    <path fill-rule="evenodd"
          clip-rule="evenodd"
          d="M6.7987 4.25H16.2013L18.75 7.54371V17.6C18.75 18.1779 18.5129 18.7272 18.0989 19.1285C17.6857 19.529 17.1301 19.75 16.5556 19.75H6.44444C5.86987 19.75 5.3143 19.529 4.90109 19.1285C4.48708 18.7272 4.25 18.1779 4.25 17.6V7.54371L6.7987 4.25ZM7.53463 5.75L5.75 8.05629V17.6C5.75 17.7647 5.81728 17.9276 5.94505 18.0514C6.07361 18.176 6.25283 18.25 6.44444 18.25H16.5556C16.7472 18.25 16.9264 18.176 17.055 18.0514C17.1827 17.9276 17.25 17.7647 17.25 17.6V8.05629L15.4654 5.75H7.53463Z"
          fill="#1A1818" />
    <path fill-rule="evenodd"
          clip-rule="evenodd"
          d="M4.25 7.79785C4.25 7.38364 4.58579 7.04785 5 7.04785H18C18.4142 7.04785 18.75 7.38364 18.75 7.79785C18.75 8.21207 18.4142 8.54785 18 8.54785H5C4.58579 8.54785 4.25 8.21207 4.25 7.79785Z"
          fill="#1A1818" />
    <path fill-rule="evenodd"
          clip-rule="evenodd"
          d="M9.36133 9.8457V10.5957C9.36133 11.1317 9.58079 11.6507 9.97944 12.0371C10.3789 12.4242 10.9255 12.6457 11.5002 12.6457C12.0749 12.6457 12.6215 12.4242 13.021 12.0371C13.4196 11.6507 13.6391 11.1317 13.6391 10.5957V9.8457H15.1391V10.5957C15.1391 11.5449 14.7498 12.4503 14.0649 13.1142C13.3809 13.7772 12.4579 14.1457 11.5002 14.1457C10.5426 14.1457 9.61958 13.7772 8.93548 13.1142C8.25059 12.4503 7.86133 11.5449 7.86133 10.5957V9.8457H9.36133Z"
          fill="#1A1818" />
</svg>