<svg width="70"
     height="70"
     viewBox="0 0 70 70"
     fill="none"
     xmlns="http://www.w3.org/2000/svg">
    <path d="M31.8867 12V4.08H33.0472L36.9632 10.0035V4.08H38.1182V12H36.9632L33.0472 6.0765V12H31.8867Z"
          fill="#1A1818" />
    <path d="M42.057 13.2829C42.5103 13.4302 42.9421 13.4954 43.3525 13.4783C43.7663 13.4625 44.1471 13.3645 44.4947 13.1844C44.8459 13.0055 45.1564 12.744 45.4262 12.3999C45.6961 12.0558 45.9138 11.6292 46.0792 11.12L47.5578 6.56922L46.4541 6.21061L44.9874 10.7248C44.873 11.077 44.732 11.3743 44.5646 11.6168C44.3971 11.8592 44.2055 12.0456 43.9896 12.176C43.7749 12.3029 43.5325 12.3725 43.2624 12.385C42.9958 12.3986 42.7056 12.3545 42.3918 12.2525C42.0779 12.1505 41.8154 12.0151 41.6043 11.8462C41.3966 11.6785 41.2432 11.4802 41.1441 11.2514C41.0461 11.0191 41.0006 10.7556 41.0076 10.4611C41.0146 10.1665 41.0754 9.8431 41.1898 9.49089L42.6566 4.9767L41.5529 4.61809L40.0742 9.16889C39.9088 9.67803 39.8341 10.1511 39.8502 10.5881C39.8663 11.0251 39.962 11.4187 40.1374 11.7687C40.3164 12.1198 40.5685 12.4234 40.894 12.6795C41.2195 12.9356 41.6071 13.1368 42.057 13.2829Z"
          fill="#1A1818" />
    <path d="M46.1568 14.5292L51.0328 8.28814L51.9387 8.99584L50.597 15.0459L56.134 12.2736L57.0442 12.9847L52.1715 19.2214L51.2614 18.5103L54.6882 14.1243L50.1821 16.3898L49.3933 15.7736L50.5015 10.8533L47.0713 15.2437L46.1568 14.5292Z"
          fill="#1A1818" />
    <path d="M63.3924 25.682L63.882 27.5096C63.9485 27.7575 63.975 27.9838 63.9615 28.1886C63.9481 28.3934 63.8987 28.5775 63.8134 28.7408C63.7316 28.9031 63.613 29.0412 63.4575 29.155C63.3019 29.2688 63.1126 29.3556 62.8895 29.4154C62.6664 29.4752 62.4572 29.4951 62.2621 29.4753C62.0705 29.4545 61.897 29.3947 61.7415 29.2959C61.5895 29.1962 61.4565 29.061 61.3424 28.8904C61.2319 28.7188 61.1434 28.5091 61.077 28.2612L60.5873 26.4336L63.3924 25.682ZM57.6813 30.7824L58.0287 32.0787L60.8351 28.9523L60.2822 27.8876L57.6813 30.7824ZM56.7888 27.4514L59.5354 26.7155L60.028 28.5536C60.1437 28.9857 60.3024 29.3513 60.504 29.6503C60.7066 29.9529 60.9417 30.1859 61.2095 30.3495C61.4818 30.5157 61.7837 30.6151 62.1151 30.6478C62.45 30.6795 62.8088 30.6441 63.1913 30.5417C63.5738 30.4392 63.9004 30.2909 64.1711 30.0969C64.4417 29.9029 64.6534 29.6659 64.8061 29.3858C64.9598 29.1093 65.0469 28.7899 65.0675 28.4275C65.0926 28.0678 65.0473 27.6718 64.9315 27.2398L64.1386 24.2806L56.4884 26.3305L56.7888 27.4514Z"
          fill="#1A1818" />
    <path d="M65.838 37.3752L65.9171 35.8648L58.1479 32.781L58.084 34.0003L65.175 36.7842L65.196 36.3833L57.8525 38.4162L57.7889 39.6301L65.838 37.3752ZM59.8615 34.2367L59.6451 38.367L60.7216 38.4234L60.9381 34.2931L59.8615 34.2367Z"
          fill="#1A1818" />
    <path d="M61.6233 19.2575L60.8218 17.9749L52.6887 19.905L53.3358 20.9405L60.7412 19.1537L60.5284 18.8132L55.6791 24.6905L56.3232 25.7213L61.6233 19.2575ZM54.9274 20.1145L57.1192 23.622L58.0334 23.0508L55.8416 19.5432L54.9274 20.1145Z"
          fill="#1A1818" />
    <path d="M38.1133 58L38.1133 65.92L36.9528 65.92L33.0368 59.9965L33.0368 65.92L31.8818 65.92L31.8818 58L33.0368 58L36.9528 63.9235L36.9528 58L38.1133 58Z"
          fill="#1A1818" />
    <path d="M27.943 56.7171C27.4897 56.5698 27.0579 56.5046 26.6475 56.5217C26.2337 56.5375 25.8529 56.6355 25.5053 56.8156C25.1541 56.9945 24.8436 57.256 24.5738 57.6001C24.3039 57.9442 24.0862 58.3708 23.9208 58.88L22.4422 63.4308L23.5459 63.7894L25.0126 59.2752C25.127 58.923 25.268 58.6257 25.4354 58.3832C25.6029 58.1408 25.7945 57.9544 26.0104 57.824C26.2251 57.6971 26.4675 57.6275 26.7376 57.615C27.0042 57.6014 27.2944 57.6455 27.6082 57.7475C27.9221 57.8495 28.1846 57.9849 28.3957 58.1538C28.6034 58.3215 28.7568 58.5198 28.8559 58.7486C28.9539 58.9809 28.9994 59.2444 28.9924 59.5389C28.9854 59.8335 28.9246 60.1569 28.8102 60.5091L27.3434 65.0233L28.4471 65.3819L29.9258 60.8311C30.0912 60.322 30.1659 59.8489 30.1498 59.4119C30.1337 58.9749 30.038 58.5813 29.8626 58.2313C29.6836 57.8802 29.4315 57.5766 29.106 57.3205C28.7805 57.0644 28.3929 56.8632 27.943 56.7171Z"
          fill="#1A1818" />
    <path d="M23.8432 55.4708L18.9672 61.7119L18.0613 61.0042L19.403 54.9541L13.866 57.7264L12.9558 57.0153L17.8285 50.7786L18.7386 51.4897L15.3118 55.8757L19.8179 53.6102L20.6067 54.2264L19.4985 59.1467L22.9287 54.7563L23.8432 55.4708Z"
          fill="#1A1818" />
    <path d="M6.60764 44.318L6.11795 42.4904C6.05152 42.2425 6.02504 42.0162 6.03849 41.8114C6.05194 41.6066 6.10132 41.4225 6.18663 41.2592C6.26839 41.0969 6.38703 40.9588 6.54254 40.845C6.69806 40.7312 6.88738 40.6444 7.11051 40.5846C7.33364 40.5248 7.54276 40.5049 7.73788 40.5247C7.92945 40.5455 8.10301 40.6053 8.25854 40.7041C8.41053 40.8038 8.54355 40.939 8.6576 41.1096C8.7681 41.2812 8.85657 41.4909 8.923 41.7388L9.41269 43.5664L6.60764 44.318ZM12.3187 39.2176L11.9713 37.9213L9.16486 41.0477L9.71776 42.1124L12.3187 39.2176ZM13.2112 42.5486L10.4646 43.2845L9.97205 41.4464C9.85627 41.0143 9.69758 40.6487 9.49599 40.3497C9.29345 40.0471 9.05828 39.8141 8.79048 39.6505C8.51819 39.4843 8.21634 39.3849 7.88492 39.3522C7.54996 39.3205 7.19123 39.3559 6.80873 39.4583C6.42622 39.5608 6.09963 39.7091 5.82895 39.9031C5.55827 40.0971 5.34657 40.3341 5.19385 40.6142C5.04019 40.8907 4.95306 41.2101 4.93248 41.5725C4.9074 41.9322 4.95275 42.3282 5.06853 42.7603L5.86142 45.7194L13.5116 43.6695L13.2112 42.5486Z"
          fill="#1A1818" />
    <path d="M4.16204 32.6248L4.08288 34.1352L11.8521 37.219L11.916 35.9997L4.82502 33.2158L4.80401 33.6167L12.1475 31.5838L12.2111 30.3699L4.16204 32.6248ZM10.1385 35.7634L10.3549 31.633L9.27841 31.5766L9.06195 35.7069L10.1385 35.7634Z"
          fill="#1A1818" />
    <path d="M8.37673 50.7425L9.17823 52.0251L17.3113 50.095L16.6642 49.0595L9.2588 50.8463L9.47156 51.1868L14.3209 45.3095L13.6768 44.2787L8.37673 50.7425ZM15.0726 49.8855L12.8808 46.378L11.9666 46.9492L14.1584 50.4568L15.0726 49.8855Z"
          fill="#1A1818" />
    <path d="M41.6196 38.648C41.6196 39.544 41.4596 40.348 41.1396 41.06C40.8276 41.772 40.3876 42.372 39.8196 42.86C39.2516 43.348 38.5756 43.72 37.7916 43.976C37.0076 44.232 36.1516 44.36 35.2236 44.36C34.4156 44.36 33.6356 44.256 32.8836 44.048C32.1396 43.84 31.4636 43.52 30.8556 43.088C30.2476 42.648 29.7276 42.08 29.2956 41.384C28.8716 40.688 28.5676 39.856 28.3836 38.888L31.3836 38.432C31.4876 38.928 31.6356 39.38 31.8276 39.788C32.0276 40.188 32.2836 40.524 32.5956 40.796C32.9076 41.068 33.2836 41.28 33.7236 41.432C34.1636 41.576 34.6836 41.648 35.2836 41.648C35.7796 41.648 36.2316 41.572 36.6396 41.42C37.0476 41.268 37.3956 41.06 37.6836 40.796C37.9716 40.532 38.1956 40.224 38.3556 39.872C38.5156 39.52 38.5956 39.148 38.5956 38.756C38.5956 37.844 38.2996 37.152 37.7076 36.68C37.1156 36.208 36.2876 35.972 35.2236 35.972H31.4076V33.248H35.2836C36.3076 33.248 37.2116 33.372 37.9956 33.62C38.7876 33.868 39.4516 34.228 39.9876 34.7C40.5236 35.164 40.9276 35.728 41.1996 36.392C41.4796 37.056 41.6196 37.808 41.6196 38.648ZM30.3636 26.72H40.4436V29.432H30.3636V26.72ZM30.1476 26.72H33.0396L32.4636 35.972H29.5596L30.1476 26.72Z"
          fill="#1A1818" />
</svg>