<svg width="51" height="13" viewBox="0 0 51 13" fill="none" xmlns="http://www.w3.org/2000/svg">
<path fill-rule="evenodd" clip-rule="evenodd" d="M25.8063 11.5533C25.8322 11.7268 25.8321 11.7269 25.8321 11.7269L25.8073 11.7305L25.7398 11.7405L25.4853 11.7772C25.2649 11.8088 24.9463 11.8535 24.5495 11.9071C23.7562 12.0142 22.6478 12.157 21.3846 12.2998C18.882 12.5828 15.6839 12.8766 13.1245 12.8766C10.5652 12.8766 7.36705 12.5828 4.86448 12.2998C3.60129 12.157 2.49284 12.0142 1.69963 11.9071C1.30278 11.8535 0.984174 11.8088 0.763811 11.7772L0.50927 11.7405L0.441829 11.7305L0.418946 11.7271C0.418946 11.7271 0.416748 11.7268 0.749545 9.50156L1.08222 7.27629L1.10072 7.27903L1.16115 7.28792L1.40069 7.32254C1.61066 7.35256 1.91765 7.3957 2.30183 7.44758C3.07071 7.5514 4.14613 7.6899 5.37011 7.82831C7.84187 8.10781 10.8313 8.37656 13.1245 8.37656C15.4178 8.37656 18.4072 8.10781 20.879 7.82831C22.103 7.6899 23.1784 7.5514 23.9473 7.44758C24.3314 7.3957 24.6384 7.35256 24.8484 7.32254L25.0879 7.28792L25.1484 7.27903L25.1662 7.27639L25.1928 7.44971C25.1669 7.27628 25.1662 7.27639 25.1662 7.27639L25.1918 7.27258L25.2593 7.26266L25.5138 7.22586C25.7342 7.19436 26.0528 7.1496 26.4496 7.09601C27.2428 6.9889 28.3513 6.84615 29.6145 6.70331C32.117 6.42031 35.3152 6.12656 37.8745 6.12656C40.4339 6.12656 43.632 6.42031 46.1346 6.70331C47.3978 6.84615 48.5062 6.9889 49.2995 7.09601C49.6963 7.1496 50.0149 7.19436 50.2353 7.22586L50.4898 7.26266L50.5573 7.27258L50.5801 7.27598C50.5801 7.27598 50.5823 7.2763 50.2495 9.50156L49.9169 11.7268L49.8984 11.7241L49.8379 11.7152L49.5984 11.6806C49.3884 11.6506 49.0814 11.6074 48.6973 11.5555C47.9284 11.4517 46.853 11.3132 45.629 11.1748C43.1572 10.8953 40.1678 10.6266 37.8745 10.6266C35.5813 10.6266 32.5919 10.8953 30.1201 11.1748C28.8961 11.3132 27.8207 11.4517 27.0518 11.5555C26.6676 11.6074 26.3607 11.6506 26.1507 11.6806L25.9111 11.7152L25.8507 11.7241L25.8321 11.7269L25.8063 11.5533Z" fill="black"/>
<path fill-rule="evenodd" clip-rule="evenodd" d="M8.00266 1.87812L3.50266 10.8781L2.49643 10.375L6.99643 1.375L8.00266 1.87812Z" fill="black"/>
<path fill-rule="evenodd" clip-rule="evenodd" d="M42.9964 0.753115L47.4964 9.75312L48.5027 9.25L44.0027 0.25L42.9964 0.753115Z" fill="black"/>
<path fill-rule="evenodd" clip-rule="evenodd" d="M12.5027 1.87812L8.00266 10.8781L6.99643 10.375L11.4964 1.375L12.5027 1.87812Z" fill="black"/>
<path fill-rule="evenodd" clip-rule="evenodd" d="M38.4964 0.753115L42.9964 9.75312L44.0027 9.25L39.5027 0.25L38.4964 0.753115Z" fill="black"/>
<path fill-rule="evenodd" clip-rule="evenodd" d="M17.0027 1.87812L12.5027 10.8781L11.4964 10.375L15.9964 1.375L17.0027 1.87812Z" fill="black"/>
<path fill-rule="evenodd" clip-rule="evenodd" d="M33.9964 0.753115L38.4964 9.75312L39.5027 9.25L35.0027 0.25L33.9964 0.753115Z" fill="black"/>
<path fill-rule="evenodd" clip-rule="evenodd" d="M21.5027 1.87812L17.0027 10.8781L15.9964 10.375L20.4964 1.375L21.5027 1.87812Z" fill="black"/>
<path fill-rule="evenodd" clip-rule="evenodd" d="M29.4964 0.753115L33.9964 9.75312L35.0027 9.25L30.5027 0.25L29.4964 0.753115Z" fill="black"/>
<path fill-rule="evenodd" clip-rule="evenodd" d="M26.0027 1.87812L21.5027 10.8781L20.4964 10.375L24.9964 1.375L26.0027 1.87812Z" fill="black"/>
<path fill-rule="evenodd" clip-rule="evenodd" d="M24.9964 0.753115L29.4964 9.75312L30.5027 9.25L26.0027 0.25L24.9964 0.753115Z" fill="black"/>
<path fill-rule="evenodd" clip-rule="evenodd" d="M30.5027 0.753115L26.0027 9.75312L24.9964 9.25L29.4964 0.25L30.5027 0.753115Z" fill="black"/>
<path fill-rule="evenodd" clip-rule="evenodd" d="M20.4964 1.87812L24.9964 10.8781L26.0027 10.375L21.5027 1.375L20.4964 1.87812Z" fill="black"/>
<path fill-rule="evenodd" clip-rule="evenodd" d="M35.0027 0.753115L30.5027 9.75312L29.4964 9.25L33.9964 0.25L35.0027 0.753115Z" fill="black"/>
<path fill-rule="evenodd" clip-rule="evenodd" d="M15.9964 1.87812L20.4964 10.8781L21.5027 10.375L17.0027 1.375L15.9964 1.87812Z" fill="black"/>
<path fill-rule="evenodd" clip-rule="evenodd" d="M39.5027 0.753115L35.0027 9.75312L33.9964 9.25L38.4964 0.25L39.5027 0.753115Z" fill="black"/>
<path fill-rule="evenodd" clip-rule="evenodd" d="M11.4964 1.87812L15.9964 10.8781L17.0027 10.375L12.5027 1.375L11.4964 1.87812Z" fill="black"/>
<path fill-rule="evenodd" clip-rule="evenodd" d="M44.0027 0.753115L39.5027 9.75312L38.4964 9.25L42.9964 0.25L44.0027 0.753115Z" fill="black"/>
<path fill-rule="evenodd" clip-rule="evenodd" d="M6.99643 1.87812L11.4964 10.8781L12.5027 10.375L8.00266 1.375L6.99643 1.87812Z" fill="black"/>
<path fill-rule="evenodd" clip-rule="evenodd" d="M48.5027 0.753115L44.0027 9.75312L42.9964 9.25L47.4964 0.25L48.5027 0.753115Z" fill="black"/>
<path fill-rule="evenodd" clip-rule="evenodd" d="M2.49643 1.87812L6.99643 10.8781L8.00266 10.375L3.50266 1.375L2.49643 1.87812Z" fill="black"/>
</svg>
