<svg width="32"
     height="32"
     viewBox="0 0 32 32"
     fill="none"
     xmlns="http://www.w3.org/2000/svg">
    <path d="M8 9H23V10H8V9Z"
          fill="#1A1818" />
    <path d="M12 7H19V8H12V7Z"
          fill="#1A1818" />
    <path d="M9 24H22V25H9V24Z"
          fill="#1A1818" />
    <path d="M12 7H13V10H12V7Z"
          fill="#1A1818" />
    <path d="M18 7H19V10H18V7Z"
          fill="#1A1818" />
    <path d="M9 10H10V24H9V10Z"
          fill="#1A1818" />
    <path d="M21 10H22V24H21V10Z"
          fill="#1A1818" />
    <path d="M12 13H13V21H12V13Z"
          fill="#1A1818" />
    <path d="M18 13H19V21H18V13Z"
          fill="#1A1818" />
    <path d="M15 12H16V22H15V12Z"
          fill="#1A1818" />
    <path fill-rule="evenodd"
          clip-rule="evenodd"
          d="M11.8 6.7998H19.2V8.7998H23.2V10.1998H22.2V25.1998H8.80005V10.1998H7.80005V8.7998H11.8V6.7998ZM12.2 8.1998V8.7998H12.8V8.1998H12.2ZM13.2 8.1998V8.7998H17.8V8.1998H13.2ZM17.8 7.7998H13.2V7.1998H17.8V7.7998ZM18.2 8.1998V8.7998H18.8V8.1998H18.2ZM18.8 7.7998V7.1998H18.2V7.7998H18.8ZM18.8 9.1998H18.2V9.7998H18.8V9.1998ZM10.2 10.1998V23.7998H20.8V10.1998H10.2ZM19.2 9.7998V9.1998H22.8V9.7998H19.2ZM21.2 10.1998V23.7998H21.8V10.1998H21.2ZM21.8 24.1998H9.20005V24.7998H21.8V24.1998ZM9.20005 23.7998H9.80005V10.1998H9.20005V23.7998ZM11.8 9.7998V9.1998H8.20005V9.7998H11.8ZM12.2 9.1998V9.7998H12.8V9.1998H12.2ZM13.2 9.1998V9.7998H17.8V9.1998H13.2ZM12.8 7.1998H12.2V7.7998H12.8V7.1998ZM14.8 11.7998H16.2V22.1998H14.8V11.7998ZM15.2 12.1998V21.7998H15.8V12.1998H15.2ZM11.8 12.7998H13.2V21.1998H11.8V12.7998ZM12.2 13.1998V20.7998H12.8V13.1998H12.2ZM17.8 12.7998H19.2V21.1998H17.8V12.7998ZM18.2 13.1998V20.7998H18.8V13.1998H18.2Z"
          fill="#1A1818" />
</svg>