<svg width="32"
     height="32"
     viewBox="0 0 32 32"
     fill="none"
     xmlns="http://www.w3.org/2000/svg">
    <path fill-rule="evenodd"
          clip-rule="evenodd"
          d="M10.25 8.25H22V19.5H8.25V18H20.5V9.75H10.25V8.25Z"
          fill="#1A1818" />
    <path fill-rule="evenodd"
          clip-rule="evenodd"
          d="M20.5 12H24.5607L27.25 14.6893V19.5H20.5V12ZM22 13.5V18H25.75V15.3107L23.9393 13.5H22Z"
          fill="#1A1818" />
    <path fill-rule="evenodd"
          clip-rule="evenodd"
          d="M12.375 19.5C11.7537 19.5 11.25 20.0037 11.25 20.625C11.25 21.2463 11.7537 21.75 12.375 21.75C12.9963 21.75 13.5 21.2463 13.5 20.625C13.5 20.0037 12.9963 19.5 12.375 19.5ZM9.75 20.625C9.75 19.1753 10.9253 18 12.375 18C13.8247 18 15 19.1753 15 20.625C15 22.0747 13.8247 23.25 12.375 23.25C10.9253 23.25 9.75 22.0747 9.75 20.625Z"
          fill="#1A1818" />
    <path fill-rule="evenodd"
          clip-rule="evenodd"
          d="M23.125 19.5C22.5037 19.5 22 20.0037 22 20.625C22 21.2463 22.5037 21.75 23.125 21.75C23.7463 21.75 24.25 21.2463 24.25 20.625C24.25 20.0037 23.7463 19.5 23.125 19.5ZM20.5 20.625C20.5 19.1753 21.6753 18 23.125 18C24.5747 18 25.75 19.1753 25.75 20.625C25.75 22.0747 24.5747 23.25 23.125 23.25C21.6753 23.25 20.5 22.0747 20.5 20.625Z"
          fill="#1A1818" />
    <path fill-rule="evenodd"
          clip-rule="evenodd"
          d="M13.5 12.5H7V11.5H13.5V12.5Z"
          fill="#1A1818" />
    <path fill-rule="evenodd"
          clip-rule="evenodd"
          d="M12.5 14.5H6V13.5H12.5V14.5Z"
          fill="#1A1818" />
    <path fill-rule="evenodd"
          clip-rule="evenodd"
          d="M11.5 16.5H5V15.5H11.5V16.5Z"
          fill="#1A1818" />
</svg>