<svg width="18"
     height="14"
     viewBox="0 0 18 14"
     fill="none"
     xmlns="http://www.w3.org/2000/svg">
    <path d="M17.125 2.06305C16.5207 2.32812 15.8768 2.50383 15.2055 2.58914C15.8961 2.1768 16.4232 1.52883 16.671 0.747812C16.0271 1.13172 15.3162 1.40289 14.5585 1.55422C13.9471 0.903203 13.0757 0.5 12.1251 0.5C10.2807 0.5 8.79586 1.99703 8.79586 3.83227C8.79586 4.09633 8.8182 4.35023 8.87305 4.59195C6.10344 4.45687 3.65273 3.12945 2.00641 1.10734C1.71898 1.60602 1.55039 2.1768 1.55039 2.79125C1.55039 3.945 2.14453 4.96773 3.03016 5.55984C2.49492 5.54969 1.96984 5.3943 1.525 5.14953C1.525 5.15969 1.525 5.17289 1.525 5.18609C1.525 6.805 2.67977 8.14969 4.19406 8.45945C3.92289 8.53359 3.62734 8.56914 3.32063 8.56914C3.10734 8.56914 2.89203 8.55695 2.68992 8.51227C3.12156 9.83156 4.34641 10.8015 5.80281 10.833C4.66938 11.7196 3.23023 12.2538 1.67227 12.2538C1.39906 12.2538 1.13703 12.2416 0.875 12.2081C2.3507 13.1598 4.09961 13.7031 5.98563 13.7031C12.1159 13.7031 15.4675 8.625 15.4675 4.22328C15.4675 4.07602 15.4624 3.93383 15.4553 3.79266C16.1165 3.32344 16.672 2.73742 17.125 2.06305Z"
          fill="#1A1818" />
</svg>