<svg width="16" height="19" viewBox="0 0 16 19" fill="none" xmlns="http://www.w3.org/2000/svg">
<path fill-rule="evenodd" clip-rule="evenodd" d="M9.87966 8.621C10.5673 7.60578 11 6.24447 11 5C11 3.81902 10.6168 3.13138 10.1785 2.72651C9.71435 2.29779 8.98382 2 8 2C7.01618 2 6.28565 2.29779 5.82152 2.72651C5.38321 3.13138 5 3.81902 5 5C5 6.24447 5.43266 7.60578 6.12034 8.621C6.83529 9.67648 7.55238 10 8 10C8.44762 10 9.16471 9.67648 9.87966 8.621ZM8 12C10.7614 12 13 8.31371 13 5C13 1.68629 10.7614 0 8 0C5.23858 0 3 1.68629 3 5C3 8.31371 5.23858 12 8 12Z" fill="currentColor"/>
<path fill-rule="evenodd" clip-rule="evenodd" d="M13.7487 17C13.683 16.7443 13.6048 16.4928 13.5142 16.2469C13.195 15.3798 12.7321 14.6061 12.162 13.9648C11.5924 13.3239 10.9289 12.8298 10.2167 12.4979C9.5054 12.1665 8.75296 12 8 12C7.24704 12 6.4946 12.1665 5.7833 12.4979C5.07107 12.8298 4.40765 13.3239 3.83796 13.9648C3.26788 14.6061 2.80503 15.3798 2.48579 16.2469C2.39525 16.4928 2.31699 16.7443 2.25133 17H13.7487ZM15.8 17C15.7002 16.5077 15.5636 16.0246 15.391 15.5558C14.989 14.4639 14.3997 13.4718 13.6569 12.636C12.914 11.8003 12.0321 11.1374 11.0615 10.6851C10.0909 10.2328 9.05058 10 8 10C6.94943 10 5.90914 10.2328 4.93853 10.6851C3.96793 11.1374 3.08601 11.8003 2.34315 12.636C1.60028 13.4718 1.011 14.4639 0.608963 15.5558C0.436392 16.0246 0.29977 16.5077 0.200031 17C0.0674094 17.6546 0 18.3254 0 19H16C16 18.3254 15.9326 17.6546 15.8 17Z" fill="currentColor"/>
</svg>
