<svg width="32"
     height="32"
     viewBox="0 0 32 32"
     fill="none"
     xmlns="http://www.w3.org/2000/svg">
    <path d="M16.5 17.44L17 11H15L15.5 17.44H16.5Z"
          fill="#DF4826" />
    <path d="M16.75 18.44H15.25V19.94H16.75V18.44Z"
          fill="#DF4826" />
    <path fill-rule="evenodd"
          clip-rule="evenodd"
          d="M16 23.8C20.3078 23.8 23.8 20.3078 23.8 16C23.8 11.6922 20.3078 8.2 16 8.2C11.6922 8.2 8.2 11.6922 8.2 16C8.2 20.3078 11.6922 23.8 16 23.8ZM16 25C20.9706 25 25 20.9706 25 16C25 11.0294 20.9706 7 16 7C11.0294 7 7 11.0294 7 16C7 20.9706 11.0294 25 16 25Z"
          fill="#DF4826" />
</svg>