<svg width="46"
     height="46"
     viewBox="0 0 46 46"
     fill="none"
     xmlns="http://www.w3.org/2000/svg">
    <path fill-rule="evenodd"
          clip-rule="evenodd"
          d="M38.9436 7.07105C34.7134 2.83588 29.0875 0.502484 23.0941 0.5C10.7441 0.5 0.692909 10.5509 0.687942 22.9042C0.686286 26.8532 1.71789 30.7081 3.67872 34.1059L0.5 45.7164L12.3779 42.6006C15.6507 44.3859 19.3353 45.3267 23.085 45.3278H23.0944C35.4431 45.3278 45.4953 35.2761 45.5 22.9222C45.5025 16.9351 43.1741 11.3059 38.9436 7.07105ZM23.0941 41.5438H23.0864C19.7448 41.5425 16.4676 40.6444 13.6079 38.948L12.9282 38.5442L5.87965 40.3933L7.761 33.5211L7.31806 32.8166C5.45382 29.8514 4.4694 26.4243 4.47106 22.9056C4.47492 12.6378 12.8294 4.28422 23.1016 4.28422C28.0758 4.28588 32.7517 6.22546 36.2677 9.74557C39.7837 13.2657 41.7188 17.9446 41.7172 22.9208C41.7127 33.1894 33.3589 41.5438 23.0941 41.5438ZM33.3092 27.5961C32.7495 27.3158 29.9969 25.9618 29.4836 25.7747C28.9708 25.5879 28.5971 25.4948 28.2243 26.0551C27.8509 26.6153 26.7782 27.8765 26.4514 28.2499C26.1246 28.6236 25.7984 28.6705 25.2385 28.3901C24.6785 28.11 22.8747 27.5186 20.7361 25.6113C19.072 24.1268 17.9485 22.2935 17.6217 21.7333C17.2955 21.1725 17.619 20.8987 17.8673 20.5907C18.4734 19.8381 19.0803 19.0491 19.2668 18.6757C19.4537 18.302 19.3601 17.975 19.2199 17.6949C19.0803 17.4147 17.9606 14.6591 17.4942 13.5378C17.0394 12.4466 16.5783 12.5939 16.2344 12.5768C15.9082 12.5605 15.5348 12.5572 15.1614 12.5572C14.7883 12.5572 14.1817 12.6972 13.6683 13.2579C13.1553 13.8185 11.7092 15.1727 11.7092 17.9283C11.7092 20.684 13.7152 23.3461 13.9951 23.7198C14.2749 24.0934 17.943 29.7482 23.5589 32.173C24.8946 32.7503 25.9372 33.0945 26.7506 33.3525C28.0918 33.7786 29.3119 33.7185 30.2767 33.5744C31.3525 33.4135 33.5888 32.2199 34.0557 30.9123C34.5221 29.6044 34.5221 28.4837 34.3819 28.2499C34.2423 28.0165 33.8689 27.8765 33.3092 27.5961Z"
          fill="#1A1818" />
</svg>