<svg width="70"
     height="70"
     viewBox="0 0 70 70"
     fill="none"
     xmlns="http://www.w3.org/2000/svg">
    <path d="M34.4237 12V8.7275L31.7397 4.08H33.0817L35.0012 7.4075L36.9207 4.08H38.2627L35.5842 8.7275V12H34.4237Z"
          fill="#1A1818" />
    <path d="M43.2157 5.18162L41.7481 4.81571L37.2385 11.8538L38.4232 12.1492L42.509 5.71965L42.1195 5.62252L42.7139 13.219L43.8933 13.513L43.2157 5.18162ZM38.9944 10.4494L43.0076 11.45L43.2684 10.404L39.2552 9.4034L38.9944 10.4494Z"
          fill="#1A1818" />
    <path d="M49.41 8.82187L51.0145 9.82447C51.2322 9.96049 51.4059 10.108 51.5357 10.2669C51.6656 10.4259 51.755 10.5942 51.804 10.7718C51.8549 10.9463 51.8623 11.1282 51.8262 11.3175C51.79 11.5067 51.7108 11.6993 51.5884 11.8952C51.466 12.0911 51.3266 12.2484 51.1704 12.3669C51.0161 12.4824 50.8484 12.557 50.6673 12.5908C50.4881 12.6216 50.2986 12.6134 50.0989 12.5664C49.901 12.5163 49.6933 12.4232 49.4756 12.2872L47.8711 11.2846L49.41 8.82187ZM48.7117 16.447L49.8498 17.1581L49.7701 12.9576L48.6396 12.556L48.7117 16.447ZM45.7872 14.6195L47.294 12.2081L48.9079 13.2166C49.2872 13.4536 49.6526 13.6127 50.0039 13.6939C50.3584 13.7771 50.6894 13.7871 50.9968 13.7242C51.3093 13.66 51.5978 13.5269 51.8625 13.3247C52.1291 13.1195 52.3673 12.8489 52.5772 12.5131C52.787 12.1773 52.9248 11.8461 52.9904 11.5196C53.0561 11.1932 53.0493 10.8754 52.9699 10.5664C52.8937 10.2594 52.7396 9.96637 52.5075 9.68733C52.2805 9.40712 51.9774 9.14849 51.598 8.91144L49 7.28804L44.803 14.0046L45.7872 14.6195Z"
          fill="#1A1818" />
    <path d="M50.8528 18.3258L56.4531 12.7255L57.2737 13.5461L51.6734 19.1464L50.8528 18.3258Z"
          fill="#1A1818" />
    <path d="M55.0046 23.5487L57.5603 22.3022L58.3946 24.0126C58.5907 24.4146 58.8162 24.7432 59.0711 24.9982C59.3277 25.2566 59.603 25.4405 59.8971 25.55C60.1961 25.6612 60.5114 25.7012 60.8429 25.67C61.1778 25.6372 61.5232 25.5341 61.8791 25.3605C62.235 25.1869 62.5273 24.979 62.756 24.737C62.9847 24.4949 63.1473 24.2218 63.2437 23.9177C63.3418 23.617 63.3664 23.2868 63.3175 22.9272C63.2734 22.5692 63.1534 22.1892 62.9573 21.7872L61.6143 19.0337L54.4959 22.5056L55.0046 23.5487ZM61.1492 20.5518L61.9786 22.2523C62.0911 22.483 62.1603 22.7001 62.1862 22.9037C62.2121 23.1073 62.1987 23.2974 62.1461 23.474C62.0969 23.649 62.0067 23.8071 61.8758 23.9485C61.7449 24.0899 61.5756 24.2112 61.3679 24.3125C61.1603 24.4137 60.9589 24.4732 60.7635 24.491C60.5715 24.5071 60.3897 24.4816 60.2182 24.4143C60.05 24.3454 59.8936 24.2381 59.7491 24.0923C59.6079 23.945 59.481 23.756 59.3685 23.5253L58.5391 21.8248L61.1492 20.5518Z"
          fill="#1A1818" />
    <path d="M64.0963 28.1919L64.4249 30.0551C64.4695 30.3079 64.4761 30.5357 64.4449 30.7385C64.4136 30.9414 64.3484 31.1204 64.2492 31.2757C64.1536 31.4303 64.0233 31.5575 63.8585 31.6573C63.6937 31.7571 63.4975 31.8271 63.27 31.8672C63.0425 31.9073 62.8325 31.909 62.6398 31.8722C62.4508 31.8348 62.2831 31.7601 62.1368 31.6481C61.994 31.5355 61.8733 31.3893 61.7746 31.2094C61.6794 31.0288 61.6096 30.8122 61.565 30.5594L61.2365 28.6961L64.0963 28.1919ZM57.9625 32.7751L58.1956 34.0967L61.2638 31.2268L60.8058 30.118L57.9625 32.7751ZM57.3637 29.379L60.164 28.8852L60.4945 30.7593C60.5721 31.1999 60.6984 31.5778 60.8731 31.8933C61.0485 32.2123 61.2625 32.465 61.515 32.6513C61.7718 32.8406 62.0638 32.966 62.3911 33.0274C62.722 33.0882 63.0825 33.0842 63.4725 33.0155C63.8625 32.9467 64.2007 32.8275 64.4873 32.6578C64.7739 32.4881 65.0054 32.2705 65.1819 32.0048C65.3591 31.7427 65.4738 31.4321 65.5259 31.0729C65.5822 30.7167 65.5715 30.3183 65.4938 29.8778L64.9619 26.8608L57.1622 28.2361L57.3637 29.379Z"
          fill="#1A1818" />
    <path d="M57.6642 37.7872C57.5923 38.3732 57.6262 38.9093 57.766 39.3956C57.9094 39.8824 58.1418 40.3062 58.4632 40.6671C58.7847 41.0279 59.1864 41.3211 59.6685 41.5465C60.1502 41.7756 60.6949 41.9274 61.3027 42.0021C61.9105 42.0767 62.4758 42.0611 62.9985 41.9554C63.5209 41.8533 63.9816 41.666 64.3808 41.3937C64.78 41.1213 65.1062 40.766 65.3595 40.328C65.6164 39.8904 65.7808 39.3786 65.8528 38.7927C65.9251 38.2031 65.8896 37.6649 65.7462 37.1781C65.606 36.6955 65.3752 36.2737 65.0538 35.9128C64.7323 35.552 64.3308 35.257 63.8491 35.0279C63.3675 34.7988 62.8227 34.647 62.215 34.5724C61.6072 34.4977 61.0419 34.5133 60.5191 34.619C59.9963 34.7248 59.5354 34.9138 59.1362 35.1862C58.737 35.4586 58.4092 35.8118 58.1527 36.2458C57.8995 36.6838 57.7366 37.1977 57.6642 37.7872ZM58.7506 37.9206C58.802 37.5021 58.9181 37.1432 59.0989 36.844C59.2829 36.5489 59.5186 36.3137 59.8061 36.1385C60.0973 35.9637 60.4349 35.8463 60.8191 35.7863C61.2028 35.73 61.6185 35.7293 62.0662 35.7843C62.517 35.8433 62.9199 35.9464 63.275 36.0934C63.6333 36.2445 63.9307 36.4399 64.1672 36.6795C64.4074 36.9196 64.5793 37.2048 64.6828 37.5352C64.7899 37.8661 64.8178 38.2407 64.7664 38.6593C64.715 39.0778 64.5973 39.4346 64.4133 39.7297C64.233 40.0253 63.9972 40.2605 63.7061 40.4353C63.4186 40.6106 63.0829 40.7263 62.6992 40.7827C62.3187 40.8431 61.9028 40.8456 61.4515 40.7902C61.0039 40.7352 60.6009 40.6322 60.2427 40.481C59.884 40.3336 59.5845 40.1398 59.3443 39.8997C59.1078 39.6601 58.9359 39.3749 58.8288 39.044C58.7253 38.7136 58.6992 38.3391 58.7506 37.9206Z"
          fill="#1A1818" />
    <path d="M35.5763 58L35.5763 61.2725L38.2603 65.92L36.9183 65.92L34.9988 62.5925L33.0793 65.92L31.7373 65.92L34.4158 61.2725L34.4158 58L35.5763 58Z"
          fill="#1A1818" />
    <path d="M26.7843 64.8184L28.2519 65.1843L32.7615 58.1462L31.5768 57.8508L27.491 64.2804L27.8805 64.3775L27.2861 56.781L26.1067 56.487L26.7843 64.8184ZM31.0056 59.5506L26.9924 58.55L26.7316 59.596L30.7448 60.5966L31.0056 59.5506Z"
          fill="#1A1818" />
    <path d="M20.59 61.1781L18.9855 60.1755C18.7678 60.0395 18.5941 59.892 18.4643 59.7331C18.3344 59.5741 18.245 59.4058 18.196 59.2282C18.1451 59.0537 18.1377 58.8718 18.1738 58.6825C18.21 58.4933 18.2892 58.3007 18.4116 58.1048C18.534 57.9089 18.6734 57.7516 18.8296 57.6331C18.9839 57.5176 19.1516 57.443 19.3327 57.4092C19.5119 57.3784 19.7014 57.3866 19.9011 57.4336C20.099 57.4837 20.3067 57.5768 20.5244 57.7128L22.1289 58.7154L20.59 61.1781ZM21.2883 53.553L20.1502 52.8419L20.2299 57.0424L21.3604 57.444L21.2883 53.553ZM24.2128 55.3805L22.706 57.7919L21.0921 56.7834C20.7128 56.5464 20.3474 56.3873 19.9961 56.3061C19.6416 56.2229 19.3106 56.2129 19.0032 56.2758C18.6907 56.34 18.4022 56.4731 18.1375 56.6753C17.8709 56.8805 17.6327 57.1511 17.4228 57.4869C17.213 57.8227 17.0752 58.1539 17.0096 58.4804C16.9439 58.8068 16.9507 59.1246 17.0301 59.4336C17.1063 59.7406 17.2604 60.0336 17.4925 60.3127C17.7195 60.5929 18.0226 60.8515 18.402 61.0886L21 62.712L25.197 55.9954L24.2128 55.3805Z"
          fill="#1A1818" />
    <path d="M19.1472 51.6742L13.5469 57.2745L12.7263 56.4539L18.3266 50.8536L19.1472 51.6742Z"
          fill="#1A1818" />
    <path d="M14.9954 46.4513L12.4397 47.6978L11.6054 45.9874C11.4093 45.5854 11.1838 45.2568 10.9289 45.0018C10.6723 44.7434 10.397 44.5595 10.1029 44.45C9.80392 44.3388 9.48864 44.2988 9.15708 44.33C8.82222 44.3628 8.47683 44.4659 8.12091 44.6395C7.76499 44.8131 7.47268 45.021 7.244 45.263C7.01531 45.5051 6.85273 45.7782 6.75626 46.0823C6.65818 46.383 6.6336 46.7132 6.68253 47.0728C6.72656 47.4308 6.84662 47.8108 7.04272 48.2128L8.38567 50.9663L15.5041 47.4944L14.9954 46.4513ZM8.85078 49.4482L8.02138 47.7477C7.90887 47.517 7.83968 47.2999 7.81381 47.0963C7.78794 46.8927 7.80129 46.7026 7.85387 46.526C7.90315 46.351 7.99326 46.1929 8.12421 46.0515C8.25515 45.9101 8.42443 45.7888 8.63205 45.6875C8.83967 45.5863 9.04114 45.5268 9.23646 45.509C9.42849 45.4929 9.61026 45.5184 9.78178 45.5857C9.95001 45.6546 10.1064 45.7619 10.2509 45.9077C10.3921 46.055 10.519 46.244 10.6315 46.4747L11.4609 48.1752L8.85078 49.4482Z"
          fill="#1A1818" />
    <path d="M5.90365 41.8081L5.57511 39.9449C5.53054 39.6921 5.52388 39.4643 5.55513 39.2615C5.58638 39.0586 5.65162 38.8796 5.75083 38.7243C5.84643 38.5697 5.97666 38.4425 6.1415 38.3427C6.30634 38.2429 6.5025 38.1729 6.72999 38.1328C6.95748 38.0927 7.16755 38.091 7.3602 38.1278C7.54923 38.1652 7.71691 38.2399 7.86324 38.3519C8.00596 38.4645 8.1267 38.6107 8.22544 38.7906C8.32057 38.9712 8.39042 39.1879 8.43499 39.4406L8.76353 41.3039L5.90365 41.8081ZM12.0375 37.2249L11.8044 35.9033L8.73617 38.7732L9.19417 39.882L12.0375 37.2249ZM12.6363 40.621L9.83599 41.1148L9.50554 39.2407C9.42786 38.8001 9.30164 38.4222 9.12687 38.1067C8.95147 37.7877 8.73751 37.535 8.48498 37.3487C8.22821 37.1594 7.93618 37.034 7.60887 36.9726C7.27795 36.9118 6.9175 36.9158 6.52752 36.9845C6.13753 37.0533 5.79926 37.1725 5.51271 37.3422C5.22615 37.5119 4.9946 37.7295 4.81805 37.9952C4.64087 38.2573 4.52624 38.5679 4.47415 38.9271C4.41781 39.2833 4.42848 39.6817 4.50616 40.1222L5.03813 43.1392L12.8378 41.7639L12.6363 40.621Z"
          fill="#1A1818" />
    <path d="M12.3358 32.2128C12.4077 31.6268 12.3738 31.0907 12.234 30.6044C12.0906 30.1176 11.8582 29.6938 11.5368 29.3329C11.2153 28.9721 10.8136 28.6789 10.3315 28.4535C9.84978 28.2244 9.30506 28.0726 8.69729 27.9979C8.08952 27.9233 7.52425 27.9389 7.00146 28.0446C6.47913 28.1467 6.01837 28.334 5.6192 28.6063C5.22003 28.8787 4.89381 29.234 4.64053 29.672C4.38362 30.1096 4.21919 30.6214 4.14725 31.2073C4.07486 31.7969 4.11037 32.3351 4.25378 32.8219C4.394 33.3045 4.62482 33.7263 4.94624 34.0872C5.26766 34.448 5.6692 34.743 6.15087 34.9721C6.63255 35.2012 7.17727 35.353 7.78504 35.4276C8.39281 35.5023 8.95808 35.4867 9.48087 35.381C10.0037 35.2752 10.4646 35.0862 10.8638 34.8138C11.263 34.5414 11.5908 34.1882 11.8473 33.7542C12.1005 33.3162 12.2634 32.8023 12.3358 32.2128ZM11.2494 32.0794C11.198 32.4979 11.0819 32.8568 10.9011 33.156C10.7171 33.4511 10.4814 33.6863 10.1939 33.8615C9.90271 34.0363 9.56506 34.1537 9.18088 34.2137C8.79716 34.27 8.38148 34.2707 7.93384 34.2157C7.48301 34.1567 7.08006 34.0536 6.725 33.9066C6.36675 33.7555 6.06934 33.5601 5.83278 33.3205C5.59258 33.0804 5.42073 32.7952 5.31722 32.4648C5.21008 32.1339 5.1822 31.7593 5.23359 31.3407C5.28498 30.9222 5.40267 30.5654 5.58668 30.2703C5.76704 29.9747 6.00279 29.7395 6.29393 29.5647C6.58144 29.3894 6.91705 29.2737 7.30078 29.2173C7.68131 29.1569 8.09721 29.1544 8.54849 29.2098C8.99613 29.2648 9.39907 29.3678 9.75733 29.519C10.116 29.6664 10.4155 29.8602 10.6557 30.1003C10.8922 30.3399 11.0641 30.6251 11.1712 30.956C11.2747 31.2864 11.3008 31.6609 11.2494 32.0794Z"
          fill="#1A1818" />
</svg>