<svg width="32"
     height="32"
     viewBox="0 0 32 32"
     fill="none"
     xmlns="http://www.w3.org/2000/svg">
    <path d="M27.5261 10.5198C27.2611 9.53451 26.4842 8.75778 25.499 8.49246C23.6992 8 16.4997 8 16.4997 8C16.4997 8 9.30058 8 7.50075 8.47379C6.53451 8.73883 5.73869 9.53465 5.47365 10.5198C5 12.3195 5 16.0518 5 16.0518C5 16.0518 5 19.803 5.47365 21.5838C5.73897 22.569 6.51555 23.3458 7.50089 23.6111C9.31953 24.1037 16.5 24.1037 16.5 24.1037C16.5 24.1037 23.6992 24.1037 25.499 23.6299C26.4843 23.3647 27.2611 22.588 27.5264 21.6028C27.9999 19.803 27.9999 16.0708 27.9999 16.0708C27.9999 16.0708 28.0189 12.3195 27.5261 10.5198ZM14.2076 19.4999V12.6038L20.1943 16.0518L14.2076 19.4999Z"
          fill="#1A1818" />
</svg>