<svg width="1490" height="180" viewBox="0 0 1490 180" fill="none" xmlns="http://www.w3.org/2000/svg">
<path fill-rule="evenodd" clip-rule="evenodd" d="M1452.25 30.5H1426.5V18.5H1490V30.5H1464.25V100.5H1452.25V30.5Z" fill="#D72027"/>
<path fill-rule="evenodd" clip-rule="evenodd" d="M1026.3 21.9C1030.97 18.3948 1036.66 16.5 1042.5 16.5H1042.78C1048.36 16.5 1053.82 18.1786 1058.43 21.3178L1065.37 26.0384L1058.63 35.9615L1051.68 31.2409C1049.06 29.455 1045.95 28.5 1042.78 28.5H1042.5C1039.25 28.5 1036.1 29.5527 1033.5 31.5L1031.36 33.1019C1028.93 34.9263 1027.5 37.7895 1027.5 40.8302C1027.5 43.0901 1028.29 45.2785 1029.74 47.0146L1030.64 48.0925C1031.99 49.7172 1033.71 51.0021 1035.65 51.8441L1052.95 59.3546C1057.38 61.2763 1061.04 64.6273 1063.34 68.8719C1066.75 75.1696 1066.81 82.7496 1063.51 89.1041L1063.29 89.5252C1061.1 93.7309 1057.64 97.1373 1053.4 99.2573L1052.39 99.7611C1048.79 101.562 1044.82 102.5 1040.79 102.5H1039.35C1032.29 102.5 1025.42 100.165 1019.82 95.8571L1013.84 91.2558L1021.16 81.7443L1027.14 86.3456C1030.64 89.0394 1034.94 90.5 1039.35 90.5H1040.79C1042.96 90.5 1045.09 89.996 1047.03 89.028L1048.04 88.5242C1050.01 87.5363 1051.62 85.9488 1052.64 83.989L1052.86 83.5679C1054.33 80.7472 1054.3 77.3827 1052.79 74.5872C1051.77 72.7032 1050.14 71.2158 1048.18 70.3628L1030.87 62.8522C1027.21 61.2638 1023.97 58.8398 1021.42 55.7747L1020.52 54.6968C1017.28 50.8041 1015.5 45.8973 1015.5 40.8302C1015.5 34.0124 1018.71 27.5925 1024.16 23.5019L1026.3 21.9Z" fill="#D72027"/>
<path fill-rule="evenodd" clip-rule="evenodd" d="M1174.5 18.4161L1186.5 18.4161L1208.38 71.5526L1221.99 102.5L1208.38 102.477L1198.95 79.9161H1159.69L1150.29 102.477H1136.52L1150.29 71.5268L1174.5 18.4161ZM1164.85 67.9161H1193.86L1179.46 33.4031L1164.85 67.9161Z" fill="#D72027"/>
<path fill-rule="evenodd" clip-rule="evenodd" d="M1322.51 18.4161L1334.51 18.4161L1356.39 71.5526L1370 102.5L1356.39 102.477L1346.95 79.9161H1307.7L1298.3 102.477H1284.53L1298.3 71.5268L1322.51 18.4161ZM1312.86 67.9161H1341.87L1327.47 33.4031L1312.86 67.9161Z" fill="#D72027"/>
<path fill-rule="evenodd" clip-rule="evenodd" d="M23.6424 57.7438L69.5404 15.9357L54 16L12.677 51.5H12.5V16H0.5V103.5H12.5V63.5202L54 104.799H69.784L23.6424 57.7438Z" fill="black"/>
<path fill-rule="evenodd" clip-rule="evenodd" d="M172.5 103C196.524 103 216 83.5244 216 59.5C216 35.4756 196.524 16 172.5 16C148.476 16 129 35.4756 129 59.5C129 83.5244 148.476 103 172.5 103ZM172.5 92C189.345 92 203 77.4493 203 59.5C203 41.5508 189.345 27 172.5 27C155.655 27 142 41.5508 142 59.5C142 77.4493 155.655 92 172.5 92Z" fill="black"/>
<path fill-rule="evenodd" clip-rule="evenodd" d="M304 19H316L362 81.7209V19H374V100.5L362 100.5L316 37.7791V100.5H304V19Z" fill="black"/>
<path fill-rule="evenodd" clip-rule="evenodd" d="M486.5 65.9019L455.5 19H471.404L492.288 53.2834L515.5 19H529.037L498.5 65.7719V100.5H486.5V65.9019Z" fill="black"/>
<path fill-rule="evenodd" clip-rule="evenodd" d="M633.5 19.5L645.5 19.5L667.377 72.6365L680.992 103.584L667.377 103.561L657.947 81H618.692L609.29 103.561H595.518L609.29 72.6107L633.5 19.5ZM623.85 69H652.858L638.46 34.4869L623.85 69Z" fill="black"/>
<path fill-rule="evenodd" clip-rule="evenodd" d="M781 19.5H793V89.5H844.5V101.5H781V19.5Z" fill="black"/>
<path fill-rule="evenodd" clip-rule="evenodd" d="M918 101V19.5H930V101H918Z" fill="black"/>
<path fill-rule="evenodd" clip-rule="evenodd" d="M1360.5 133.5H1355.5V126.5H1367.5V166.5H1360.5V133.5Z" fill="black"/>
<path fill-rule="evenodd" clip-rule="evenodd" d="M1146 133.5H1141V126.5H1153V166.5H1146V133.5Z" fill="black"/>
<path fill-rule="evenodd" clip-rule="evenodd" d="M1285.11 127H1304.5V134H1290.89L1289.74 140H1291.48C1295.72 140 1299.72 141.924 1302.37 145.23C1306.22 150.049 1306.45 156.828 1302.92 161.894L1302.54 162.449C1299.9 166.24 1295.58 168.5 1290.96 168.5C1286.4 168.5 1282.13 166.3 1279.48 162.593L1277.65 160.034L1283.35 155.966L1285.18 158.524C1286.51 160.392 1288.66 161.5 1290.96 161.5C1293.28 161.5 1295.46 160.361 1296.79 158.452L1297.18 157.897C1298.93 155.375 1298.82 152.001 1296.9 149.603C1295.58 147.958 1293.59 147 1291.48 147H1281.26L1285.11 127Z" fill="black"/>
<path fill-rule="evenodd" clip-rule="evenodd" d="M1217.5 154C1225.51 154 1232 147.508 1232 139.5C1232 131.492 1225.51 125 1217.5 125C1209.49 125 1203 131.492 1203 139.5C1203 147.508 1209.49 154 1217.5 154ZM1217.5 147C1221.64 147 1225 143.642 1225 139.5C1225 135.358 1221.64 132 1217.5 132C1213.36 132 1210 135.358 1210 139.5C1210 143.642 1213.36 147 1217.5 147Z" fill="black"/>
<path fill-rule="evenodd" clip-rule="evenodd" d="M1229.51 147.79L1217.01 168.79L1210.99 165.21L1223.49 144.21L1229.51 147.79Z" fill="black"/>
<path fill-rule="evenodd" clip-rule="evenodd" d="M789 168C832.078 168 867 133.078 867 90C867 46.9218 832.078 12 789 12C745.922 12 711 46.9218 711 90C711 133.078 745.922 168 789 168ZM789 180C838.706 180 879 139.706 879 90C879 40.2944 838.706 0 789 0C739.294 0 699 40.2944 699 90C699 139.706 739.294 180 789 180Z" fill="#D72027"/>
</svg>
