<svg width="200" height="32" viewBox="0 0 200 32" fill="none" xmlns="http://www.w3.org/2000/svg">
<path d="M67.1451 9.58303C67.1875 9.32992 67.2724 9.0744 67.3148 8.86227C67.4409 8.14272 67.6518 7.46415 68.0324 6.87116C68.5391 6.06483 69.1719 5.47183 70.1016 5.17534C70.3974 5.09097 70.692 5.04758 71.0302 5.04758H81.546C82.4746 5.04758 83.3619 5.17534 84.2056 5.5562C85.0505 5.93827 85.6845 6.57345 86.1064 7.37978C86.5706 8.18491 86.7403 9.03222 86.7815 9.9651C86.824 10.8124 86.6555 11.6609 86.4858 12.5082C86.1488 14.0763 84.3329 22.6808 84.1632 23.3605C83.9099 24.1657 83.5304 24.9274 82.8964 25.5216C82.4746 25.9458 81.9267 26.2002 81.3763 26.3701C80.7432 26.5401 80.0902 26.6252 79.4344 26.6232H68.1585C67.2299 26.6232 66.3426 26.4545 65.4977 25.988C64.8385 25.6169 64.3084 25.0553 63.9776 24.3778C63.5133 23.5293 63.3448 22.5976 63.3024 21.6225C63.26 20.7318 63.8515 17.2136 64.2734 16.3229C64.991 14.797 66.1741 13.8642 67.7791 13.4411C68.6228 13.1868 69.5101 13.1446 70.3974 13.1446H79.8987C80.0684 13.1446 80.1096 13.1012 80.152 12.9747C80.2369 12.5082 80.3217 12.0418 80.3629 11.5332C80.4054 10.9824 80.2781 10.4725 79.8562 10.0917C79.518 9.79516 79.1386 9.6686 78.6743 9.62642C78.3786 9.58303 67.2287 9.58303 67.1451 9.58303ZM79.0962 17.5101H72.4654C72.2133 17.5101 72.0012 17.5101 71.7478 17.5523C71.1575 17.6367 70.6932 17.8488 70.3538 18.3586C69.8895 19.1216 69.7634 19.9689 69.7634 20.8596C69.7634 21.2404 69.8895 21.5791 70.1853 21.8768C70.4811 22.1299 70.8617 22.2155 71.2411 22.2155H76.7324C77.5761 22.2155 78.2089 21.7491 78.3786 20.944C78.5895 20.1388 78.7156 19.3325 78.8853 18.5274C78.9277 18.1887 79.0113 17.8488 79.0962 17.5101ZM11.9511 0.257812C10.8953 5.30189 9.79702 10.3038 8.74119 15.3479H8.78362L18.4546 5.59839C18.6337 5.40995 18.8499 5.2601 19.0897 5.15809C19.3295 5.05609 19.5878 5.00412 19.8486 5.00539H26.4781C26.3508 5.13315 17.6945 13.7376 17.103 14.3306C16.7648 14.6705 16.5114 15.0092 16.3853 15.4756C16.2156 16.112 16.3429 16.7472 16.7223 17.298C17.3139 18.2309 23.0149 26.581 23.0149 26.6666H16.7648C16.132 26.6666 15.6677 26.4123 15.3295 25.9037C14.0589 23.9329 12.778 21.9686 11.4868 20.0111C11.1911 20.2654 10.8528 20.4775 10.5571 20.7318C9.72146 21.4153 8.94458 22.1667 8.23449 22.9785C7.51687 23.7836 6.92531 24.6743 6.54589 25.6903C6.25012 26.3701 5.74341 26.7088 4.98215 26.7088H0C0.0848541 26.3701 4.98215 3.26738 5.23672 1.99582C5.2826 1.73041 5.36799 1.47328 5.49007 1.23288C5.78584 0.682069 6.25011 0.385572 6.84167 0.385572C8.53027 0.257812 11.9087 0.257812 11.9511 0.257812ZM130.574 31.3286C130.701 30.82 135.05 10.135 135.388 8.69353C135.599 7.80284 135.98 6.99771 136.613 6.36133C137.162 5.76833 137.88 5.38746 138.682 5.17534C139.189 5.04758 139.695 5.00539 140.202 5.00539H148.353C149.408 5.00539 150.422 5.08976 151.436 5.42965C153.505 6.10701 154.814 7.46415 155.321 9.58303C155.49 10.346 155.616 11.1523 155.659 11.9574C155.701 12.7625 155.701 13.5677 155.616 14.3318C155.489 15.2213 155.362 16.112 155.152 17.0015C154.898 18.3996 154.476 19.7568 153.969 21.0705C153.42 22.3843 152.66 23.5715 151.563 24.5055C150.844 25.1407 149.999 25.5638 149.113 25.9037C148.192 26.2466 147.223 26.4466 146.241 26.4967C145.439 26.5388 144.594 26.6244 143.75 26.6244H137.88C137.795 27.0909 137.289 29.464 137.119 30.1848C136.95 30.8634 136.317 31.372 135.642 31.372C133.952 31.372 130.615 31.3286 130.574 31.3286ZM138.893 21.919H143.243C143.539 21.919 143.876 21.8768 144.172 21.8768C145.101 21.7925 145.903 21.3682 146.621 20.6896C147.34 20.0111 147.804 19.1638 148.1 18.2309C148.395 17.3402 148.606 16.4085 148.817 15.4756C148.987 14.7127 149.113 13.9497 149.155 13.1446C149.198 12.5082 149.155 11.9152 148.901 11.321C148.649 10.6437 148.184 10.135 147.466 9.92292C147.013 9.79035 146.544 9.719 146.072 9.71079C145.143 9.71079 142.82 9.71079 142.61 9.75297C141.892 9.79516 141.428 10.1772 141.215 10.898C141.047 11.7453 139.105 20.8174 138.893 21.919ZM66.3426 5.00539C66.2165 5.51402 65.7098 7.76065 65.3292 8.22709C64.6116 9.15998 63.6818 9.62521 62.4999 9.6686C61.529 9.71079 60.5568 9.83734 59.6282 10.3038C58.6572 10.7702 57.9808 11.5332 57.5166 12.466C57.0523 13.3555 56.7989 14.3306 56.588 15.3479C56.165 17.298 54.7721 23.9113 54.4764 25.2673C54.3067 26.1158 53.6739 26.6244 52.7866 26.6244H47.8456C47.9305 26.2423 50.6337 13.4411 50.887 12.4239C51.224 11.0667 51.7307 9.75297 52.5332 8.60796C53.6315 6.99771 55.1516 6.02264 57.0523 5.5562C57.9808 5.25971 63.1751 5.04758 65.1183 5.00539H66.3426ZM109.713 26.581C109.882 25.8181 110.009 25.0551 110.262 24.3778C110.769 22.9363 111.782 22.1311 113.302 21.9612C113.472 21.919 119.721 21.919 122.677 21.919C123.057 21.919 123.437 21.8768 123.817 21.8347C124.24 21.7913 124.408 21.4948 124.451 21.0705C124.493 20.6053 124.281 20.2232 123.944 19.8845C123.477 19.4702 122.931 19.153 122.339 18.9516C120.693 18.3152 119.003 17.7222 117.357 17.1293C116.368 16.7918 115.429 16.3209 114.569 15.7299C113.894 15.2213 113.302 14.6283 112.964 13.822C112.743 13.2541 112.629 12.6507 112.627 12.0418C112.669 10.5159 113.006 9.03222 113.682 7.67628C114.273 6.48909 115.286 5.76833 116.554 5.42965C117.398 5.17534 118.285 5.08976 119.173 5.08976H133.319C133.277 5.38746 132.939 6.99771 132.77 7.46415C132.221 8.82009 131.208 9.58303 129.772 9.75418C129.645 9.75418 123.606 9.79516 120.734 9.79516C120.355 9.79516 119.974 9.79516 119.595 9.92292C118.961 10.135 118.792 10.5581 118.835 11.1089C118.877 11.6187 119.13 11.9574 119.595 12.1695C120.397 12.5926 125 14.2462 126.435 14.797C127.28 15.1369 128.084 15.4756 128.843 15.9842C129.687 16.5772 130.321 17.298 130.701 18.2743C130.954 18.9938 130.954 19.7568 130.912 20.4775C130.825 21.4018 130.626 22.3123 130.32 23.1894C130.026 23.9969 129.645 24.7165 129.011 25.3107C128.421 25.8615 127.702 26.2002 126.901 26.4123C126.21 26.5824 125.501 26.6674 124.789 26.6654C124.534 26.581 109.798 26.581 109.713 26.581Z" fill="#1A1818"/>
<path d="M33.6568 26.8353C33.1077 26.7932 32.2215 26.7932 31.3766 26.7088C30.0675 26.581 28.7583 26.3701 27.534 25.8615C26.2248 25.3095 25.169 24.5043 24.4089 23.275C23.9783 22.544 23.6915 21.7382 23.564 20.9006C23.4024 19.9347 23.3455 18.9545 23.3943 17.9766C23.4379 17.0437 23.564 16.1542 23.6913 15.2647C23.8598 14.1619 24.1131 13.059 24.4513 11.9996C24.8732 10.728 25.3799 9.49866 26.1824 8.39583C26.9848 7.33639 27.9558 6.53127 29.1389 5.98046C30.1935 5.51402 31.2494 5.21752 32.39 5.04758C33.5732 4.87884 34.755 4.79447 35.9369 4.75108C37.1613 4.70889 38.3856 4.70889 39.5687 4.79326C40.7094 4.87763 41.8076 5.04758 42.9059 5.38746C43.8757 5.68396 44.763 6.10701 45.5243 6.78558C46.1146 7.29421 46.6213 7.93059 46.9595 8.65135C47.3788 9.53081 47.6362 10.4779 47.7195 11.4476C47.8456 12.636 47.8456 13.7798 47.7195 14.967C47.517 16.9878 47.0336 18.9709 46.2831 20.8596C45.8612 21.8768 45.3545 22.8085 44.6369 23.6148C44.0152 24.3315 43.2717 24.9341 42.4404 25.395C41.5119 25.9037 40.4985 26.2002 39.4851 26.4123C38.2607 26.6244 37.0364 26.7088 35.8109 26.7932C35.2193 26.8353 34.5866 26.8353 33.6568 26.8353ZM41.3846 13.1434C41.3846 12.636 41.3434 12.084 41.1737 11.6187C41.0622 11.219 40.8593 10.8502 40.5809 10.5412C40.3025 10.2322 39.9561 9.99135 39.5687 9.83734C38.725 9.49866 37.8801 9.45647 36.9928 9.45647C36.4024 9.45647 35.8109 9.49866 35.2193 9.58303C34.5017 9.6674 33.8253 9.88073 33.1925 10.2194C32.1791 10.7702 31.5027 11.6609 31.0809 12.7204C30.659 13.6954 30.4057 14.7549 30.1947 15.7721C30.0266 16.5383 29.9412 17.3201 29.9402 18.1043C29.899 18.7395 29.9402 19.4181 30.1523 20.0111C30.4057 20.7318 30.8275 21.2826 31.4615 21.6225C32.2215 22.0034 33.024 22.1311 33.8253 22.1311C34.4593 22.1311 35.0933 22.1311 35.6836 22.0878C36.2751 22.0456 36.8243 21.919 37.3734 21.7503C38.6826 21.2826 39.5687 20.3931 40.1178 19.1216C40.9627 17.2136 41.3422 15.2213 41.3846 13.1434ZM87.7537 5.00539H92.651C93.4959 5.00539 94.1299 5.5562 94.2996 6.36133C94.5105 7.37978 97.1277 20.0954 97.1277 20.1376C97.2974 19.8411 106.166 5.89609 106.377 5.64178C106.51 5.44129 106.692 5.27773 106.906 5.16642C107.12 5.05511 107.36 4.9997 107.601 5.00539H113.429C113.217 5.30189 97.6768 28.8277 96.5373 30.5657C96.1991 31.0743 95.7349 31.3286 95.1009 31.3286H89.5696C89.6108 31.2864 91.8486 28.0225 92.948 26.4545C92.9892 26.3701 93.0329 26.2857 92.9892 26.2002C92.1031 22.5542 87.7962 5.08976 87.7537 5.00539ZM200 5.04758C199.873 5.5562 199.366 7.80284 198.987 8.26928C198.268 9.20216 197.339 9.6674 196.157 9.71079C195.185 9.75297 194.214 9.87952 193.284 10.346C192.315 10.8124 191.638 11.5753 191.174 12.5082C190.71 13.3989 190.456 14.374 190.244 15.3912C189.822 17.3402 188.428 23.9535 188.134 25.3107C187.964 26.158 187.331 26.6666 186.444 26.6666H181.503C181.588 26.2845 184.291 13.4833 184.543 12.466C184.883 11.1089 185.388 9.79516 186.192 8.65135C187.289 7.0399 188.809 6.06483 190.71 5.59839C191.638 5.30189 196.833 5.08976 198.776 5.04758H200ZM167.272 26.8787C166.723 26.8353 165.837 26.8353 164.992 26.751C163.682 26.6244 162.373 26.4123 161.149 25.9037C159.84 25.3528 158.784 24.5465 158.024 23.3171C157.593 22.5862 157.307 21.7804 157.179 20.9427C157.017 19.9769 156.961 18.9966 157.009 18.0187C157.052 17.0859 157.179 16.1964 157.305 15.3069C157.475 14.2041 157.728 13.1012 158.065 12.0418C158.488 10.7702 158.995 9.54084 159.797 8.43802C160.6 7.37978 161.571 6.57345 162.753 6.02264C163.809 5.5562 164.864 5.2597 166.005 5.08976C167.187 4.92102 168.369 4.83665 169.552 4.79326C170.776 4.75108 172.001 4.75108 173.184 4.83545C174.323 4.91982 175.423 5.08976 176.52 5.42965C177.492 5.72615 178.378 6.1504 179.138 6.82777C179.73 7.33639 180.236 7.97278 180.574 8.69353C180.994 9.57337 181.251 10.5208 181.335 11.491C181.461 12.6782 181.461 13.822 181.335 15.0104C181.132 17.0307 180.648 19.0134 179.898 20.9018C179.476 21.919 178.97 22.8519 178.252 23.657C177.63 24.3737 176.887 24.9762 176.055 25.4372C175.127 25.9458 174.113 26.2423 173.1 26.4545C171.876 26.6666 170.65 26.751 169.426 26.8353C168.834 26.8787 168.202 26.8787 167.272 26.8787ZM175 13.1868C175 12.6782 174.957 12.1262 174.789 11.6187C174.677 11.219 174.474 10.8502 174.196 10.5412C173.917 10.2322 173.571 9.99135 173.184 9.83734C172.339 9.49866 171.495 9.45647 170.608 9.45647C170.016 9.45647 169.426 9.49866 168.834 9.58303C168.117 9.6674 167.44 9.88073 166.807 10.2194C165.794 10.7702 165.118 11.6609 164.696 12.7204C164.274 13.6954 164.021 14.7127 163.809 15.7721C163.641 16.5383 163.556 17.3202 163.555 18.1043C163.513 18.7395 163.555 19.4181 163.767 20.0111C164.021 20.7318 164.442 21.2826 165.076 21.6225C165.837 22.0034 166.638 22.1311 167.44 22.1311C168.074 22.1311 168.707 22.1311 169.299 22.0878C169.89 22.0456 170.438 21.919 170.988 21.7503C172.298 21.2826 173.184 20.3931 173.733 19.1216C174.62 17.2558 175 15.2647 175 13.1868Z" fill="#1A1818"/>
</svg>
