<svg width="100" height="100" viewBox="0 0 100 100" fill="none" xmlns="http://www.w3.org/2000/svg">
<path d="M70.4401 74.8147L69.5986 70.5013L65.3949 69.6775L66.3 68.7724L69.4289 69.4194L68.7749 66.2976L69.6835 65.3889L70.5073 69.5927L74.8171 70.4377L73.912 71.3428L70.684 70.6745L71.3487 73.906L70.4401 74.8147Z" fill="#1A1818"/>
<path d="M64.0946 78.8129L60.4946 72.5775L64.4827 70.275L64.9752 71.128L61.9008 72.903L62.9108 74.6524L65.4656 73.1774L65.9581 74.0304L63.4033 75.5054L64.5158 77.4323L67.5902 75.6573L68.0827 76.5104L64.0946 78.8129Z" fill="#1A1818"/>
<path d="M57.7824 81.0438L56.1738 75.0406L54.0729 75.6035L53.818 74.6521L59.0195 73.2584L59.2744 74.2098L57.188 74.7689L58.7966 80.7721L57.7824 81.0438Z" fill="#1A1818"/>
<path d="M47.7996 82V74.8H52.4046V75.785H48.8546V77.805H51.8046V78.79H48.8546V81.015H52.4046V82H47.7996Z" fill="#1A1818"/>
<path d="M42.3056 74.6556L43.9746 75.0717C44.201 75.1281 44.3926 75.2068 44.5495 75.3078C44.7064 75.4087 44.831 75.5291 44.9233 75.6689C45.0163 75.8055 45.0738 75.9607 45.0957 76.1345C45.1177 76.3083 45.1033 76.4971 45.0524 76.7008C45.0016 76.9046 44.9254 77.0797 44.8236 77.2261C44.7226 77.3692 44.5986 77.4809 44.4515 77.561C44.3052 77.6379 44.1391 77.6841 43.9532 77.6996C43.7681 77.7118 43.5623 77.6897 43.3359 77.6333L41.667 77.2171L42.3056 74.6556ZM43.844 81.4444L45.0277 81.7395L43.7788 78.1302L42.6886 78.1005L43.844 81.4444ZM40.8021 80.686L41.4275 78.1777L43.1061 78.5963C43.5007 78.6946 43.8613 78.7296 44.1879 78.7011C44.5177 78.6734 44.8067 78.5891 45.0548 78.4483C45.3069 78.305 45.519 78.1089 45.691 77.8597C45.8639 77.6074 45.9939 77.3066 46.081 76.9573C46.1681 76.608 46.1941 76.2829 46.1592 75.9822C46.1242 75.6815 46.029 75.4087 45.8737 75.1638C45.7215 74.9198 45.5059 74.7097 45.2269 74.5337C44.9519 74.3552 44.6171 74.2167 44.2226 74.1183L41.5203 73.4446L39.7784 80.4307L40.8021 80.686Z" fill="#1A1818"/>
<path d="M34.4176 78.121C34.8869 78.3812 35.3504 78.5352 35.8079 78.583C36.2671 78.6279 36.7034 78.5763 37.1171 78.4283C37.5307 78.2803 37.9146 78.0414 38.2688 77.7118C38.6259 77.3838 38.9394 76.9764 39.2093 76.4895C39.4792 76.0027 39.6586 75.5209 39.7475 75.0442C39.8393 74.5692 39.8384 74.1171 39.7447 73.6878C39.6511 73.2586 39.4628 72.8627 39.1798 72.5C38.8984 72.1344 38.523 71.8216 38.0536 71.5614C37.5813 71.2996 37.1156 71.1462 36.6565 71.1013C36.2019 71.0552 35.7678 71.1061 35.3541 71.2541C34.9405 71.4021 34.5551 71.6401 34.198 71.9681C33.8409 72.2961 33.5274 72.7035 33.2575 73.1904C32.9876 73.6773 32.8083 74.1591 32.7194 74.6357C32.6304 75.1124 32.6328 75.5653 32.7265 75.9945C32.8201 76.4238 33.0062 76.8204 33.2846 77.1843C33.5676 77.547 33.9453 77.8592 34.4176 78.121ZM34.9 77.2508C34.5647 77.0649 34.3017 76.8449 34.1111 76.5906C33.925 76.335 33.8071 76.0562 33.7573 75.7541C33.7091 75.4492 33.7251 75.1246 33.8054 74.7804C33.8886 74.4378 34.0296 74.0872 34.2284 73.7286C34.4317 73.3687 34.6557 73.0641 34.9006 72.8149C35.15 72.5644 35.4159 72.3803 35.6985 72.2625C35.9826 72.1417 36.2815 72.094 36.5953 72.1193C36.9107 72.1417 37.236 72.2458 37.5713 72.4316C37.9065 72.6175 38.1672 72.8382 38.3533 73.0938C38.541 73.3465 38.6589 73.6253 38.7071 73.9302C38.757 74.2322 38.7403 74.5545 38.6571 74.8972C38.5784 75.2385 38.4389 75.5899 38.2385 75.9514C38.0397 76.31 37.8156 76.6146 37.5663 76.8651C37.3198 77.1172 37.0545 77.3036 36.7703 77.4243C36.4878 77.5421 36.1888 77.5898 35.8735 77.5675C35.5597 77.5422 35.2352 77.4366 34.9 77.2508Z" fill="#1A1818"/>
<path d="M28.9235 74.1777L29.6659 74.9202L32.413 72.1731L31.6706 71.4306L28.9235 74.1777ZM32.5792 67.446C32.2233 67.0901 31.8367 66.8285 31.4195 66.6612C31.0023 66.4938 30.5722 66.4219 30.1291 66.4455C29.6907 66.4691 29.2523 66.5869 28.8139 66.799C28.3754 67.0112 27.9559 67.3176 27.5552 67.7183C27.1404 68.1331 26.8222 68.5597 26.6006 68.9981C26.3838 69.4366 26.2624 69.8714 26.2364 70.3028C26.2129 70.7317 26.2836 71.1489 26.4486 71.5543C26.6159 71.9621 26.8752 72.3416 27.2264 72.6928C27.415 72.8813 27.6106 73.0393 27.8133 73.1665C28.0184 73.2962 28.2258 73.3928 28.4355 73.4565C28.6453 73.5201 28.8527 73.5507 29.0578 73.5484C29.2652 73.5484 29.4656 73.513 29.6588 73.4423L32.3847 72.1448L29.8533 69.6133L29.1568 70.3098L30.914 72.067C30.6735 72.2933 30.4272 72.4594 30.175 72.5655C29.9252 72.6739 29.6753 72.7281 29.4255 72.7281C29.178 72.7258 28.9329 72.6692 28.6901 72.5584C28.4497 72.4453 28.2187 72.2779 27.9971 72.0564C27.7379 71.7971 27.5505 71.5249 27.435 71.2397C27.3219 70.9521 27.2794 70.6575 27.3077 70.3558C27.3407 70.0541 27.4421 69.7477 27.6118 69.4366C27.7838 69.1278 28.0219 68.8214 28.3259 68.5173C28.6371 68.2062 28.9506 67.9658 29.2664 67.7961C29.5846 67.624 29.8945 67.5238 30.1962 67.4955C30.5027 67.4673 30.7985 67.5085 31.0837 67.6193C31.3736 67.7301 31.6458 67.9127 31.9004 68.1673C32.0724 68.3394 32.2115 68.5232 32.3176 68.7188C32.4236 68.9145 32.4932 69.116 32.5262 69.3234C32.5615 69.5285 32.5592 69.7359 32.5191 69.9457C32.4837 70.1554 32.4083 70.3629 32.2928 70.5679L33.1802 71.1866C33.3617 70.8449 33.4831 70.509 33.5444 70.179C33.6104 69.849 33.6163 69.5273 33.5621 69.2138C33.5126 68.9003 33.4042 68.5963 33.2368 68.3016C33.0742 68.007 32.855 67.7218 32.5792 67.446Z" fill="#1A1818"/>
<path d="M47.1903 40.7707C47.9443 41.5626 48.9558 41.9984 50 42C51.0442 41.9984 52.0557 41.5626 52.8097 40.7707C53.5654 39.9771 53.9986 38.8912 54 37.7489C53.9999 36.2258 53.0574 34.3499 51.9402 32.7082C51.1881 31.6028 50.4236 30.6987 50 30.2214C49.5764 30.6987 48.8119 31.6028 48.0598 32.7082C46.9426 34.3498 46.0002 36.2256 46 37.7486C46.0014 38.8911 46.4346 39.9771 47.1903 40.7707Z" stroke="black" stroke-width="2"/>
<path d="M68 40L56.6695 42.2254L64.262 50.9252L68 40ZM34.5475 47.8685L44.3432 52.8388L45.2482 51.0553L35.4525 46.085L34.5475 47.8685ZM56.5534 51.317L61.8767 46.6712L60.5616 45.1644L55.2383 49.8102L56.5534 51.317ZM44.3432 52.8388C48.3429 54.8683 53.1742 54.2661 56.5534 51.317L55.2383 49.8102C52.4735 52.2231 48.5207 52.7158 45.2482 51.0553L44.3432 52.8388Z" fill="black"/>
<rect x="34" y="55" width="32" height="2" fill="black"/>
<path d="M74.5373 67.2604C77.6844 62.7864 79.5485 57.5371 79.9278 52.0803C80.3071 46.6234 79.1872 41.1667 76.6893 36.3003C74.1914 31.4339 70.4104 27.3431 65.7555 24.4703C61.1006 21.5976 55.7488 20.0522 50.279 20.0013C44.8092 19.9504 39.4296 21.396 34.722 24.1817C30.0144 26.9674 26.1581 30.9872 23.5701 35.8063C20.9821 40.6254 19.7609 46.0603 20.0387 51.5233C20.3165 56.9863 22.0826 62.2694 25.146 66.8011L26.1934 66.0931C23.2591 61.7523 21.5674 56.6919 21.3013 51.4591C21.0353 46.2264 22.205 41.0205 24.6839 36.4045C27.1629 31.7885 30.8567 27.9381 35.3659 25.2698C39.875 22.6015 45.0279 21.2168 50.2672 21.2655C55.5065 21.3142 60.6328 22.7945 65.0915 25.5462C69.5503 28.2979 73.1719 32.2163 75.5645 36.8776C77.9572 41.5389 79.0299 46.7657 78.6666 51.9926C78.3032 57.2195 76.5177 62.2476 73.5032 66.533L74.5373 67.2604Z" fill="#1A1818"/>
</svg>
