<svg width="100" height="100" viewBox="0 0 100 100" fill="none" xmlns="http://www.w3.org/2000/svg">
<path d="M71.9262 73.5128C72.2431 73.2173 72.4852 72.9026 72.6525 72.5689C72.8223 72.2328 72.9122 71.8869 72.9223 71.5311C72.9348 71.1731 72.8637 70.8109 72.709 70.4447C72.5544 70.0784 72.3111 69.7173 71.9792 69.3614L69.0125 66.18L68.2409 66.8995L71.1837 70.0553C71.4133 70.3016 71.5876 70.5447 71.7066 70.7847C71.8256 71.0247 71.8893 71.2592 71.8978 71.4883C71.9041 71.7149 71.8526 71.9383 71.7435 72.1586C71.6369 72.3765 71.4738 72.5878 71.2544 72.7924C71.035 72.997 70.8117 73.1461 70.5843 73.2395C70.3595 73.3307 70.1342 73.3653 69.9086 73.3433C69.6806 73.3188 69.4511 73.2389 69.22 73.1035C68.9889 72.968 68.7585 72.7772 68.5289 72.531L65.5861 69.3752L64.8145 70.0947L67.7812 73.2761C68.1131 73.632 68.4564 73.8999 68.8109 74.0797C69.1655 74.2596 69.5206 74.3569 69.8762 74.3716C70.2342 74.3841 70.5868 74.3174 70.9339 74.1715C71.2809 74.0257 71.6117 73.8061 71.9262 73.5128Z" fill="#1A1818"/>
<path d="M64.56 78.5001L63.1633 75.8734L59.0254 73.2884L60.1026 72.7157L63.0635 74.5674L63.1841 71.0772L64.2613 70.5045L64.0948 75.3781L65.4915 78.0049L64.56 78.5001Z" fill="#1A1818"/>
<path d="M57.2321 81.3259C57.6543 81.2284 58.0213 81.077 58.3331 80.8716C58.6482 80.6654 58.899 80.4108 59.0856 80.1077C59.2754 79.8039 59.395 79.4547 59.4441 79.0602C59.4933 78.6657 59.4632 78.2313 59.3537 77.7572L58.3752 73.5186L57.3472 73.756L58.3179 77.9604C58.3936 78.2884 58.423 78.5861 58.406 78.8534C58.3891 79.1208 58.327 79.3557 58.2198 79.5584C58.1119 79.7578 57.9556 79.9256 57.751 80.0617C57.5497 80.1972 57.3028 80.2986 57.0105 80.3661C56.7182 80.4336 56.4503 80.451 56.2067 80.4183C55.9663 80.3848 55.7539 80.3021 55.5695 80.1702C55.3844 80.0351 55.2256 79.8511 55.0932 79.6183C54.9607 79.3854 54.8566 79.105 54.7809 78.7769L53.8102 74.5725L52.7823 74.8099L53.7608 79.0484C53.8703 79.5226 54.0336 79.9262 54.2507 80.2592C54.4679 80.5922 54.7268 80.854 55.0273 81.0446C55.3312 81.2345 55.6698 81.353 56.0434 81.4002C56.4169 81.4474 56.8131 81.4226 57.2321 81.3259Z" fill="#1A1818"/>
<path d="M48.3653 81.9625L48.5822 75.7513L46.4085 75.6754L46.4429 74.691L51.8246 74.879L51.7902 75.8634L49.6315 75.788L49.4146 81.9992L48.3653 81.9625Z" fill="#1A1818"/>
<path d="M37.9885 79.79L38.2765 78.8481L43.8412 75.0804L39.8056 73.8466L40.0936 72.9046L45.4058 74.5288L45.1179 75.4707L39.5531 79.2384L43.5888 80.4722L43.3008 81.4142L37.9885 79.79Z" fill="#1A1818"/>
<path d="M37.8176 71.6126L36.639 70.9044L30.8478 75.8245L31.7993 76.3961L37.0603 71.8925L36.7474 71.7045L35.2451 78.4666L36.1923 79.0357L37.8176 71.6126ZM32.7477 75.0702L35.9706 77.0067L36.4753 76.1667L33.2524 74.2302L32.7477 75.0702Z" fill="#1A1818"/>
<path d="M29.5108 69.6781L29.5 74.6383L30.4801 75.5522L30.4957 70.5281L35.2186 70.1262L34.2678 69.2396L29.5108 69.6781ZM26.3845 71.733L27.1561 72.4525L32.0664 67.1868L31.2949 66.4672L26.3845 71.733Z" fill="#1A1818"/>
<path d="M74.5373 67.2604C77.6844 62.7864 79.5485 57.5371 79.9278 52.0803C80.3071 46.6234 79.1872 41.1667 76.6893 36.3003C74.1914 31.4339 70.4104 27.3431 65.7555 24.4703C61.1006 21.5976 55.7488 20.0522 50.279 20.0013C44.8092 19.9504 39.4296 21.396 34.722 24.1817C30.0144 26.9674 26.1581 30.9872 23.5701 35.8063C20.9821 40.6254 19.7609 46.0603 20.0387 51.5233C20.3165 56.9863 22.0826 62.2694 25.146 66.8011L26.1934 66.0931C23.2591 61.7523 21.5674 56.6919 21.3013 51.4591C21.0353 46.2264 22.205 41.0205 24.6839 36.4045C27.1629 31.7885 30.8567 27.9381 35.3659 25.2698C39.875 22.6015 45.0279 21.2168 50.2672 21.2655C55.5065 21.3142 60.6328 22.7945 65.0915 25.5462C69.5503 28.2979 73.1719 32.2163 75.5645 36.8776C77.9572 41.5389 79.0299 46.7657 78.6666 51.9926C78.3032 57.2195 76.5177 62.2476 73.5032 66.533L74.5373 67.2604Z" fill="#1A1818"/>
<path d="M42.8862 52.3772L62.5671 40.055" stroke="black" stroke-width="2"/>
<path d="M40.6564 52.1308L40.8638 50.4649C41.2259 47.5556 42.8464 44.9517 45.2968 43.342L46.8643 42.3124L49.2477 44.3123L48.5409 41.2823L58.6005 35.1021L65.7671 36.2418L65.273 41.1198C64.9873 43.94 63.3897 46.4607 60.9614 47.9229L60.0989 48.4422L57.2909 45.3753L58.951 49.2052L50.7271 54.1117C47.7503 55.8878 44.066 55.9955 40.9905 54.3964L40.8482 54.3224L32.0268 59.511" stroke="black" stroke-width="2"/>
</svg>
