<svg width="100" height="100" viewBox="0 0 100 100" fill="none" xmlns="http://www.w3.org/2000/svg">
<path d="M64.5571 78.6373L60.7417 72.5314L61.6364 71.9723L67.5091 74.6526L64.6554 70.0858L65.5459 69.5294L69.3613 75.6354L68.4709 76.1918L62.5982 73.5115L65.4518 78.0783L64.5571 78.6373Z" fill="#1A1818"/>
<path d="M71.8491 73.3856L66.8476 68.2063L67.6065 67.4735L72.608 72.6527L71.8491 73.3856Z" fill="#1A1818"/>
<path d="M75.9156 68.7785L70.8245 65.2137L69.577 66.9954L68.7701 66.4304L71.8588 62.0192L72.6657 62.5842L71.4268 64.3536L76.5178 67.9184L75.9156 68.7785Z" fill="#1A1818"/>
<path d="M56.7967 77.5829L61.087 80.0723L62.3684 79.6805L58.0253 77.155L60.0386 72.8638L58.7954 73.2439L56.7967 77.5829ZM57.0131 81.3178L58.022 81.0093L55.917 74.1239L54.9081 74.4324L57.0131 81.3178Z" fill="#1A1818"/>
<path d="M49.4775 82.0713L49.1007 74.8812L53.6994 74.6402L53.7509 75.6238L50.2058 75.8096L50.3115 77.8269L53.2574 77.6725L53.309 78.6561L50.363 78.8105L50.4795 81.0325L54.0246 80.8467L54.0762 81.8303L49.4775 82.0713Z" fill="#1A1818"/>
<path d="M39.4251 80.4002L41.0448 73.3847L42.063 73.6198L43.282 79.12L46.7789 74.7086L47.802 74.9448L46.1835 81.9554L45.1604 81.7192L46.2987 76.7889L43.4565 80.3867L42.5698 80.182L41.5925 75.7023L40.4531 80.6375L39.4251 80.4002Z" fill="#1A1818"/>
<path d="M35.4967 78.5297L38.653 72.0584L39.6012 72.5209L36.4449 78.9922L35.4967 78.5297Z" fill="#1A1818"/>
<path d="M33.2829 69.6891L34.6566 70.7242C34.8429 70.8647 34.9886 71.012 35.0936 71.1662C35.1986 71.3205 35.2662 71.48 35.2965 71.6447C35.3288 71.8068 35.3211 71.9721 35.2734 72.1406C35.2257 72.3092 35.1386 72.4773 35.0122 72.645C34.8859 72.8128 34.7472 72.9441 34.5963 73.0391C34.4475 73.1314 34.2897 73.1857 34.123 73.202C33.9583 73.2157 33.7873 73.1933 33.6101 73.1349C33.4349 73.0738 33.2542 72.9731 33.0678 72.8326L31.6942 71.7975L33.2829 69.6891ZM32.0464 76.5393L33.0207 77.2735L33.2814 73.4631L32.2894 73.0099L32.0464 76.5393ZM29.5427 74.6526L31.0984 72.5882L32.48 73.6293C32.8048 73.874 33.123 74.0471 33.4348 74.1485C33.7493 74.2518 34.0482 74.2872 34.3316 74.2545C34.6197 74.2212 34.8915 74.1234 35.1472 73.9614C35.405 73.7966 35.6421 73.5705 35.8588 73.283C36.0754 72.9955 36.2264 72.7065 36.3118 72.416C36.3971 72.1255 36.4161 71.8372 36.3687 71.5511C36.324 71.267 36.2077 70.9894 36.0196 70.7183C35.8362 70.4466 35.5821 70.1883 35.2574 69.9436L33.0332 68.2675L28.7001 74.0177L29.5427 74.6526Z" fill="#1A1818"/>
<path d="M23.9306 68.61L25.9677 67.0186L27.0327 68.3818C27.2831 68.7023 27.5458 68.9518 27.8207 69.1304C28.0976 69.3117 28.3772 69.4232 28.6594 69.4649C28.9463 69.5073 29.2342 69.4833 29.5232 69.3929C29.8147 69.3005 30.1024 69.1434 30.386 68.9218C30.6697 68.7001 30.8904 68.4601 31.048 68.2016C31.2056 67.9431 31.2985 67.6695 31.3268 67.3809C31.3572 67.0949 31.3166 66.7967 31.2052 66.4862C31.0984 66.1762 30.9198 65.861 30.6694 65.5405L28.9548 63.3459L23.2811 67.7787L23.9306 68.61ZM28.8281 64.7837L29.8871 66.1391C30.0307 66.323 30.1333 66.503 30.1948 66.6791C30.2563 66.8553 30.2803 67.0268 30.2669 67.1938C30.2562 67.3587 30.206 67.5164 30.1162 67.6669C30.0265 67.8173 29.8989 67.9572 29.7334 68.0865C29.568 68.2158 29.4001 68.3068 29.2297 68.3595C29.062 68.4101 28.8956 68.4218 28.7303 68.3943C28.5677 68.3649 28.4084 68.299 28.2523 68.1967C28.0989 68.0924 27.9504 67.9483 27.8067 67.7644L26.7478 66.4091L28.8281 64.7837Z" fill="#1A1818"/>
<path d="M77.319 62.3965C79.4069 57.7953 80.2988 52.7413 79.912 47.7034C79.5252 42.6655 77.8722 37.8069 75.1064 33.5784C72.3406 29.3498 68.5516 25.8884 64.0909 23.5151C59.6302 21.1419 54.6423 19.9338 49.5901 20.0028C44.5378 20.0718 39.5848 21.4158 35.1907 23.9101C30.7965 26.4043 27.1035 29.9681 24.4543 34.2706C21.805 38.5731 20.2854 43.4751 20.0364 48.5216C19.7875 53.5682 20.8171 58.596 23.03 63.1384L24.1665 62.5847C22.047 58.2337 21.0607 53.4179 21.2992 48.5839C21.5377 43.75 22.9932 39.0547 25.5308 34.9335C28.0684 30.8122 31.6058 27.3987 35.8148 25.0096C40.0237 22.6204 44.768 21.3331 49.6073 21.267C54.4467 21.2008 59.2243 22.3581 63.497 24.6313C67.7697 26.9045 71.3991 30.2201 74.0483 34.2704C76.6976 38.3207 78.2809 42.9746 78.6514 47.8002C79.0219 52.6258 78.1676 57.4668 76.1677 61.874L77.319 62.3965Z" fill="#1A1818"/>
<path d="M43.391 46.5019C43.3683 45.5991 44.4592 45.1311 45.0978 45.7697L48.7024 49.3743C48.8838 49.5557 48.9886 49.7999 48.995 50.0563L49.0937 53.9834C49.1164 54.8862 48.0255 55.3542 47.3869 54.7156L43.7822 51.111C43.6009 50.9296 43.4961 50.6854 43.4897 50.429L43.391 46.5019Z" fill="black"/>
<path d="M43.391 38.5019C43.3683 37.5991 44.4592 37.1311 45.0978 37.7697L48.7024 41.3743C48.8838 41.5557 48.9886 41.7999 48.995 42.0563L49.0937 45.9834C49.1164 46.8862 48.0255 47.3542 47.3869 46.7156L43.7822 43.111C43.6009 42.9296 43.4961 42.6854 43.4897 42.429L43.391 38.5019Z" fill="black"/>
<path d="M56.0944 46.5019C56.117 45.5991 55.0261 45.1311 54.3876 45.7697L50.7829 49.3743C50.6015 49.5557 50.4968 49.7999 50.4903 50.0563L50.3917 53.9834C50.369 54.8862 51.4599 55.3542 52.0985 54.7156L55.7031 51.111C55.8845 50.9296 55.9892 50.6854 55.9957 50.429L56.0944 46.5019Z" fill="black"/>
<path d="M56.0944 38.5019C56.117 37.5991 55.0261 37.1311 54.3876 37.7697L50.7829 41.3743C50.6015 41.5557 50.4968 41.7999 50.4903 42.0563L50.3917 45.9834C50.369 46.8862 51.4599 47.3542 52.0985 46.7156L55.7031 43.111C55.8845 42.9296 55.9892 42.6854 55.9957 42.429L56.0944 38.5019Z" fill="black"/>
<path d="M42.0944 46.5019C42.117 45.5991 41.0261 45.1311 40.3876 45.7697L36.7829 49.3743C36.6015 49.5557 36.4968 49.7999 36.4903 50.0563L36.3917 53.9834C36.369 54.8862 37.4599 55.3542 38.0985 54.7156L41.7031 51.111C41.8845 50.9296 41.9892 50.6854 41.9957 50.429L42.0944 46.5019Z" fill="black"/>
<path d="M42.0944 38.5019C42.117 37.5991 41.0261 37.1311 40.3876 37.7697L36.7829 41.3743C36.6015 41.5557 36.4968 41.7999 36.4903 42.0563L36.3917 45.9834C36.369 46.8862 37.4599 47.3542 38.0985 46.7156L41.7031 43.111C41.8845 42.9296 41.9892 42.6854 41.9957 42.429L42.0944 38.5019Z" fill="black"/>
<path d="M57.391 46.5019C57.3683 45.5991 58.4592 45.1311 59.0978 45.7697L62.7024 49.3743C62.8838 49.5557 62.9886 49.7999 62.995 50.0563L63.0937 53.9834C63.1164 54.8862 62.0255 55.3542 61.3869 54.7156L57.7822 51.111C57.6009 50.9296 57.4961 50.6854 57.4897 50.429L57.391 46.5019Z" fill="black"/>
<path d="M57.391 38.5019C57.3683 37.5991 58.4592 37.1311 59.0978 37.7697L62.7024 41.3743C62.8838 41.5557 62.9886 41.7999 62.995 42.0563L63.0937 45.9834C63.1164 46.8862 62.0255 47.3542 61.3869 46.7156L57.7822 43.111C57.6009 42.9296 57.4961 42.6854 57.4897 42.429L57.391 38.5019Z" fill="black"/>
</svg>
