<svg width="103" height="103" viewBox="0 0 103 103" fill="none" xmlns="http://www.w3.org/2000/svg">
<path fill-rule="evenodd" clip-rule="evenodd" d="M63.4861 65.9381H59.0913V76.7771H56.5843V65.9381H52.1895V63.4297H63.4861V65.9381Z" fill="#E21937"/>
<path fill-rule="evenodd" clip-rule="evenodd" d="M88.664 65.9381H84.2689V76.7771H81.7625V65.9381H77.3672V63.4297H88.664V65.9381Z" fill="#E21937"/>
<path fill-rule="evenodd" clip-rule="evenodd" d="M98.1243 63.5234C98.68 63.5234 99.2118 63.6302 99.7162 63.8459C100.221 64.0544 100.662 64.3501 101.042 64.7372C101.421 65.1158 101.71 65.556 101.92 66.0582C102.135 66.5587 102.242 67.0884 102.242 67.6511V72.6811C102.242 73.2553 102.135 73.7944 101.92 74.2952C101.711 74.7847 101.419 75.218 101.04 75.5963C100.662 75.9747 100.221 76.2702 99.7179 76.4846C99.2127 76.7003 98.6803 76.8094 98.1245 76.8094H93.0856C92.5159 76.8094 91.98 76.7019 91.4806 76.4846C90.9861 76.2702 90.5479 75.973 90.171 75.5963C89.7925 75.2178 89.4954 74.7834 89.2817 74.2952C89.0712 73.7958 88.9678 73.254 88.9678 72.6811V67.6511C88.9678 67.0901 89.0712 66.5576 89.2793 66.0582C89.4935 65.556 89.7911 65.1157 90.1697 64.7372C90.548 64.3511 90.9845 64.0544 91.484 63.8459C91.9834 63.6302 92.5161 63.5234 93.0857 63.5234H98.1243ZM91.5996 73.3055C91.6923 73.5061 91.81 73.6812 91.9531 73.8305C92.1005 73.9706 92.2729 74.0824 92.4701 74.1648C92.6663 74.248 92.871 74.2902 93.0854 74.2902H98.1243C98.3482 74.2902 98.5516 74.248 98.7388 74.1672C98.9376 74.0809 99.108 73.9673 99.2499 73.8261C99.3998 73.6765 99.5167 73.5015 99.6019 73.3023C99.6888 73.1098 99.7344 72.9014 99.7344 72.6814V67.6514C99.7344 67.4313 99.6888 67.2229 99.6019 67.0287C99.5169 66.8311 99.3956 66.6571 99.2499 66.5159C99.1081 66.3695 98.936 66.2511 98.7388 66.1662C98.5516 66.0846 98.3482 66.0422 98.1243 66.0422H93.0854C92.8711 66.0422 92.6663 66.083 92.4701 66.1674C92.2712 66.2512 92.0972 66.366 91.9508 66.5159C91.8075 66.6593 91.69 66.8295 91.5972 67.0311C91.516 67.2266 91.4746 67.4313 91.4746 67.6515V72.6815C91.4744 72.9026 91.5176 73.1109 91.5996 73.3055Z" fill="#E21937"/>
<path fill-rule="evenodd" clip-rule="evenodd" d="M72.9464 63.5234C73.5029 63.5234 74.0326 63.6302 74.5377 63.8459C75.043 64.0544 75.4837 64.3501 75.863 64.7372C76.2422 65.1158 76.5339 65.556 76.7409 66.0582C76.9563 66.5587 77.0639 67.0884 77.0639 67.6511V72.6811C77.0639 73.2553 76.9563 73.7944 76.7409 74.2952C76.5339 74.7847 76.2407 75.218 75.8621 75.5963C75.4838 75.9747 75.0415 76.2702 74.5396 76.4846C74.0344 76.7003 73.503 76.8094 72.9465 76.8094H67.9065C67.3371 76.8094 66.802 76.7019 66.3018 76.4846C65.8071 76.2702 65.3697 75.973 64.9912 75.5963C64.6139 75.2178 64.3162 74.7834 64.1029 74.2952C63.893 73.7958 63.7891 73.254 63.7891 72.6811V67.6511C63.7891 67.0901 63.893 66.5576 64.1009 66.0582C64.3148 65.556 64.6123 65.1157 64.9911 64.7372C65.3697 64.3511 65.8051 64.0544 66.303 63.8459C66.8041 63.6302 67.337 63.5234 67.9065 63.5234H72.9464ZM66.4217 73.3055C66.5137 73.5061 66.6316 73.6812 66.7749 73.8305C66.9222 73.9706 67.0946 74.0824 67.2905 74.1648C67.4879 74.248 67.6917 74.2902 67.9062 74.2902H72.9463C73.1679 74.2902 73.3733 74.248 73.5604 74.1672C73.7591 74.0809 73.9298 73.9673 74.0713 73.8261C74.2196 73.6765 74.338 73.5015 74.4226 73.3023C74.5094 73.1098 74.555 72.9014 74.555 72.6814V67.6514C74.555 67.4313 74.5094 67.2229 74.4226 67.0287C74.338 66.8311 74.2173 66.6571 74.0713 66.5159C73.9298 66.3695 73.7575 66.2511 73.5604 66.1662C73.3733 66.0846 73.1679 66.0422 72.9463 66.0422H67.9062C67.6917 66.0422 67.4878 66.083 67.2905 66.1674C67.0933 66.2512 66.9206 66.366 66.7716 66.5159C66.6283 66.6593 66.5107 66.8295 66.4188 67.0311C66.3375 67.2266 66.2962 67.4313 66.2962 67.6515V72.6815C66.2963 72.9026 66.3392 73.1109 66.4217 73.3055Z" fill="#E21937"/>
<path fill-rule="evenodd" clip-rule="evenodd" d="M51.2347 69.9118C50.8517 70.4536 50.3665 70.8606 49.7795 71.1295L51.5123 76.7819H48.8972L47.2321 71.4718H42.9116V76.7611H40.4033V68.9422H48.2382C48.5502 68.9422 48.8139 68.8356 49.0439 68.6126C49.2717 68.3903 49.3796 68.1308 49.3796 67.8222V67.2185C49.3796 66.893 49.2682 66.6292 49.0439 66.4081C48.814 66.1846 48.5503 66.0778 48.2382 66.0778H40.4875V63.5703H48.2382C48.739 63.5703 49.2111 63.6661 49.6542 63.861C50.1022 64.0482 50.4903 64.3064 50.8204 64.636C51.1525 64.967 51.4085 65.3557 51.5957 65.8021C51.7915 66.247 51.888 66.7172 51.888 67.2185V67.8237C51.886 68.5967 51.6703 69.2965 51.2347 69.9118Z" fill="#231F20"/>
<path fill-rule="evenodd" clip-rule="evenodd" d="M22.4663 63.4219C22.9727 63.4219 23.4478 63.5178 23.8942 63.7136C24.3331 63.9008 24.7182 64.1571 25.0478 64.4867C25.3787 64.818 25.6395 65.2067 25.832 65.6512C26.0279 66.0966 26.1244 66.5704 26.1244 67.0695V67.6743C26.1244 68.1753 26.0267 68.6488 25.832 69.0935C25.6395 69.5252 25.3773 69.909 25.0509 70.2428C24.721 70.5802 24.333 70.8475 23.8941 71.0403C23.4492 71.229 22.9714 71.3227 22.4661 71.3227H17.139V76.7791H14.6113V68.7942H22.4661C22.7784 68.7942 23.036 68.6862 23.2575 68.466C23.4794 68.2445 23.5869 67.9851 23.5869 67.6743V67.0695C23.5869 66.7423 23.4778 66.477 23.2575 66.2584C23.036 66.0363 22.7767 65.9292 22.4661 65.9292H14.7135V63.4219H22.4663Z" fill="#231F20"/>
<path fill-rule="evenodd" clip-rule="evenodd" d="M13.2759 63.4531V65.9614H4.62938C4.30854 65.9614 4.04257 66.0682 3.81529 66.2914C3.59666 66.5103 3.48728 66.7738 3.48728 67.1015V67.7062C3.48728 68.0184 3.59332 68.2746 3.81529 68.4964C4.04257 68.718 4.30854 68.8271 4.62938 68.8271H10.5963C11.1015 68.8271 11.5778 68.9221 12.0224 69.1179C12.4689 69.305 12.8603 69.5615 13.1957 69.8921C13.5353 70.2221 13.797 70.6116 13.9836 71.0594C14.1795 71.5042 14.276 71.9749 14.276 72.4751V73.0785C14.2749 73.5795 14.178 74.0557 13.9836 74.5053C13.797 74.9475 13.5335 75.3334 13.1957 75.6633C12.8603 75.9926 12.4676 76.2535 12.0224 76.4462C11.5778 76.6344 11.1015 76.728 10.5963 76.728H1.96909V74.22H10.5963C10.9288 74.22 11.1935 74.1074 11.4038 73.8857C11.6278 73.6558 11.7362 73.3907 11.7362 73.0785V72.4751C11.7362 72.1647 11.6277 71.9041 11.4054 71.682C11.1962 71.4664 10.9303 71.3545 10.5963 71.3545H4.62938C4.12303 71.3545 3.64127 71.261 3.19215 71.0739C2.75179 70.8798 2.36433 70.6132 2.03385 70.275C1.70658 69.9413 1.44531 69.5558 1.25226 69.1243C1.06391 68.6808 0.96875 68.2057 0.96875 67.7064V67.1016C0.96875 66.6039 1.06231 66.1305 1.25128 65.6853C1.44383 65.2407 1.70671 64.8498 2.03682 64.5197C2.36594 64.1908 2.75192 63.9312 3.19215 63.7455C3.64263 63.5503 4.12179 63.4532 4.62938 63.4532H13.2759V63.4531Z" fill="#231F20"/>
<path fill-rule="evenodd" clip-rule="evenodd" d="M29.061 73.3093C29.1533 73.5094 29.2714 73.683 29.4138 73.8327C29.5619 73.9726 29.7335 74.0842 29.9318 74.1684C30.1275 74.2516 30.3309 74.2923 30.5468 74.2923H35.5856C35.8094 74.2923 36.0122 74.2498 36.1994 74.1684C36.399 74.0842 36.5691 73.971 36.7104 73.8297C36.8603 73.6803 36.9779 73.5033 37.0625 73.3061C37.1493 73.1116 37.1948 72.9032 37.1948 72.6832V67.655C37.1948 67.4347 37.1492 67.2247 37.0625 67.0319C36.9779 66.834 36.8571 66.6594 36.7104 66.5194C36.5691 66.3713 36.3964 66.2519 36.1994 66.1698C36.0122 66.0879 35.8078 66.0443 35.5856 66.0443H30.5468C30.3309 66.0459 30.1277 66.0863 29.9318 66.1698C29.7317 66.2539 29.5603 66.3697 29.4112 66.5194C29.268 66.6609 29.1503 66.8332 29.0585 67.0347C28.9764 67.2302 28.9359 67.4347 28.9359 67.6552V72.6833C28.936 72.9063 28.9783 73.1135 29.061 73.3093ZM35.5856 63.5273C36.1418 63.5273 36.6715 63.6341 37.1767 63.8484C37.6818 64.0561 38.1225 64.3534 38.5023 64.7393C38.8811 65.1197 39.174 65.5584 39.3803 66.0619C39.596 66.5612 39.7031 67.0922 39.7031 67.6552V72.6833C39.7031 73.2594 39.596 73.7986 39.3803 74.2983C39.1728 74.7867 38.8791 75.2217 38.5007 75.5985C38.1226 75.9771 37.6804 76.2741 37.1784 76.4883C36.6733 76.7041 36.142 76.8109 35.5857 76.8109H30.5469C29.9768 76.8109 29.4412 76.7041 28.9422 76.4883C28.4456 76.2741 28.0083 75.9771 27.6294 75.5985C27.2527 75.2217 26.9557 74.7858 26.7417 74.2983C26.5324 73.7986 26.4277 73.2578 26.4277 72.6833V67.6552C26.4277 67.0934 26.5323 66.5612 26.7417 66.0619C26.9545 65.5598 27.251 65.118 27.6294 64.7393C28.0083 64.3534 28.444 64.0583 28.9433 63.8499C29.4429 63.6326 29.9766 63.5275 30.5469 63.5275H35.5856V63.5273Z" fill="#231F20"/>
<path d="M11.7305 93.4728H12.3965C12.9208 95.4679 14.2512 96.5976 16.1066 96.5976C17.6793 96.5976 18.7877 95.6707 18.7877 94.3596C18.7877 93.5132 18.3641 92.7886 17.4772 92.1021C17.1347 91.841 16.711 91.5381 16.2075 91.2149C14.0302 89.7433 13.3643 89.1989 12.7191 88.4323C12.2556 87.8491 11.9936 87.1425 11.9936 86.3964C11.9936 84.5214 13.6268 83.2109 15.9856 83.2109C16.5711 83.2109 17.174 83.2915 17.8408 83.432C18.4264 83.5745 18.5057 83.5745 18.7678 83.5745C19.05 83.5745 19.1707 83.5331 19.3733 83.312H19.9175L20.3809 86.6788H19.7561C19.0897 84.9652 17.7397 83.8958 16.2074 83.8958C14.9378 83.8958 14.0901 84.6221 14.0901 85.6905C14.0901 86.4972 14.494 87.1216 15.4603 87.8273C16.0053 88.2099 16.6305 88.6339 17.3155 89.0581C19.3732 90.389 20.1778 91.1334 20.6234 92.162C20.804 92.6053 20.905 93.1088 20.905 93.634C20.905 95.8511 19.0291 97.3443 16.2877 97.3443C15.7428 97.3443 14.9376 97.2623 14.5331 97.1614L13.909 97.0213C13.7062 96.9799 13.526 96.961 13.3839 96.961C13.1231 96.961 12.9405 97.0008 12.8194 97.1829H12.2754L11.7305 93.4728Z" fill="#231F20"/>
<path d="M34.4523 89.0758L37.255 87.7656H37.7793V89.5793C39.3509 88.5922 40.3608 88.2089 41.3269 88.2089C43.1212 88.2089 44.4928 89.8827 44.4928 92.1199C44.4928 94.7818 42.1125 97.1405 39.4528 97.1405C38.9487 97.1405 38.4642 97.0582 37.7794 96.8581V99.7815C37.7794 101.131 38.1015 101.455 39.4114 101.455H39.7754V102H34.1299V101.455H34.291C35.4406 101.455 35.7429 101.031 35.7429 99.3567V90.9105C35.7429 90.5678 35.7429 90.3466 35.723 90.2449C35.723 90.1045 35.6823 90.0037 35.6219 89.9431C35.5805 89.8829 35.4811 89.8216 35.3606 89.8015C35.0579 89.7006 34.9159 89.6599 34.4525 89.5992V89.0758H34.4523ZM40.1971 96.2948C41.5094 96.2948 42.4369 94.983 42.4369 93.1689C42.4369 91.0718 41.3077 89.418 39.876 89.418C39.25 89.418 38.6669 89.64 37.7792 90.2255V95.0831C38.5048 95.8696 39.3507 96.2948 40.1971 96.2948Z" fill="#231F20"/>
<path d="M49.8518 97.2435C47.513 97.2435 45.9414 95.5095 45.9414 92.849C45.9414 90.0661 47.7751 88.0898 50.377 88.0898C51.5654 88.0898 52.6351 88.5342 53.2181 89.2595C53.5018 89.5833 53.6426 89.9056 53.8443 90.5497C54.027 91.1758 54.1262 91.3377 54.4294 91.4368V91.9214H47.9577C48.018 94.401 49.2678 95.993 51.1629 95.993C52.0897 95.993 52.9171 95.5513 53.906 94.4822L54.2268 94.8242C52.6739 96.5983 51.4657 97.2435 49.8518 97.2435ZM51.9485 91.398C51.7675 89.6033 51.1216 88.6764 50.0333 88.6764C48.8837 88.6764 48.1988 89.6033 47.9767 91.398H51.9485Z" fill="#231F20"/>
<path d="M55.4785 89.4618V88.9986L58.3221 88.0898H58.9869V90.2477L59.1483 89.9454C59.8937 88.5945 60.3988 88.0898 60.9829 88.0898C61.105 88.0898 61.1846 88.1107 61.3655 88.172L61.5678 88.2309C62.1731 88.4332 62.5558 88.5342 62.9795 88.635L62.2737 90.4092C61.8306 90.3081 61.5073 90.2086 61.0237 90.0056L60.7818 89.9055C60.5994 89.8243 60.5195 89.8044 60.3775 89.8044C59.9153 89.8044 59.4715 90.2278 58.987 91.1941V94.7647C58.987 96.1147 59.31 96.4567 60.5394 96.4567H61.1445V97.0017H55.4983V96.4567H55.5804C56.6687 96.4567 56.9316 96.0539 56.9316 94.3819V90.0056L55.4785 89.4618Z" fill="#231F20"/>
<path d="M63.1396 96.9968V96.4126H63.7036C64.8532 96.4126 65.1754 96.0085 65.1969 94.5565V93.8925V86.6747V86.0096C65.1754 84.5576 64.8532 84.1543 63.7036 84.1543H63.1396V83.5703H70.2165V84.1543H69.7128C67.8378 84.1543 67.6162 84.3355 67.6162 85.8676V94.5973V95.2224C67.6361 95.8885 67.8378 96.0284 68.7659 96.0284H71.0025C72.4747 96.0284 72.7968 95.9289 73.4212 95.2224C73.8054 94.7587 74.0059 94.5171 74.5717 93.7317H75.2152L73.5629 96.9967H63.1396V96.9968Z" fill="#231F20"/>
<path d="M77.8733 83.4531C78.6602 83.4531 79.2035 83.8969 79.2035 84.562C79.2035 85.2677 78.6396 85.7321 77.8131 85.7321C77.0278 85.7321 76.502 85.2876 76.502 84.6028C76.502 83.8968 77.0278 83.4531 77.8733 83.4531Z" fill="#231F20"/>
<path d="M75.293 88.7534L78.6209 87.8672H79.0224V94.3578C79.0224 96.0923 79.2851 96.4543 80.4346 96.4543H80.5954V96.9993H75.3138V96.4543H75.5557C76.7251 96.4543 76.9869 96.0923 76.9869 94.3794V90.4878C76.9869 89.5395 76.8659 89.4385 75.2931 89.2372V88.7534H75.293Z" fill="#231F20"/>
<path d="M81.7431 95.8726C81.7431 95.2674 82.046 94.9651 82.9107 94.6825C83.3762 94.5237 83.5773 94.4218 83.9194 94.2396C82.5272 93.6554 81.8821 92.7688 81.8821 91.4179C81.8821 89.4822 83.5773 88.0898 85.9347 88.0898C87.0244 88.0898 87.8709 88.374 88.5783 88.9167L91.4812 88.4733V90.3284C90.8756 90.3483 90.2909 90.2484 89.4446 90.0265C89.6251 90.5308 89.6854 90.8729 89.6854 91.2754C89.6854 93.09 87.9314 94.5426 85.7754 94.5426C85.3705 94.5426 84.9264 94.5022 84.5851 94.4415C83.859 94.9253 83.6378 95.1673 83.6378 95.4288C83.6378 96.0344 84.3019 96.1959 86.8016 96.2362C89.0214 96.2561 89.2233 96.2561 89.867 96.4773C90.6744 96.7398 91.2584 97.525 91.2584 98.3517C91.2584 99.1183 90.8152 99.8845 89.988 100.53C88.6593 101.559 87.1653 102.003 85.0697 102.003C82.6897 102.003 81.4199 101.336 81.4199 100.087C81.4199 99.4815 81.762 98.9976 82.6291 98.3517C83.2363 97.9084 83.2743 97.8697 83.4971 97.626C82.3881 97.265 81.7431 96.6389 81.7431 95.8726ZM84.0602 97.8482C84.0007 97.9907 83.9608 97.9692 83.9402 98.0106L83.7398 98.2118C83.4367 98.5347 83.2949 98.8361 83.2949 99.1792C83.2949 100.289 84.7262 101.215 86.4191 101.215C88.1126 101.215 89.5852 100.166 89.5852 98.9978C89.5852 98.3326 89.161 98.0296 88.173 98.0107L86.5199 97.95C85.1301 97.9086 84.9073 97.8899 84.1413 97.7686C84.1215 97.8292 84.0817 97.8292 84.0602 97.8482ZM85.8757 93.9165C86.9441 93.9165 87.6498 92.9907 87.6498 91.5595C87.6498 89.9057 86.843 88.7361 85.6943 88.7361C84.6045 88.7361 83.8987 89.6438 83.8987 91.0344C83.8987 92.7281 84.7263 93.9165 85.8757 93.9165Z" fill="#231F20"/>
<path d="M30.1777 97.2215H29.9372V95.6096C29.0092 96.2127 28.8269 96.3137 28.2219 96.6575C27.4563 97.0402 26.7713 97.2414 26.1452 97.2414C24.5743 97.2414 23.827 96.275 23.827 94.2176V90.6084C23.827 89.6823 23.7667 89.5812 23.2831 89.4199C23.0415 89.3386 22.9406 89.2988 22.4971 89.2186V88.734L25.2798 88.0898H25.8633V93.6728C25.8633 95.205 26.3884 95.9113 27.537 95.9113C28.1424 95.9113 28.7876 95.6296 29.9161 94.8438V90.6082C29.9161 89.4198 29.7348 89.2588 28.061 89.1164V88.6129L31.4484 88.0898H31.9735V94.9431C31.9735 95.8506 32.0531 96.0124 32.5176 96.0124C32.718 96.0124 33.0018 95.971 33.4046 95.87V96.3949L30.1777 97.2215Z" fill="#231F20"/>
<path d="M25.9799 84.1367C26.7658 84.1367 27.3101 84.5797 27.3101 85.2456C27.3101 85.9514 26.7457 86.4152 25.9195 86.4152C25.134 86.4152 24.6084 85.9703 24.6084 85.2864C24.6083 84.5797 25.1338 84.1367 25.9799 84.1367Z" fill="#231F20"/>
<path d="M29.8419 84.1367C30.6287 84.1367 31.1729 84.5797 31.1729 85.2456C31.1729 85.9514 30.6088 86.4152 29.7827 86.4152C28.9967 86.4152 28.4717 85.9703 28.4717 85.2864C28.4717 84.5797 28.9967 84.1367 29.8419 84.1367Z" fill="#231F20"/>
<path d="M71.4412 12.2306C71.4034 11.8285 71.2879 10.6055 70.5754 10.6055C70.1268 10.6055 69.718 11.1354 69.6381 11.2453C68.4879 12.3403 67.3079 13.3325 66.1309 14.1938C61.3684 17.6704 56.2518 19.3396 50.9532 19.1509C40.4296 18.7759 32.5814 11.1341 32.5034 11.0569L32.3837 10.9385L31.7178 11.6457L31.7181 11.7117C31.7838 21.4326 34.0189 28.8598 35.8823 33.3785C37.9037 38.2803 39.9409 40.9205 39.9613 40.9466L40.2422 41.307L40.3835 36.3279L40.3542 36.2842C36.1905 30.072 34.3226 18.9984 33.9944 16.871C39.4592 20.3711 45.1576 22.2666 50.9379 22.5064C51.355 22.5238 51.778 22.5326 52.1951 22.5326C59.571 22.5326 65.1607 19.8722 67.8362 18.2865C68.3501 17.9827 68.7265 17.7349 68.9576 17.5759C68.129 46.292 50.8433 49.4008 43.4281 49.4008C41.9377 49.4008 41.0083 49.2639 40.9992 49.2625L40.7948 49.2316L40.8108 49.4377C41.1931 54.311 42.6224 54.9161 42.6831 54.9393L42.7193 54.9532L42.758 54.9494C49.9106 54.2531 55.8711 51.5699 60.4737 46.9744C64.1532 43.3013 66.975 38.4066 68.8615 32.4268C72.0694 22.2595 71.4481 12.334 71.4412 12.2306Z" fill="#939393"/>
<path d="M56.0061 0.507812L59.0465 2.94675L62.7801 1.82405L61.4004 5.46985L63.6217 8.67296L59.7272 8.48757L57.3661 11.5899L56.339 7.83069L52.6602 6.54411L55.9201 4.40562L56.0061 0.507812Z" fill="#E21937"/>
</svg>
